<svg xmlns="http://www.w3.org/2000/svg" viewBox="0 0 90.5 92.74"><defs><style>.cls-1{fill:#b0b9c2;}.cls-2{fill:#99a1a8;}.cls-3{fill:#949ba3;}.cls-4{fill:#ccd6e0;}.cls-5{fill:#5c362c;}.cls-6{fill:#9d7261;}.cls-7{fill:#5e432e;}.cls-8{fill:#473022;}.cls-9{fill:#663c31;}</style></defs><g id="Layer_2" data-name="Layer 2"><g id="Layer_1-2" data-name="Layer 1"><path class="cls-1" d="M90.5,41c0-7.5-5.82-16.3-13.26-20-4.07-2-8.06-2.18-10.94-.39-2.58,1.59-4,4.5-4,8.18V48.49h0c0,.24.18.48.55.66a3.1,3.1,0,0,0,1.6.26V32.71a10.17,10.17,0,0,1,1.92-6.31,4.51,4.51,0,0,1,1.9-2.64c1.75-1.08,4.41-.88,7.29.56A22.38,22.38,0,0,1,84.87,34a21.27,21.27,0,0,1,3.76,11.3V61.75A3.05,3.05,0,0,0,90,61.48c.4-.2.58-.46.55-.72V41Z"/><path class="cls-2" d="M64.45,49.41a2.71,2.71,0,0,0,1-.26c.38-.19.56-.44.54-.7V28.76a7.87,7.87,0,0,1,.33-2.36,10.17,10.17,0,0,0-1.92,6.31Z"/><path class="cls-2" d="M84.87,34a15.93,15.93,0,0,1,1.89,7V60.75c0,.26.15.53.55.73a3.05,3.05,0,0,0,1.32.27V45.29A21.27,21.27,0,0,0,84.87,34Z"/><path class="cls-3" d="M88.63,41.66a1.92,1.92,0,0,1-.74-.15L74.67,35.83C65.29,31.79,55.86,26,57,14L56.52.91c0-1,3.37,0,3.75,0L60.72,14a2.09,2.09,0,0,1,0,.25c-.9,9.18,5.53,13.9,15.44,18.17l13.22,5.68a1.87,1.87,0,0,1-.74,3.59Z"/><ellipse class="cls-4" cx="58.4" cy="0.94" rx="1.87" ry="0.94"/><polygon class="cls-5" points="71.28 33.15 10.81 63.39 10.81 60.06 71.28 29.83 71.28 33.15"/><polygon class="cls-6" points="71.28 29.83 10.81 60.06 6.52 57.92 66.99 27.68 71.28 29.83"/><polygon class="cls-7" points="10.81 63.39 10.81 60.06 6.52 57.92 6.52 59.66 10.81 63.39"/><polygon class="cls-5" points="77.07 36.09 16.59 66.32 16.59 63 77.07 32.76 77.07 36.09"/><polygon class="cls-6" points="77.07 32.76 16.59 63 12.3 60.85 72.77 30.61 77.07 32.76"/><polygon class="cls-7" points="16.59 66.32 16.59 63 12.3 60.85 12.3 64.17 16.59 66.32"/><polygon class="cls-5" points="59.02 14.52 4.28 46.84 2.47 45.78 2.47 40.84 57.21 13.46 59.02 14.52"/><polygon class="cls-6" points="59.02 19.46 4.28 46.84 4.28 41.9 59.02 14.52 59.02 19.46"/><polygon class="cls-8" points="4.28 41.9 2.47 40.84 2.47 45.78 4.28 46.84 4.28 41.9"/><polygon class="cls-5" points="59.02 8.52 4.28 40.84 2.47 39.78 2.47 34.84 57.21 7.46 59.02 8.52"/><polygon class="cls-6" points="59.02 13.46 4.28 40.84 4.28 35.9 59.02 8.52 59.02 13.46"/><polygon class="cls-8" points="4.28 35.9 2.47 34.84 2.47 39.78 4.28 40.84 4.28 35.9"/><polygon class="cls-9" points="59.02 2.53 4.28 34.84 2.47 33.78 2.47 28.84 57.21 1.47 59.02 2.53"/><polygon class="cls-6" points="59.02 7.46 4.28 34.84 4.28 29.9 59.02 2.53 59.02 7.46"/><polygon class="cls-8" points="4.28 29.9 2.47 28.84 2.47 33.78 4.28 34.84 4.28 29.9"/><polygon class="cls-5" points="82.85 39.02 22.64 69.12 22.38 65.93 82.85 35.69 82.85 39.02"/><polygon class="cls-6" points="82.85 35.69 22.38 65.93 18.08 63.78 78.55 33.55 82.85 35.69"/><polygon class="cls-7" points="22.38 68.31 22.38 65.93 18.08 63.78 18.08 67.11 22.38 68.31"/><polygon class="cls-5" points="88.63 41.95 28.16 72.19 28.16 68.86 88.63 38.63 88.63 41.95"/><polygon class="cls-6" points="88.63 38.63 28.16 68.86 23.86 66.71 84.34 36.48 88.63 38.63"/><polygon class="cls-7" points="28.16 72.19 28.16 68.86 23.86 66.71 23.86 69.45 28.16 72.19"/><path class="cls-3" d="M29.27,71.81a1.76,1.76,0,0,1-.74-.16L15.31,66C6.11,62,1.11,54.24.46,42.87v0L0,29.63c0-.78,3.71-.63,3.74-.13l.45,13.17C4.77,52.5,9,59.18,16.79,62.53L30,68.22a1.86,1.86,0,0,1,1,2.45A1.89,1.89,0,0,1,29.27,71.81Z"/><path class="cls-4" d="M3.22,29c.73.37.73,1,0,1.33a3.39,3.39,0,0,1-2.65,0c-.73-.37-.73-1,0-1.33A3.39,3.39,0,0,1,3.22,29Z"/><path class="cls-1" d="M28.55,72c0-7.5-5.83-16.3-13.27-20-4.07-2-8-2.18-10.94-.4-2.58,1.6-4,4.5-4,8.19V79.48h0c0,.24.19.48.55.66a3.22,3.22,0,0,0,1.6.26V63.69a10.16,10.16,0,0,1,1.92-6.3,4.52,4.52,0,0,1,1.9-2.64c1.76-1.09,4.42-.88,7.3.56C19.68,58.35,24.8,66,24.8,72V91.71s0,0,0,0c0,.26.14.53.54.73a3.39,3.39,0,0,0,2.65,0c.39-.2.57-.46.54-.72,0,0,0,0,0,0Z"/><path class="cls-2" d="M2.49,80.4a2.8,2.8,0,0,0,1-.26c.39-.19.57-.45.55-.7V59.75a8.17,8.17,0,0,1,.32-2.36,10.16,10.16,0,0,0-1.92,6.3Z"/></g></g></svg>