<svg xmlns="http://www.w3.org/2000/svg" viewBox="0 0 188.09839 24.53001">
  <defs>
    <style>
      .cls-1, .cls-2 {
        fill: none;
        stroke: #000;
        stroke-linecap: round;
        stroke-linejoin: round;
      }

      .cls-2 {
        stroke-width: 0.5px;
      }
    </style>
  </defs>
  <g id="Layer_2" data-name="Layer 2">
    <g id="OBJECTS">
      <g>
        <path class="cls-1" d="M8.32155,9.4668s3.3568-.9342,3.5553,3.1321c.2541,5.2019-12.105,7.8579-11.343-3.2241.7618-11.0818,12.256-10.5739,18.106-5.0715,5.85,5.5021,19.6478,19.7234,35.5622,13.1207,0,0,6.3488-4.0632,4.3172-10.3274A3.6521,3.6521,0,0,0,55.154,4.6417c-2.6449-.0846-5.694,2.4503-3.9994,7.8725,1.6946,5.4223,4.4865,9.1422,16.4222,8.3804h14.0519"/>
        <g>
          <path class="cls-2" d="M83.022,20.9869a4.65222,4.65222,0,0,1,6.0762-3.1893,8.6642,8.6642,0,0,1,3.827,2.9654,12.45852,12.45852,0,0,1-3.827,3.1331C87.06035,24.9138,83.58145,23.8961,83.022,20.9869Z"/>
          <path d="M83.30175,21.2119h9.1758a.22513.22513,0,0,0,0-.45h-9.1758a.22513.22513,0,0,0,0,.45Z"/>
          <path d="M87.84235,17.4148a12.8659,12.8659,0,0,1-3.53516,3.32182.22517.22517,0,0,0,.22712.38856A13.16306,13.16306,0,0,0,88.16055,17.733c.17909-.224-.13733-.54447-.3182-.3182Z"/>
          <path d="M84.42955,20.9781a16.92132,16.92132,0,0,1,2.986,3.36736.22517.22517,0,0,0,.38856-.22712,17.34469,17.34469,0,0,0-3.05638-3.45844.22513.22513,0,0,0-.3182.3182Z"/>
          <path d="M90.07045,18.5251c.00075.02226.00179-.03955.00769-.03372q.01264-.02856-.00094-.00158l-.01731.028a.47951.47951,0,0,1-.05684.06894A3.59477,3.59477,0,0,1,89.732,18.85c-.22013.19756-.45047.3835-.67947.57058-.21679.17708-.42169.37268-.645.54095a5.29982,5.29982,0,0,1-1.13718.64046.23245.23245,0,0,0-.15714.27678A.22645.22645,0,0,0,87.39,21.036a5.82285,5.82285,0,0,0,1.24467-.68583c.26394-.19731.50635-.42371.76168-.63221.24936-.20364.501-.40585.73677-.62534.14883-.13855.39507-.34089.38737-.56748-.00981-.2888-.45986-.29013-.45,0Z"/>
          <path d="M87.171,21.034a11.58409,11.58409,0,0,0,1.58464,1.16986,9.76719,9.76719,0,0,1,1.21276,1.29194c.19774.21243.51543-.10633.3182-.3182a10.65352,10.65352,0,0,0-1.23125-1.30724,12.45141,12.45141,0,0,1-1.56615-1.15456c-.2-.21026-.51786.1083-.3182.3182Z"/>
        </g>
        <path class="cls-1" d="M179.77685,9.4668s-3.3568-.9342-3.5553,3.1321c-.254,5.2019,12.1049,7.8579,11.343-3.2241-.7618-11.0818-12.2559-10.5739-18.1059-5.0715-5.85,5.5021-19.6481,19.7234-35.5623,13.1207,0,0-6.3487-4.0632-4.3171-10.3274a3.652,3.652,0,0,1,3.3651-2.4549c2.645-.0846,5.6941,2.4503,3.9995,7.8725-1.6946,5.4223-4.4864,9.1422-16.4221,8.3804h-14.0519"/>
        <g>
          <path class="cls-2" d="M105.07635,20.9869a4.652,4.652,0,0,0-6.076-3.1893,8.6642,8.6642,0,0,0-3.827,2.9654,12.45555,12.45555,0,0,0,3.827,3.1331C101.03805,24.9138,104.517,23.8961,105.07635,20.9869Z"/>
          <path d="M104.79665,20.7619h-9.1758a.22513.22513,0,0,0,0,.45h9.1758a.22513.22513,0,0,0,0-.45Z"/>
          <path d="M99.93775,17.733a13.16489,13.16489,0,0,0,3.62634,3.39218.22517.22517,0,0,0,.22712-.38856A12.86773,12.86773,0,0,1,100.256,17.4148c-.18081-.22616-.49738.09408-.3182.3182Z"/>
          <path d="M103.35075,20.6599a17.34488,17.34488,0,0,0-3.05648,3.45844.22517.22517,0,0,0,.38856.22712A16.92123,16.92123,0,0,1,103.669,20.9781a.22513.22513,0,0,0-.3182-.3182Z"/>
          <path d="M97.57805,18.5251c-.00775.22229.23.42031.37584.55687.23892.2237.49485.42906.74822.636.24882.20316.48538.42316.74146.61684a5.79273,5.79273,0,0,0,1.26486.7012.22651.22651,0,0,0,.27678-.15715.23058.23058,0,0,0-.15715-.27678,5.27161,5.27161,0,0,1-1.13708-.64046c-.22315-.16865-.42822-.36383-.64507-.54095-.229-.18707-.45938-.373-.67952-.57058a3.56788,3.56788,0,0,1-.271-.26332c-.04407-.04893-.02622-.03189-.0568-.06894-.00787-.00954-.01416-.03429-.0243-.04109.01321.00886.0134.05986.0138.04841.01009-.28964-.43992-.28925-.45,0Z"/>
          <path d="M100.60915,20.7158A12.43676,12.43676,0,0,1,99.043,21.87036a10.64682,10.64682,0,0,0-1.23125,1.30724c-.19714.21178.12037.53072.3182.3182a9.77876,9.77876,0,0,1,1.21277-1.29194,11.59472,11.59472,0,0,0,1.58463-1.16986c.19955-.20983-.11813-.52857-.3182-.3182Z"/>
        </g>
      </g>
    </g>
  </g>
</svg>
