<svg xmlns="http://www.w3.org/2000/svg" viewBox="0 0 69.9 397.68"><defs><style>.cls-1,.cls-10,.cls-11,.cls-12,.cls-13,.cls-14,.cls-15,.cls-2,.cls-3,.cls-4,.cls-5,.cls-6,.cls-7,.cls-8,.cls-9{fill:none;stroke-miterlimit:10;stroke-width:0;}.cls-1{stroke:#fafaf9;}.cls-2{stroke:#f1f1ef;}.cls-3{stroke:#d3d2d0;}.cls-4{stroke:#d7d6d3;}.cls-5{stroke:#e6e5e4;}.cls-6{stroke:#fcfcfc;}.cls-7{stroke:#e3e2e1;}.cls-8{stroke:#d4d3d0;}.cls-9{stroke:#f7f7f6;}.cls-10{stroke:#c9c7c4;}.cls-11{stroke:#ecebe9;}.cls-12{stroke:#bebcb8;}.cls-13{stroke:#a6a39e;}.cls-14{stroke:#d2d0cd;}.cls-15{stroke:#a2a09b;}.cls-16{fill:#f9f9f9;}.cls-17{fill:#cccbc9;}.cls-18{fill:#afaca7;}.cls-19{fill:#f4f4f3;}.cls-20{fill:#9d9a95;}.cls-21{fill:#a7a5a1;}.cls-22{fill:#e3e2df;}.cls-23{fill:#86857d;}</style></defs><g id="Layer_2" data-name="Layer 2"><g id="Layer_1-2" data-name="Layer 1"><path class="cls-1" d="M34.52,194.47q1.21,5,2.74,9.43c1.2,3.47.64,6.8,2.32,10.41a1.67,1.67,0,0,1,.14.91c-.45,3.34,1.16,5.5,1.48,8.41a33.25,33.25,0,0,0,2.16,8.69,15.44,15.44,0,0,1,1.13,4.81c.58,9.34,3.74,17.92,4.75,26.44.24,2,1.14,4,1.3,6.14q.28,3.77.3,3.81,2.59,17.72,5.87,35.36"/><path class="cls-2" d="M56.71,308.88l7.18,41.49"/><path class="cls-3" d="M69.8,314.43c-1-21.27-2.24-43.42-6.44-64.31"/><path class="cls-4" d="M58.09,213C55.52,195.38,53,178,50,160.34q-4.86-28.43-9.32-56.91"/><path class="cls-5" d="M40.71,103.43Q34.13,51.72,23.44.72a1,1,0,0,0-.32-.6.71.71,0,0,0-.78,0"/><path class="cls-6" d="M22.34.11l-.85,1.13a.94.94,0,0,1-.75.39c-5,.07-8.2-2-13.31.23A3.09,3.09,0,0,0,6,3.15,12.59,12.59,0,0,1,4.33,5.38C1.9,8,1.56,9.32,1.56,12.61a10.9,10.9,0,0,1-.51,3.48,7.84,7.84,0,0,0-.66,3.55,88.11,88.11,0,0,1,2.4,16.93,31,31,0,0,0,.83,6,33.92,33.92,0,0,1,1.07,6,44.28,44.28,0,0,0,.75,7.43c.46,2.16.77,4,.95,5.51a21,21,0,0,0,1.23,4.86,9.69,9.69,0,0,1,.7,4,137,137,0,0,0,.23,18.46,60.11,60.11,0,0,0,2,8.5,22,22,0,0,0,1.69,4.31l2.11,4.15c2.44,4.79-.08,9.61,2.69,14.42a21.53,21.53,0,0,1,3.17,9.87,29.88,29.88,0,0,0,1.21,8,31.58,31.58,0,0,1,1.29,5.07,38.34,38.34,0,0,0,2.19,9.09,84.88,84.88,0,0,1,4.8,16q1.9,10.23,2.06,11,1.7,7.6,2.8,15.17"/><path class="cls-7" d="M22.34.11Q29.56,36.64,35,73.4q2.34,15.88,4.77,31.78"/><line class="cls-8" x1="39.75" y1="105.18" x2="48.85" y2="163.53"/><path class="cls-9" d="M48.85,163.53a11.87,11.87,0,0,0,0,6.29.22.22,0,0,1-.05.19l-.33.32a.16.16,0,0,1-.28-.12A2.41,2.41,0,0,0,47,167.89a4.21,4.21,0,0,0-1.89-.45,3.25,3.25,0,0,1-2.83-1.95,1.85,1.85,0,0,0-.36-.61.43.43,0,0,0-.45-.14.27.27,0,0,1-.35-.25,1.36,1.36,0,0,0-1.2-1.31,2.9,2.9,0,0,1-2.48-1.89,3,3,0,0,1,.06-1.9,2.65,2.65,0,0,1,1.3-1.54c.4-.19.52-.61.35-1.26a.35.35,0,0,0-.33-.28l-1.41-.11a3.77,3.77,0,0,0-.89.05,4.35,4.35,0,0,0-3,1.81.68.68,0,0,0,0,.76,6.81,6.81,0,0,1,.12,6.79,2.61,2.61,0,0,0-.3,1L33,170.86a1,1,0,0,0,.23.67l2.86,3.3a.72.72,0,0,1,.16.57,24.43,24.43,0,0,0-.06,5.48,9.07,9.07,0,0,1-.22,2.7,13.34,13.34,0,0,0-.36,2.65,34.74,34.74,0,0,1-1.13,8.24"/><path class="cls-10" d="M55.9,213.89a950.93,950.93,0,0,1,10,114"/><path class="cls-11" d="M65.92,327.9l-.21,11.82c0,.32-.16.41-.45.28a.71.71,0,0,1-.48-.61,30.66,30.66,0,0,0-.77-5.9,43.58,43.58,0,0,1-1-5.82,74,74,0,0,0-1.65-10.24c-.95-4.07.57-7.83-3.58-10.8a.45.45,0,0,0-.73.14,3.55,3.55,0,0,0-.31,2.11"/><path class="cls-12" d="M40.71,103.43c-.37-.53-.59-.67-.68-.4a6.3,6.3,0,0,0-.28,2.15"/><path class="cls-13" d="M58.09,213,57,211.14c-.35-.57-.57-.52-.67.13l-.41,2.62"/><line class="cls-14" x1="55.9" y1="213.89" x2="48.85" y2="163.53"/><path class="cls-15" d="M63.36,250.12a50.49,50.49,0,0,0,.21,12.41c.73,5.14.84,9.58,1.41,14.6q1.84,16.32,2.25,33.8,0,.1.53,13.38a136.34,136.34,0,0,1-.21,14.85.33.33,0,0,1-.31.3.33.33,0,0,1-.33-.28l-.76-5.75"/><path class="cls-16" d="M22.34.11Q29.56,36.64,35,73.4q2.34,15.88,4.77,31.78l9,57.75a3.18,3.18,0,0,1-.06,1.19,12.1,12.1,0,0,0,.11,5.7.22.22,0,0,1-.05.19l-.33.32a.16.16,0,0,1-.28-.12A2.41,2.41,0,0,0,47,167.89a4.21,4.21,0,0,0-1.89-.45,3.25,3.25,0,0,1-2.83-1.95,1.85,1.85,0,0,0-.36-.61.43.43,0,0,0-.45-.14.27.27,0,0,1-.35-.25,1.36,1.36,0,0,0-1.2-1.31,2.9,2.9,0,0,1-2.48-1.89,3,3,0,0,1,.06-1.9,2.65,2.65,0,0,1,1.3-1.54c.4-.19.52-.61.35-1.26a.35.35,0,0,0-.33-.28l-1.41-.11a3.77,3.77,0,0,0-.89.05,4.35,4.35,0,0,0-3,1.81.68.68,0,0,0,0,.76,6.81,6.81,0,0,1,.12,6.79,2.61,2.61,0,0,0-.3,1L33,170.86a1,1,0,0,0,.23.67l2.86,3.3a.72.72,0,0,1,.16.57,24.43,24.43,0,0,0-.06,5.48,9.07,9.07,0,0,1-.22,2.7,13.34,13.34,0,0,0-.36,2.65,34.74,34.74,0,0,1-1.13,8.24q-1.1-7.56-2.8-15.17-.16-.74-2.06-11a84.88,84.88,0,0,0-4.8-16,38.34,38.34,0,0,1-2.19-9.09,31.58,31.58,0,0,0-1.29-5.07c-.92-2.88-.78-4.68-1.21-8-.1-.8-.54-3.69-1.41-9.46-1.09-7.18-1.37-8.74-1.79-10.72a46.5,46.5,0,0,0-2-7.4c-1-2.6-1.53-3.09-2.3-5.11-1-2.74-1.07-4.45-1.53-8.68-.42-3.87-.24-1-2.78-18.34a14.49,14.49,0,0,0-.7-4,21,21,0,0,1-1.23-4.86c-.18-1.51-.49-3.35-.95-5.51a44.28,44.28,0,0,1-.75-7.43,33.92,33.92,0,0,0-1.07-6,31,31,0,0,1-.83-6c-.11-2.64-.35-5.27-.7-7.88-.65-4.87-1.24-4.81-1.7-9s-.67-6.19.24-8.51A23.86,23.86,0,0,1,4.92,4.78h0S6.28,4.1,7.27,3.47a13.87,13.87,0,0,0,2.1-1.64C10.4.9,13.54,0,22.34.11Z"/><path class="cls-17" d="M22.34.11a.71.71,0,0,1,.78,0,1,1,0,0,1,.32.6q10.69,51,17.27,102.71c-.37-.53-.59-.67-.68-.4a6.3,6.3,0,0,0-.28,2.15Q37.32,89.3,35,73.4,29.55,36.64,22.34.11Z"/><path class="cls-18" d="M40.71,103.43q4.45,28.48,9.32,56.91c3,17.66,5.49,35,8.06,52.62L57,211.14c-.35-.57-.57-.52-.67.13l-.41,2.62-7-50.36-9.1-58.35A6.3,6.3,0,0,1,40,103c.09-.27.31-.13.68.4Z"/><path class="cls-19" d="M48.85,163.53l7,50.36a950.93,950.93,0,0,1,10,114l-.21,11.82c0,.32-.16.41-.45.28a.71.71,0,0,1-.48-.61,30.66,30.66,0,0,0-.77-5.9,44.36,44.36,0,0,1-1-5.71,70.31,70.31,0,0,0-1.62-10.2c-1-4.13.58-7.94-3.62-10.95a.45.45,0,0,0-.73.14,3.55,3.55,0,0,0-.31,2.11q-3.28-17.65-5.87-35.36s-.11-1.3-.3-3.81c-.16-2.14-1.06-4.12-1.3-6.14-1-8.52-4.17-17.1-4.75-26.44a15.44,15.44,0,0,0-1.13-4.81,33.25,33.25,0,0,1-2.16-8.69c-.32-2.91-1.93-5.07-1.48-8.4a1.58,1.58,0,0,0-.14-.91c-1.68-3.61-1.12-6.95-2.32-10.42q-1.53-4.46-2.74-9.43a34.74,34.74,0,0,0,1.13-8.24,13.34,13.34,0,0,1,.36-2.65,9.07,9.07,0,0,0,.22-2.7,24.43,24.43,0,0,1,.06-5.48.72.72,0,0,0-.16-.57l-2.86-3.3a1,1,0,0,1-.23-.67l.31-4.22a2.61,2.61,0,0,1,.3-1,6.81,6.81,0,0,0-.12-6.79.68.68,0,0,1,0-.76,4.35,4.35,0,0,1,3-1.81,3.77,3.77,0,0,1,.89-.05l1.41.11a.35.35,0,0,1,.33.28c.17.65,0,1.07-.35,1.26a2.65,2.65,0,0,0-1.3,1.54,3,3,0,0,0-.06,1.9A2.9,2.9,0,0,0,40,163.18a1.36,1.36,0,0,1,1.2,1.31.27.27,0,0,0,.35.25.43.43,0,0,1,.45.14,1.85,1.85,0,0,1,.36.61,3.25,3.25,0,0,0,2.83,1.95,4.21,4.21,0,0,1,1.89.45,2.41,2.41,0,0,1,1.12,2.32.16.16,0,0,0,.28.12l.33-.32a.22.22,0,0,0,.05-.19,11.87,11.87,0,0,1,0-6.29Z"/><path class="cls-20" d="M58.09,213l5.27,37.16a50.49,50.49,0,0,0,.21,12.41c.73,5.14.84,9.58,1.41,14.6q1.84,16.32,2.25,33.8,0,.1.53,13.38a136.34,136.34,0,0,1-.21,14.85.33.33,0,0,1-.31.3.33.33,0,0,1-.33-.28l-.76-5.75-.23-5.53a950.93,950.93,0,0,0-10-114l.41-2.62c.1-.65.32-.7.67-.13L58.09,213Z"/><path class="cls-21" d="M69.8,314.43c-1-21.27-2.24-43.42-6.44-64.31a50.49,50.49,0,0,0,.21,12.41c.73,5.14.84,9.58,1.41,14.6q1.84,16.32,2.25,33.8,0,.1.53,13.38a136.34,136.34,0,0,1-.21,14.85.33.33,0,0,1-.31.3.33.33,0,0,1-.33-.28l-.76-5.75-1.1,24.84c0,.23-.09.26-.25.09a6.45,6.45,0,0,1-.88-1.23c0,1.35,0,2.7,0,4.05a.38.38,0,0,1,.42-.07c.3.16.43.35.38.57a2.74,2.74,0,0,0-.07.42q.24,15,.89,30l4.19-51.95.14-17.11Z"/><path class="cls-22" d="M65.92,327.9l-.21,11.82c0,.32-.16.41-.45.28a.71.71,0,0,1-.48-.61,30.66,30.66,0,0,0-.77-5.9,43.58,43.58,0,0,1-1-5.82,74,74,0,0,0-1.65-10.24c-.95-4.07.57-7.83-3.58-10.8a.45.45,0,0,0-.73.14,3.55,3.55,0,0,0-.31,2.11l8.09,46.75a.48.48,0,0,1-.88.33l-.11-.18-.06.1a1.48,1.48,0,0,1,.17.7v.55a6.45,6.45,0,0,0,.88,1.23c.16.17.24.14.25-.09l1.1-24.84Z"/><path class="cls-23" d="M64.68,362.1a2.74,2.74,0,0,1,.07-.42c0-.22-.08-.41-.38-.57a.38.38,0,0,0-.42.07c.1,11.83.47,23.65.48,35.48a1.46,1.46,0,0,1-.23.81c.37.87.83-.89,1.36-5.3a.11.11,0,0,0,0-.05Q64.93,377.11,64.68,362.1Z"/></g></g></svg>