<svg xmlns="http://www.w3.org/2000/svg" viewBox="0 0 47.56 134.63"><defs><style>.cls-1{fill:#ffe781;}.cls-2{fill:#7c7d7c;}.cls-3{fill:#898a89;}.cls-4{fill:#a2a3a2;}.cls-5{fill:#909190;}.cls-6{opacity:0.19;}.cls-7{fill:#e2e3e2;}.cls-8{fill:#848584;}</style></defs><g id="Layer_2" data-name="Layer 2"><g id="Layer_1-2" data-name="Layer 1"><circle class="cls-1" cx="40.76" cy="19.87" r="6.06"/><path class="cls-2" d="M47.41,17.77c0,3-3,5.5-6.65,5.5s-6.65-2.46-6.65-5.5,3-7.23,6.65-7.23S47.41,14.73,47.41,17.77Z"/><path class="cls-3" d="M40.76,9.35C37,9.35,34,13.54,34,16.58a5.29,5.29,0,0,0,2.91,4.52A26,26,0,0,1,41,9.36Z"/><path class="cls-4" d="M41,9.36A26,26,0,0,0,36.88,21.1a7.92,7.92,0,0,0,3.88,1c3.76,0,6.8-2.47,6.8-5.51S44.63,9.51,41,9.36Z"/><path class="cls-2" d="M39.41,10a4.08,4.08,0,0,1,2.77-2.88,3,3,0,0,0-1.24-.27,3.09,3.09,0,0,0-1.58,5.75A4.53,4.53,0,0,1,39.41,10Z"/><path class="cls-5" d="M44,10a3.09,3.09,0,0,0-1.85-2.83A4.08,4.08,0,0,0,39.41,10a4.53,4.53,0,0,0,0,2.6,3,3,0,0,0,1.58.44A3.1,3.1,0,0,0,44,10Z"/><circle class="cls-1" cx="6.8" cy="36.44" r="6.06"/><path class="cls-2" d="M13.44,34.34c0,3-3,5.5-6.64,5.5S.15,37.38.15,34.34s3-7.24,6.65-7.24S13.44,31.3,13.44,34.34Z"/><path class="cls-3" d="M6.8,25.92C3,25.92,0,30.11,0,33.15a5.3,5.3,0,0,0,2.91,4.52A26.12,26.12,0,0,1,7,25.93Z"/><path class="cls-4" d="M7,25.93A26.12,26.12,0,0,0,2.91,37.67a7.94,7.94,0,0,0,3.89,1c3.75,0,6.79-2.47,6.79-5.51S10.66,26.08,7,25.93Z"/><path class="cls-2" d="M5.44,26.6a4.06,4.06,0,0,1,2.78-2.88A3.09,3.09,0,0,0,5.39,29.2,4.71,4.71,0,0,1,5.44,26.6Z"/><path class="cls-5" d="M10.06,26.54a3.09,3.09,0,0,0-1.84-2.82A4.06,4.06,0,0,0,5.44,26.6a4.71,4.71,0,0,0-.05,2.6,3.1,3.1,0,0,0,4.67-2.66Z"/><g class="cls-6"><path d="M35.31,124.85c4.48,2.23,4.48,5.86,0,8.1a20.42,20.42,0,0,1-16.22,0c-4.47-2.24-4.47-5.87,0-8.1A20.42,20.42,0,0,1,35.31,124.85Z"/></g><path class="cls-5" d="M30.65,125.46c3.8,1.9,3.8,5,0,6.88a17.32,17.32,0,0,1-13.76,0c-3.8-1.9-3.8-5,0-6.88A17.32,17.32,0,0,1,30.65,125.46Z"/><path class="cls-4" d="M31.35,125.69l-2.7-15.85a3.86,3.86,0,0,0-3.93-3.2l-.95-.12-1.15.21c-2.06,0-3.21,1.11-3.72,3.11l-2.71,15.85a6.4,6.4,0,0,1-.2.62c-.48,1.25.24,2.59,2.17,3.56a14.2,14.2,0,0,0,11.22,0c1.93-1,2.66-2.31,2.18-3.56A6.45,6.45,0,0,1,31.35,125.69Z"/><path class="cls-7" d="M26.6,107c1.55.78,1.55,2,0,2.83a7.11,7.11,0,0,1-5.65,0c-1.56-.78-1.56-2,0-2.83A7.2,7.2,0,0,1,26.6,107Z"/><path class="cls-8" d="M21.58,105.17a5.83,5.83,0,0,1,4-4.14,4.26,4.26,0,0,0-1.79-.38,4.43,4.43,0,0,0-2.26,8.24A6.57,6.57,0,0,1,21.58,105.17Z"/><path class="cls-5" d="M28.21,105.08a4.42,4.42,0,0,0-2.65-4,5.83,5.83,0,0,0-4,4.14,6.57,6.57,0,0,0-.07,3.72,4.44,4.44,0,0,0,6.7-3.81Z"/><path class="cls-4" d="M25.64,101.18V30.92H23.3v71.59a2.45,2.45,0,0,0,1.79-.34A1.1,1.1,0,0,0,25.64,101.18Z"/><path class="cls-3" d="M21.9,30.92v70.34a1.11,1.11,0,0,0,.55.91,2.2,2.2,0,0,0,.85.34V30.92Z"/><ellipse class="cls-7" cx="23.77" cy="30.92" rx="1.87" ry="1.28"/><path class="cls-8" d="M21.58,32.74a5.83,5.83,0,0,1,4-4.14,4.26,4.26,0,0,0-1.79-.38,4.43,4.43,0,0,0-2.26,8.24A6.57,6.57,0,0,1,21.58,32.74Z"/><path class="cls-5" d="M28.21,32.65a4.42,4.42,0,0,0-2.65-4,5.83,5.83,0,0,0-4,4.14,6.57,6.57,0,0,0-.07,3.72,4.42,4.42,0,0,0,6.7-3.81Z"/><path class="cls-4" d="M23.49,30.71a1.14,1.14,0,0,1-1.12-1.08L21.51,14a3.84,3.84,0,0,0-1.73-3.36c-1.25-.68-3.06-.44-5,.65-4,2.27-7.16,7.62-6.93,11.67l0,.48a1.14,1.14,0,1,1-2.28.12l0-.48c-.27-5,3.28-11,8.09-13.78,2.61-1.49,5.23-1.73,7.19-.66a6,6,0,0,1,2.92,5.24l.86,15.64a1.14,1.14,0,0,1-1.08,1.2Z"/><path class="cls-4" d="M23.49,30.71h0a1.14,1.14,0,0,1-1.09-1.19L23,13.87c.2-5,4.31-10.67,9.36-12.95,2.74-1.23,5.37-1.23,7.22,0A6,6,0,0,1,42,6.43l0,.48a1.14,1.14,0,1,1-2.28-.09l0-.48a3.84,3.84,0,0,0-1.41-3.5c-1.17-.8-3-.74-5,.17-4.18,1.88-7.85,6.9-8,11l-.63,15.65A1.14,1.14,0,0,1,23.49,30.71Z"/></g></g></svg>