<svg xmlns="http://www.w3.org/2000/svg" viewBox="0 0 497.6 498.22"><defs><style>.cls-1,.cls-2{fill:none;}.cls-2{stroke:#161616;stroke-linecap:round;stroke-linejoin:round;stroke-width:0;}.cls-3{fill:#161616;}</style></defs><g id="Layer_2" data-name="Layer 2"><g id="Layer_1-2" data-name="Layer 1"><path class="cls-1" d="M116.25,173.78l.07.09-.1-.13Z"/><path class="cls-1" d="M116.41,174a1.71,1.71,0,0,1-.11-.14l0,0Z"/><path class="cls-1" d="M66.86,346.6l.16-.14h0Z"/><path class="cls-1" d="M244.32,473.27A247,247,0,0,0,274,483.61a1.51,1.51,0,0,1,1.1-1.41c2.25-.33,4.48-.7,6.72-1.1a1.59,1.59,0,0,1,.29-.15,1.53,1.53,0,0,1,.68-.35,252.86,252.86,0,0,0,50.36-15.11l-.09,0,.1,0,.41-.18-.31.13c3.58-1.52,7.14-3.12,10.65-4.81a257.76,257.76,0,0,0,33.15-19.27c.07-.26.17-.52.26-.79.92-2.76,1.75-5.55,2.57-8.34.74-2.49,1.49-5,2.18-7.47.4-1.45.8-2.91,1.19-4.36s.74-2.9,1.09-4.36c.61-2.49,1.08-5,1.58-7.53.56-2.86,1.14-5.7,1.79-8.54.33-1.48.65-3,1-4.44.27-1.28.47-2.58.7-3.87l.33-2.61c.11-.94.17-1.9.25-2.84.17-1.86.31-3.73.47-5.59.13-1.42.26-2.85.38-4.27.06-.67.1-1.35.14-2,0-.25,0-.51.05-.76l-.12-.05a21,21,0,0,1-2.36-1.33c-.78-.49-1.53-1-2.28-1.55-1.59-1.12-3.13-2.33-4.63-3.57s-2.92-2.49-4.39-3.73c-.7-.59-1.38-1.2-2.09-1.77l-2.15-1.7c-1.4-1-2.79-2.06-4.21-3.06-.62-.43-1.23-.85-1.85-1.26s-1.52-1-2.3-1.51q-5.11-3.17-10.28-6.25c-1.73-1-3.48-2.05-5.23-3.06-.64-.36-1.28-.7-1.94-1-.86-.45-1.71-.93-2.59-1.35-2.82-1.34-5.65-2.65-8.49-4l-.09,0-1.94-.9-5.66-2.61c-1.6-.74-3.22-1.44-4.84-2.14-1-.4-2-.82-3-1.14l-.25-.08c0,.48.08.95.13,1.43a1,1,0,0,1-1,1,1,1,0,0,1-.7-.29,1,1,0,0,1-.29-.7q-.08-.63-.12-1.26a252.31,252.31,0,0,1-30.29,18.16,242.42,242.42,0,0,1-25.21,11.09,240.29,240.29,0,0,1-26,8.05c-7.69,1.92-15.46,3.51-23.29,4.69.72.45,1.45.89,2.18,1.33h.09a.63.63,0,0,1,.34.1.68.68,0,0,1,.27.26l.05.1,1.77,1.08a15.2,15.2,0,0,1,2.64,1.87,2,2,0,0,1-1.43,3.46,2,2,0,0,1-1-.28c-.2-.14-.41-.27-.62-.4-.11.78-.23,1.56-.37,2.34-.32,1.82-.61,3.65-1.09,5.43s-.94,3.51-1.48,5.25c-1.1,3.52-2.41,7-3.54,10.5s-2.21,7.09-3.15,10.68-1.69,7.34-2.4,11c-.67,3.54-1.25,7.1-2,10.62-.37,1.74-.77,3.47-1.12,5.22s-.64,3.44-.88,5.17c-.06.49-.11,1-.17,1.48l.79,0a11.91,11.91,0,0,1,1.57.15,4,4,0,0,1,1.43.56,3.68,3.68,0,0,1,1.22,1.32,2.74,2.74,0,0,1,.39,1.46,1.65,1.65,0,0,1,.35.65,1.74,1.74,0,0,1,0,.64A244.17,244.17,0,0,0,244.32,473.27Z"/><path class="cls-1" d="M278.27,484.75l.56.15a1.45,1.45,0,0,1,.17-.26Z"/><path class="cls-1" d="M63,349.73l.13.12-.13-.12Z"/><path class="cls-1" d="M148.07,53.85h0c-.26.2-.51.42-.77.63Z"/><path class="cls-1" d="M233.92,64l-1.11-.31,1.11.31Z"/><path class="cls-1" d="M141.92,187.3l-.12.16h0A.91.91,0,0,1,141.92,187.3Z"/><path class="cls-1" d="M94.37,145.25c-.32-.4-.63-.82-1-1.23l0,0,.06.09-.06-.08Z"/><path class="cls-1" d="M439.9,99.81q-2.26-2.88-4.62-5.69,2.34,2.8,4.62,5.69Z"/><path class="cls-1" d="M420.05,104.18a18.16,18.16,0,0,1,2.08-1.13c-1-1.24-2.11-2.43-3.18-3.62.3,1.23.59,2.46.87,3.7C419.9,103.48,420,103.83,420.05,104.18Z"/><path class="cls-1" d="M342.17,41.58l-.25-.19h0l.06.2Z"/><path class="cls-1" d="M416.93,90.91l-.53-.61v0C416.58,90.52,416.76,90.71,416.93,90.91Z"/><path class="cls-1" d="M86.34,134.58h0c.14.2.29.39.43.58Z"/><path class="cls-1" d="M303.29,46.75q-9.14,1.23-18.16,3.14c-7.69,1.64-15.31,3.63-22.81,6q-5.64,1.78-11.17,3.82-2.19.81-4.36,1.67a1.49,1.49,0,0,1,.73,1.69c-.38,1.45-.78,2.89-1.13,4.35L245.52,71c-.11.46-.22.92-.34,1.38-.15,1.4-.28,2.8-.39,4.21-.23,3-.45,5.94-.81,8.9,0,.36-.09.72-.14,1.08-.06,1.19-.13,2.39-.21,3.58-.26,3.89-.56,7.79-.89,11.67-.33,3.69-.68,7.38-1,11.07q-.27,3.47-.44,7c.08.93.13,1.88.25,2.81l.33,2.61c.26,1.68.53,3.36.81,5s.52,3.41.74,5.12c.46,3.64.69,7.3.86,11,.08,1.74.11,3.48.05,5.22,0,.8-.05,1.59-.07,2.39a11.69,11.69,0,0,1-.08,1.32,6,6,0,0,1-.52,2.25h0q4.41,2,8.76,4.12c7.17,3.53,14.15,7.45,20.94,11.67a241.65,241.65,0,0,1,20.17,14.07c1.2.94,2.4,1.88,3.58,2.84q6.94,5.55,13.46,11.58c4,3.68,7.82,7.48,11.53,11.42q3.54,3.72,6.92,7.61v0c0-.25,0-.5,0-.75a20.73,20.73,0,0,1,.21-2.49c.05-.34.1-.68.18-1,0-.17.08-.34.13-.51a8.21,8.21,0,0,1,.51-1.27,1.28,1.28,0,0,1,1.19-.67,1.37,1.37,0,0,1,.69.18,1.39,1.39,0,0,1,.64,1.55q-.09.33-.15.66l-.06.55,3-1c3.62-1.21,7.23-2.45,10.88-3.6,1.8-.56,3.59-1.15,5.39-1.69l6.49-1.91,5.3-1.55c1.81-.54,3.6-1.15,5.4-1.73,1.64-.53,3.26-1.13,4.88-1.72s3.3-1.19,4.93-1.81l5.41-2.05c.86-.32,1.71-.66,2.57-1l3.16-1.08c3.49-1.2,7.06-2.17,10.62-3.14,1.74-.48,3.48-1,5.21-1.48s3.35-1,5-1.56,3.46-1,5.21-1.42c.85-.2,1.69-.39,2.53-.61s1.78-.52,2.67-.8q1.23-9.74,1.68-19.53a249.51,249.51,0,0,0-1.89-44.22c0-.06,0-.12,0-.18v0s0-.07,0-.11q-1.17-8.61-2.92-17.12c-.61-2.93-1.26-5.85-2-8.75-.33-1.39-.68-2.78-1-4.16a2.5,2.5,0,0,1-.07-.26q-.67-.8-1.38-1.56c-1.33-1.41-2.68-2.78-4.06-4.14-2.58-2.52-5.32-4.87-8.13-7.13-1-.76-2-1.53-3-2.28-2.92-2.16-5.93-4.19-8.88-6.32-1.44-1-2.88-2.12-4.32-3.16-1.68-1.22-3.37-2.41-5.07-3.59-1.44-1-2.89-2-4.33-3s-2.91-2.05-4.37-3.06c-.76-.52-1.5-1.06-2.28-1.56s-1.66-1.13-2.52-1.64c-1.67-1-3.34-2-5-2.95-1.46-.82-2.93-1.62-4.36-2.48-.82-.49-1.66-1-2.47-1.48l-2.78-1.8c-.66-.43-1.3-.88-1.95-1.33s-1.45-1-2.14-1.48l-1.35-1h-.63c-.43,0-.86,0-1.29,0l-1.43,0c-1.9-.06-3.81-.1-5.72-.11q-5.72,0-11.42.21Q314.58,45.25,303.29,46.75Z"/><path class="cls-1" d="M341.29,40.5a1.1,1.1,0,0,1,0-.18,1,1,0,0,0,0,.17Z"/><path class="cls-1" d="M458.66,282.41l-.06-.25.06.25Z"/><path class="cls-1" d="M421.88,200h0c0,.27-.1.55-.15.82C421.78,200.59,421.83,200.31,421.88,200Z"/><path class="cls-1" d="M398.63,371.72l-.23.28h0C398.48,371.91,398.55,371.81,398.63,371.72Z"/><path class="cls-1" d="M319.73,475.08c-.88.3-1.77.58-2.65.87a2.48,2.48,0,0,1,.55.15c.61,0,1.22-.07,1.83-.07h.91a2.36,2.36,0,0,1,0-1.18Z"/><path class="cls-1" d="M46.81,333.26l0,0,0,0Z"/><path class="cls-1" d="M104.1,435.19c-.33-.43-.66-.86-1-1.3l-.94-1.35-1.75-2.49c-1.27-1.78-2.54-3.56-3.77-5.36-1.54-2.25-3-4.54-4.41-6.89s-2.93-4.94-4.39-7.42c-2.76-4.69-5.59-9.34-8.45-14-.61-1-1.2-2-1.8-3s-1.2-2-1.75-3q-1.25-2.33-2.51-4.64c-.47-.87-.89-1.76-1.32-2.65q-1.17-2.36-2.32-4.72c-.42-.85-.79-1.73-1.18-2.6l-2.21-4.92c-.41-.92-.8-1.86-1.2-2.8q-1.77-4.15-3.49-8.35c-.45-1.08-.88-2.17-1.31-3.27-.31-.81-.62-1.63-.94-2.44-.19-.5-.36-1-.53-1.51a12.42,12.42,0,0,1-.42-1.35c-.09-.42-.16-.85-.24-1.29a1.21,1.21,0,0,1,0-.19l-1.59-1.59c-.72-.73-1.42-1.48-2.12-2.24a1.85,1.85,0,0,1-.41-.7q-3-3.17-5.92-6.43-3.48-3.92-6.77-8l-.48-.58-.78-.95q-2.77-3.42-5.42-6.91A247.6,247.6,0,0,1,9.24,280.41a1.39,1.39,0,0,1-.13-1l0-.1c-.27-.56-.53-1.13-.8-1.69.14,1.16.29,2.33.44,3.49a243.1,243.1,0,0,0,6.43,31.4,250.88,250.88,0,0,0,10.35,30,243.39,243.39,0,0,0,14.17,28.18A255,255,0,0,0,57,396.31,248,248,0,0,0,77.85,420a253,253,0,0,0,22.31,19.72l1.62-2c.67-.8,1.37-1.59,2.11-2.32Z"/><path class="cls-1" d="M19.73,179.92c2.37-2.61,4.81-5.18,7.3-7.68,5-5.08,10.34-9.92,15.8-14.56S54.1,148.54,60,144.35q4.36-3.1,8.85-6,2.2-1.43,4.44-2.81l2.36-1.45c.73-.43,1.47-.82,2.22-1.22a1.51,1.51,0,0,1,.71-.17,1.36,1.36,0,0,1,.86.3l.7-.36,1.31-.65c-.44-.6-.89-1.19-1.31-1.8a1.13,1.13,0,0,1,1-1.7,1.06,1.06,0,0,1,.79.33c.55.62,1,1.29,1.54,1.95a.5.5,0,0,1,.1.19h0l.21-.11.94-.53a1.51,1.51,0,0,1,0-1.51c1.11-2,2.22-4,3.35-5.94l2.84-4.93q.21-.36.45-.72c.5-.75,1-1.5,1.49-2.25l1.76-2.65c.27-.4.52-.81.8-1.2l3.23-4.43c.89-1.22,1.81-2.43,2.72-3.63,2-2.62,4-5.22,6-7.84,1.86-2.45,3.68-4.92,5.55-7.37s4-5.12,6-7.66c4-5.1,8.06-10.21,12.39-15.06,2.12-2.38,4.32-4.7,6.66-6.86,1.17-1.07,2.36-2.12,3.59-3.13q.9-.75,1.8-1.47a13.76,13.76,0,0,1,1.19-.86,8.2,8.2,0,0,1,1-.5l.28-.24.43-.34a1.84,1.84,0,0,1,0-.41,1.54,1.54,0,0,1,1.37-1.52c-.14-1.11-.28-2.22-.41-3.32-.29-2.45-.55-4.91-.77-7.36-.26-3.11-.48-6.22-.63-9.34q-9.59,4.53-18.77,9.87a255.34,255.34,0,0,0-26.28,17.7,247.35,247.35,0,0,0-23.72,21,255.52,255.52,0,0,0-20.1,22.89A244.79,244.79,0,0,0,39.3,127.34a249.14,249.14,0,0,0-13.76,27.49,243.89,243.89,0,0,0-10.49,30.46c.39-.48.79-.95,1.19-1.43Q18,181.87,19.73,179.92Z"/><path class="cls-1" d="M226.08,468.94a248.15,248.15,0,0,1-22.71-13.31c-.54.07-1.08.12-1.62.16a1.3,1.3,0,0,1-.8.69,1.24,1.24,0,0,1-1-.13,1.11,1.11,0,0,1-.43-.43l-.9,0a1.76,1.76,0,0,1-1.71,1.34c-2.31-.09-4.63-.21-6.95-.3-3.51-.13-7-.16-10.54-.22a86.33,86.33,0,0,1-10.28-.83c-1.73-.24-3.46-.47-5.18-.76l-2.78-.46c-.41-.07-.82-.17-1.23-.25s-.81-.15-1.21-.25c-3.34-.82-6.66-1.7-10-2.51-1.68-.41-3.37-.79-5.06-1.18l-2.74-.64c-.63-.15-1.27-.28-1.9-.46-1.65-.46-3.32-.87-4.94-1.44l-3.31-1.15c-.57-.19-1.12-.42-1.67-.65L126,444.93c-.67-.27-1.31-.59-2-.91l-3-1.41c-.54-.26-1.06-.57-1.59-.86-1.42-.76-2.86-1.49-4.23-2.33-1.3-.53-2.57-1.13-3.82-1.76a22.53,22.53,0,0,1-3-1.9c-.4.26-.79.52-1.17.8a19.56,19.56,0,0,0-2.15,2.12c-.38.42-.76.83-1.12,1.27l-1.36,1.65a242.24,242.24,0,0,0,23.83,15.93A255.2,255.2,0,0,0,155,471.86a242.59,242.59,0,0,0,30.45,10.47,252.24,252.24,0,0,0,31.23,6.34,247.15,247.15,0,0,0,31.81,2.13h.41a257.3,257.3,0,0,0,30-1.8q-6.79-1.71-13.48-3.82A248.24,248.24,0,0,1,226.08,468.94Z"/><path class="cls-1" d="M8.7,274.12q1,2.24,2.05,4.44a1.24,1.24,0,0,1,.69.56l1.14,2.36a249.57,249.57,0,0,0,25.91,41.45h0l0,0h0l0,.07h0l0,0v0q1.92,2.48,3.88,4.89c4.33,5.26,8.9,10.33,13.65,15.21a1.63,1.63,0,0,1,.64.38l1.42,1.4.18-.13a1.78,1.78,0,0,1,.9-.24,1.84,1.84,0,0,1,.47.06,1.74,1.74,0,0,1,1.07.82c.31.67.61,1.33.91,2l.22-.16.37-.25a.86.86,0,0,1,.46-.68c.5-.29,1-.56,1.5-.83l.64-.53c.36-.3.69-.64,1-1,.83-.79,1.61-1.62,2.39-2.45a1.2,1.2,0,0,1,.86-.36,1.23,1.23,0,0,1,.89.36,1.29,1.29,0,0,1,.32.55l2.65-1.48q2.11-1.17,4.25-2.32c1.39-.76,2.75-1.55,4.13-2.33s2.68-1.64,4-2.48c.47-.29.92-.61,1.37-.92l2.32-1.6c.61-.42,1.19-.87,1.78-1.31l1.57-1.14c1.27-.93,2.53-1.88,3.82-2.78s2.82-2,4.26-2.9c1.18-.77,2.37-1.52,3.57-2.28.71-.46,1.44-.9,2.14-1.38l2.09-1.43c1.11-.76,2.17-1.59,3.24-2.42h0c1.43-1.13,2.85-2.26,4.31-3.34s2.76-1.89,4.14-2.84a1.54,1.54,0,0,1,.56-.23l2.9-2.14c-.08-.84-.16-1.69-.23-2.53s-.12-1.41-.17-2.12c0-.24-.08-.48-.11-.72-.11-.71-.12-1.43-.16-2.15-.08-1.35-.14-2.7-.2-4.06q-.16-3.64-.23-7.29a246.31,246.31,0,0,1,9.94-74.28c1.21-4.09,2.51-8.14,3.93-12.16l.33-.95c-.85-.62-1.7-1.23-2.54-1.87a57.84,57.84,0,0,1-7.88-7.53q-3.75-4.2-7.4-8.49c-.5-.6-1-1.21-1.48-1.82s-1.13-1.39-1.67-2.1c-1.17-1.54-2.34-3.07-3.48-4.63-2.25-3.07-4.43-6.2-6.62-9.32-1-1.49-2.11-3-3.17-4.44s-2.08-2.81-3.13-4.21c-2-2.7-4.11-5.37-6.13-8.08q-1.77-2.42-3.51-4.84c-.93-1.3-1.85-2.61-2.79-3.91l-3.44-4.76-.25-.34-.41.29c-.91.61-1.82,1.24-2.72,1.86l-2.74,1.86c-.49.33-1,.64-1.5,1l-.64.42c-.35.21-.69.42-1.05.61a10.27,10.27,0,0,1-1.07.48.59.59,0,0,1-.45-.06.59.59,0,0,1-.2-.79,1.31,1.31,0,0,1,.26-.4q-3,1.92-6,3.93-6.2,4.2-12.1,8.76-9.06,7-17.43,14.83c-2.58,2.41-5.09,4.9-7.56,7.43s-4.9,5.1-7.27,7.73c-1.18,1.3-2.33,2.62-3.49,3.93s-2.34,2.63-3.47,4c-.7.83-1.4,1.68-2.1,2.53q-2.82,11.81-4.48,23.85A245.57,245.57,0,0,0,6.62,249c0,5.58.18,11.16.59,16.73q.29,4,.7,8h0A.84.84,0,0,1,8.7,274.12Z"/><path class="cls-1" d="M38.54,323v0h0Z"/><path class="cls-1" d="M482.69,184.78a251.42,251.42,0,0,0-10.34-29.86A242.13,242.13,0,0,0,443.14,104c-1.15.1-2.3.18-3.44.26-2.38.15-4.75.3-7.12.55a38.27,38.27,0,0,0-8.54,1.91,19.6,19.6,0,0,0-2.59,1.5,1.57,1.57,0,0,1-.49.23q.78,3.92,1.43,7.85A247.78,247.78,0,0,1,425.66,161q-.2,11.1-1.38,22.14-.33,3.08-.74,6.14l.14.06a1.35,1.35,0,0,1,.57.74l.51,1.3,1.81,4.2q.21.48.45,1l1.35,1.79c.91,1.2,1.78,2.43,2.65,3.66s1.62,2.41,2.42,3.63,1.48,2.41,2.22,3.61c.33.54.64,1.1.95,1.64s.68,1.14,1,1.72c.69,1.25,1.39,2.5,2,3.77l.26.49c.66,1.14,1.3,2.29,1.95,3.43.74,1.32,1.42,2.67,2.12,4,.27.52.52,1,.77,1.56l1.27,2.61c.67,1.38,1.3,2.79,2,4.18,1.24,2.68,2.44,5.39,3.58,8.11q.94,2.23,1.85,4.48c.59,1.48,1.15,3,1.71,4.47s1,2.89,1.46,4.35.81,2.66,1.15,4c.19.76.4,1.52.57,2.29l.57,2.5c.17.78.3,1.58.46,2.36s.27,1.51.4,2.26c.52,2.9,1,5.82,1.65,8.7.18.81.37,1.62.56,2.43l.2.57a1.16,1.16,0,0,1,.05.45c.06.27.13.54.19.81.18.74.37,1.48.53,2.23l.87,0H464a2.42,2.42,0,0,1,.47.05l1.8.09c1.72.09,3.45.16,5.17.21,3.12.09,6.25.13,9.37.13h2.44c1.09,0,2.18,0,3.27,0a1.2,1.2,0,0,1,.92.44l1.21,0,.33-2.3c.73-5.54,1.31-11.1,1.66-16.68.19-2.85.34-5.71.42-8.57.08-2.66.19-5.32.18-8a260.87,260.87,0,0,0-2.18-32.21A242.59,242.59,0,0,0,482.69,184.78Z"/><path class="cls-1" d="M486.53,285.57c-1.16.06-2.33.07-3.49.08h-2.17c-3.2,0-6.41-.07-9.61-.21-1.71-.08-3.41-.17-5.12-.28a2.27,2.27,0,0,1-.27.78c-1.53,2.09-3,4.24-4.48,6.37q-2.7,3.81-5.51,7.56c-1.77,2.37-3.57,4.72-5.36,7.07s-3.5,4.53-5.22,6.81q-2.88,3.84-5.75,7.67c-3.7,4.92-7.5,9.77-11.29,14.63l.11-.14,0,0-.07.08,0,0-3.05,4,.16-.21h0l0,0h0l-.06.08-3,3.83-.1.12h0l-.09.12h0l-3,3.82h0l-.06.08,0,0h0l0,0H419l0,0h0l0,0h0l-3.1,4h0l0,0h0l-.08.1,0,0,0,0-.07.09v0a.05.05,0,0,1,0,0c-1.64,2.14-3.26,4.3-4.88,6.46q-3,4-6.05,8c-.94,1.23-1.95,2.42-2.93,3.63l-.17.21a.56.56,0,0,1-.08.7c-.5.45-1,.91-1.51,1.38l-.67.63c-.14.14-.26.29-.4.43a5.85,5.85,0,0,1-.54.45.6.6,0,0,1-.3.1q-1.39,11.76-3.94,23.35c-.39,1.8-.81,3.6-1.24,5.39-.75,3.19-1.55,6.37-2.43,9.52-1.14,4.1-2.38,8.17-3.75,12.21q-1.71,5.07-3.65,10.07c-.17.64-.33,1.27-.5,1.9-.09.35-.19.7-.29,1a2.18,2.18,0,0,1,.67-.1,2.69,2.69,0,0,1,.65.08,2.34,2.34,0,0,1,1.38,1.06,2.36,2.36,0,0,1,.23,1.78,1.33,1.33,0,0,1-.11.3c1.13.3,2.25.6,3.38.86.86.21,1.72.42,2.59.59a12.94,12.94,0,0,1,2.3.59c1-.78,2.08-1.56,3.11-2.35a247.52,247.52,0,0,0,23.53-20.71,255.14,255.14,0,0,0,20.31-23,248.44,248.44,0,0,0,17.9-26.53,253,253,0,0,0,14-28,241.57,241.57,0,0,0,10.39-30.18,252,252,0,0,0,5.72-27.05l-.94,0A1.25,1.25,0,0,1,486.53,285.57Z"/><polygon class="cls-1" points="419.03 347.98 419.03 347.98 419.03 347.98 419.03 347.98 419.03 347.98"/><path class="cls-1" d="M197.8,447.13h0v0Z"/><path class="cls-1" d="M200.78,371.42l.11.06h0Z"/><path class="cls-1" d="M127,312.78c0,.13,0,.26,0,.39,0-.13,0-.25,0-.38Z"/><path class="cls-1" d="M127.42,249.58q-1.22,9-1.75,18.09-.61,10.33-.39,20.71l.06,1.94q.1,3.26.3,6.49c.07,1.09.15,2.18.24,3.26l.06.75c0,.25,0,.5,0,.75v.54c.11,1.33.22,2.65.34,4,0,.16,0,.32,0,.48a1.57,1.57,0,0,1,.3.38,1.75,1.75,0,0,1,.18,1.36,1.48,1.48,0,0,1-.25.52l.09.85,0,0,.82.78c.46.43.91.86,1.35,1.3,1.28,1.3,2.56,2.59,3.83,3.89,1.09,1.11,2.17,2.22,3.3,3.28s2.31,2.2,3.49,3.27,2.62,2.34,3.95,3.5c4.78,4.18,9.69,8.2,14.68,12.13,4.28,3.3,8.61,6.53,12.92,9.79q1.92,1.46,3.88,2.85c1.21.86,2.43,1.71,3.69,2.49,2.89,1.81,5.81,3.55,8.71,5.34,2.61,1.6,5.18,3.29,7.81,4.86,2.81,1.69,5.64,3.32,8.55,4.84l4.42,2.35.45.25,1.47-.19-.28,0,.44-.06h0c3.41-.47,6.81-1,10.2-1.6a246,246,0,0,0,52.09-15.57l1.43-.61a244.22,244.22,0,0,0,24.52-12.32l1.44-.84c3.07-1.81,6.1-3.67,9.09-5.61q2.24-1.44,4.44-2.94a.57.57,0,0,1,0-.13,1.92,1.92,0,0,1,.35-.89,2.54,2.54,0,0,1,1.58-1.05,7.67,7.67,0,0,1,1.17-.08l1.61-1.14v-.34c0-.67,0-1.35.07-2s.11-1.09.16-1.62c.07-.78.15-1.56.23-2.34.11-1.13.24-2.27.36-3.4.31-2.92.68-5.83,1-8.74l1-8.39c.32-2.63.58-5.26.83-7.9s.49-5.3.82-7.93c.2-1.62.37-3.24.6-4.85l.66-4.55c.2-1.4.46-2.81.69-4.21s.51-2.8.77-4.21c.51-2.77,1.08-5.54,1.61-8.3.27-1.37.48-2.75.71-4.13.2-1.15.34-2.31.49-3.46.08-.74.15-1.47.23-2.2.27-2.66.41-5.34.49-8s.11-5.47.12-8.2c0-2.24,0-4.48,0-6.72-.85-1-1.7-2-2.56-3q-5-5.72-10.25-11.12l-.15-.16-.27-.28-.3-.31-.12-.12q-3.33-3.36-6.77-6.59-7-6.56-14.5-12.57c-1-.77-1.92-1.53-2.89-2.27q-6.21-4.8-12.7-9.2a247.79,247.79,0,0,0-42-22.88L235,157c-2,.33-3.93.75-5.89,1.21-2.45.58-4.89,1.19-7.31,1.9s-4.65,1.42-7,2.17c-1.17.38-2.33.79-3.49,1.2l-.21.09c-2.05.91-4.12,1.78-6.19,2.63-.89.42-1.76.86-2.64,1.29-1.86.9-3.71,1.81-5.59,2.69-3.92,1.83-7.93,3.46-11.93,5.12-5.31,2.34-10.53,4.86-15.82,7.26l-3.49,1.59-.43.21a.41.41,0,0,0-.11.07c-3,1.91-5.91,3.9-8.84,5.88-2.68,1.8-5.38,3.56-8.08,5.32-.65.42-1.3.84-1.94,1.27s-1.57,1-2.33,1.56l-.84.6a1.43,1.43,0,0,1-.48.53,2,2,0,0,1,.52,1.36,2,2,0,0,1-2,2,2.12,2.12,0,0,1-1-.27c-.36-.2-.7-.4-1-.62-2.59,7.45-4.84,15-6.7,22.68A246.17,246.17,0,0,0,127.42,249.58Z"/><path class="cls-1" d="M320.56,325.91l-.37.26h0C320.31,326.08,320.43,326,320.56,325.91Z"/><path class="cls-1" d="M321.68,329.82l-.52-.17h0Z"/><path class="cls-1" d="M332.08,230.74c0-.31,0-.62,0-.93h0C332.09,230.12,332.08,230.43,332.08,230.74Z"/><path class="cls-1" d="M149,46.48c.12,1.12.26,2.24.39,3.36l.1,0a1.57,1.57,0,0,1,.23.09c3,.22,5.93.44,8.88.71l4.26.39,1.25-.1c.55-.05,1.11-.12,1.66-.14,1.19,0,2.37-.11,3.56-.11h.25c1.4,0,2.79,0,4.18.09,3.78.12,7.56.24,11.34.43s7.82.54,11.73.86c1.94.16,3.88.3,5.81.5,2.24.24,4.46.55,6.68.92,1.85.31,3.68.66,5.51,1s3.87.92,5.79,1.43,3.65,1,5.46,1.49c1.29.38,2.58.77,3.86,1.17l1.06.23,5.77,1.3c1.26.28,2.52.54,3.78.8l.1-.24c.14-.18.28-.37.44-.55a1.48,1.48,0,0,1,1.09-.44,1.45,1.45,0,0,1,.87.27c4-1.66,8.11-3.23,12.23-4.67a242.78,242.78,0,0,1,45.76-11.25C309,43,317,42.17,325,41.8q5.94-.27,11.89-.27h.38a25.6,25.6,0,0,1-2.29-2.9,19,19,0,0,1-1.13-2c-.37-.74-.71-1.54-1-2.32-.61-1.55-1.15-3.11-1.68-4.68-.13-.38-.22-.78-.33-1.16s-.26-.84-.36-1.27a21.23,21.23,0,0,1-.57-3.54,11.36,11.36,0,0,1,0-1.65,3.62,3.62,0,0,1,.15-.81c.05-.15.12-.3.18-.44-5.53-2-11.14-3.75-16.81-5.29A238.2,238.2,0,0,0,248.86,6.8a254.39,254.39,0,0,0-32.4,2.14,248.78,248.78,0,0,0-31.31,6.35,252.23,252.23,0,0,0-30.6,10.52q-3.44,1.47-6.83,3c.13,3.43.34,6.85.62,10.28C148.54,41.57,148.76,44,149,46.48Z"/><path class="cls-1" d="M393.71,374.56c0,.52-.07,1.05-.12,1.57l-.27,3,.25-.82c.39-1.26.78-2.52,1.18-3.78A2.6,2.6,0,0,1,393.71,374.56Z"/><path class="cls-1" d="M335.62,234.27h0s0,0,0,0l-.69-.88C335.15,233.66,335.39,234,335.62,234.27Z"/><path class="cls-2" d="M420.9,125.06v0"/><polyline class="cls-2" points="419.03 347.98 419.03 347.98 419.03 347.98"/><line class="cls-2" x1="415.81" y1="352.16" x2="415.81" y2="352.15"/><line class="cls-2" x1="418.96" y1="348.07" x2="418.96" y2="348.07"/><line class="cls-2" x1="418.99" y1="348.03" x2="418.99" y2="348.03"/><line class="cls-2" x1="419.01" y1="348.01" x2="419.01" y2="348.01"/><path class="cls-3" d="M497.4,239.49c-.15-4.05-.42-8.11-.76-12.16q-.58-6.69-1.57-13.36-1.29-9.08-3.21-18c-1.64-7.64-3.69-15.19-6.05-22.64s-5.19-14.87-8.27-22.13a244.79,244.79,0,0,0-21.85-40.26q-3.31-5-6.86-9.78a2.41,2.41,0,0,0-.69-1.49,2.78,2.78,0,0,0-.84-.55,255.36,255.36,0,0,0-20.57-24,251.47,251.47,0,0,0-35-29.82,247.76,247.76,0,0,0-82.79-37.9,250.43,250.43,0,0,0-46.12-7q-7-.4-14.1-.41a251.08,251.08,0,0,0-32.77,2.17Q204.42,3.7,193.1,6.27c-7.52,1.71-14.94,3.82-22.26,6.24A249.82,249.82,0,0,0,12.18,172c-2.47,7.52-4.52,15.17-6.24,22.89-.2.89-.39,1.78-.58,2.67l-.31.41c-.32,2-.8,3.89-1.28,5.83-.1.43-.2.87-.31,1.3.2-.25.4-.51.59-.77-.81,4.56-1.49,9.14-2.07,13.73C1,225.84.41,233.64.14,241.46S0,257,.48,264.74A248.15,248.15,0,0,0,77.32,429.68Q86.05,438,95.6,445.45l-.23.32a2.61,2.61,0,0,0-.38.89,1.58,1.58,0,0,0,1.1,1.93,2.32,2.32,0,0,0,.59.07,1.55,1.55,0,0,0,1.48-1.14l0-.07q7.35,5.58,15.08,10.64c6.56,4.3,13.34,8.24,20.27,11.89s14.07,6.89,21.31,9.88a247.53,247.53,0,0,0,90.26,18.33,253,253,0,0,0,47-3.78,244.59,244.59,0,0,0,45-12.36,248.72,248.72,0,0,0,41.36-20.26,252.09,252.09,0,0,0,36.76-27.41A247.71,247.71,0,0,0,496.45,274a221.24,221.24,0,0,0,1.14-23.3C497.58,247,497.53,243.23,497.4,239.49ZM439.9,99.81h0q-2.28-2.88-4.62-5.69Q437.64,96.92,439.9,99.81Zm-17.77,3.24a18.16,18.16,0,0,0-2.08,1.13c-.08-.35-.15-.7-.23-1.05-.28-1.24-.57-2.47-.87-3.7C420,100.62,421.1,101.81,422.13,103.05Zm-5.2-12.14c-.17-.2-.35-.39-.52-.58v0Zm-75-49.52.25.19H342l-.06-.2Zm-.63-.89h0a1,1,0,0,1,0-.17A1.1,1.1,0,0,0,341.29,40.5Zm1.78,4.18,1.43,0c.43,0,.86,0,1.29,0h.63l1.35,1c.69.52,1.42,1,2.14,1.48s1.29.9,1.95,1.33l2.78,1.8c.81.52,1.65,1,2.47,1.48,1.43.86,2.9,1.66,4.36,2.48,1.7,1,3.37,1.95,5,2.95.86.51,1.68,1.09,2.52,1.64s1.52,1,2.28,1.56c1.46,1,2.91,2,4.37,3.06s2.89,2,4.33,3c1.7,1.18,3.39,2.37,5.07,3.59,1.44,1,2.88,2.11,4.32,3.16,3,2.13,6,4.16,8.88,6.32,1,.75,2,1.52,3,2.28,2.81,2.26,5.55,4.61,8.13,7.13,1.38,1.36,2.73,2.73,4.06,4.14q.71.77,1.38,1.56a2.5,2.5,0,0,0,.07.26c.36,1.38.71,2.77,1,4.16.71,2.9,1.36,5.82,2,8.75q1.76,8.51,2.92,17.12s0,.07,0,.11,0,.12,0,.18a249.51,249.51,0,0,1,1.89,44.22q-.45,9.79-1.68,19.53c-.89.28-1.77.56-2.67.8s-1.68.41-2.53.61c-1.75.41-3.49.89-5.21,1.42s-3.35,1.07-5,1.56-3.47,1-5.21,1.48c-3.56,1-7.13,1.94-10.62,3.14l-3.16,1.08c-.86.3-1.71.64-2.57,1l-5.41,2.05c-1.63.62-3.28,1.22-4.93,1.81s-3.24,1.19-4.88,1.72c-1.8.58-3.59,1.19-5.4,1.73l-5.3,1.55-6.49,1.91c-1.8.54-3.59,1.13-5.39,1.69-3.65,1.15-7.26,2.39-10.88,3.6l-3,1,.06-.55q.06-.33.15-.66a1.39,1.39,0,0,0-.64-1.55,1.37,1.37,0,0,0-.69-.18,1.28,1.28,0,0,0-1.19.67,8.21,8.21,0,0,0-.51,1.27c-.05.17-.09.34-.13.51-.08.33-.13.67-.18,1a20.73,20.73,0,0,0-.21,2.49c0,.25,0,.5,0,.75v0q-3.37-3.88-6.92-7.61c-3.71-3.94-7.57-7.74-11.53-11.42q-6.51-6-13.46-11.58c-1.18-1-2.38-1.9-3.58-2.84a241.65,241.65,0,0,0-20.17-14.07c-6.79-4.22-13.77-8.14-20.94-11.67q-4.35-2.13-8.76-4.12h0a6,6,0,0,0,.52-2.25,11.69,11.69,0,0,0,.08-1.32c0-.8,0-1.59.07-2.39.06-1.74,0-3.48-.05-5.22-.17-3.66-.4-7.32-.86-11-.22-1.71-.45-3.42-.74-5.12s-.55-3.35-.81-5l-.33-2.61c-.12-.93-.17-1.88-.25-2.81q.16-3.48.44-7c.29-3.69.64-7.38,1-11.07.33-3.88.63-7.78.89-11.67.08-1.19.15-2.39.21-3.58,0-.36.1-.72.14-1.08.36-3,.58-5.94.81-8.9.11-1.41.24-2.81.39-4.21.12-.46.23-.92.34-1.38l.87-3.59c.35-1.46.75-2.9,1.13-4.35a1.49,1.49,0,0,0-.73-1.69q2.18-.85,4.36-1.67,5.53-2,11.17-3.82c7.5-2.36,15.12-4.35,22.81-6q9-1.91,18.16-3.14,11.26-1.5,22.64-2,5.7-.24,11.42-.21C339.26,44.58,341.17,44.62,343.07,44.68ZM458.66,282.41h0l-.06-.25ZM421.88,200c-.05.27-.1.55-.16.82,0-.27.11-.55.15-.82ZM398.63,371.72c-.08.09-.15.19-.23.29h0Zm-120.36,113,.73-.11a1.45,1.45,0,0,0-.17.26Zm-70.84-31.69a1.65,1.65,0,0,0-.35-.65,2.74,2.74,0,0,0-.39-1.46,3.68,3.68,0,0,0-1.22-1.32,4,4,0,0,0-1.43-.56,11.91,11.91,0,0,0-1.57-.15l-.79,0c.06-.49.11-1,.17-1.48.24-1.73.54-3.46.88-5.17s.75-3.48,1.12-5.22c.75-3.52,1.33-7.08,2-10.62.71-3.71,1.45-7.4,2.4-11s2-7.15,3.15-10.68,2.44-7,3.54-10.5c.54-1.74,1-3.49,1.48-5.25s.77-3.61,1.09-5.43c.14-.78.26-1.56.37-2.34.21.13.42.26.62.4a2,2,0,0,0,1,.28,2,2,0,0,0,1.43-3.46,15.2,15.2,0,0,0-2.64-1.87l-1.77-1.08-.05-.1a.68.68,0,0,0-.27-.26.63.63,0,0,0-.34-.1h-.09c-.73-.44-1.46-.88-2.18-1.33,7.83-1.18,15.6-2.77,23.29-4.69a240.29,240.29,0,0,0,26-8.05,242.42,242.42,0,0,0,25.21-11.09,252.31,252.31,0,0,0,30.29-18.16q0,.63.12,1.26a1,1,0,0,0,.29.7,1,1,0,0,0,.7.29,1,1,0,0,0,1-1c0-.48-.09-.95-.13-1.43l.25.08c1,.32,2,.74,3,1.14,1.62.7,3.24,1.4,4.84,2.14l5.66,2.61,1.94.9.09,0c2.84,1.31,5.67,2.62,8.49,4,.88.42,1.73.9,2.59,1.35.66.34,1.3.68,1.94,1,1.75,1,3.5,2,5.23,3.06q5.16,3.09,10.28,6.25c.78.48,1.54,1,2.3,1.51s1.23.83,1.85,1.26c1.42,1,2.81,2,4.21,3.06l2.15,1.7c.71.57,1.39,1.18,2.09,1.77,1.47,1.24,2.91,2.51,4.39,3.73s3,2.45,4.63,3.57c.75.53,1.5,1.06,2.28,1.55a21,21,0,0,0,2.36,1.33l.12.05c0,.25,0,.51-.05.76,0,.67-.08,1.35-.14,2-.12,1.42-.25,2.85-.38,4.27-.16,1.86-.3,3.73-.47,5.59-.08.94-.14,1.9-.25,2.84l-.33,2.61c-.23,1.29-.43,2.59-.7,3.87-.32,1.48-.64,3-1,4.44-.65,2.84-1.23,5.68-1.79,8.54-.5,2.52-1,5-1.58,7.53-.35,1.46-.71,2.91-1.09,4.36s-.79,2.91-1.19,4.36c-.69,2.5-1.44,5-2.18,7.47-.82,2.79-1.65,5.58-2.57,8.34-.09.27-.19.53-.26.79a257.76,257.76,0,0,1-33.15,19.27c-3.51,1.69-7.07,3.29-10.65,4.81l.31-.13-.41.18-.1,0,.09,0a252.86,252.86,0,0,1-50.36,15.11,1.53,1.53,0,0,0-.68.35,1.59,1.59,0,0,0-.29.15c-2.24.4-4.47.77-6.72,1.1a1.51,1.51,0,0,0-1.1,1.41,247,247,0,0,1-29.68-10.34,244.17,244.17,0,0,1-36.84-19.57A1.74,1.74,0,0,0,207.43,453.06ZM63,349.73h0l.13.12Zm3.82-3.13.14-.13h0ZM116.41,174l-.09-.11,0,0A1.71,1.71,0,0,0,116.41,174Zm-.16-.21,0,0,.1.13Zm-22.8-29.72,0,0c.32.41.63.83,1,1.23l-.92-1.18.06.08Zm48.47,43.24a.91.91,0,0,0-.11.16h0ZM232.81,63.72l1.11.31h0Zm-84.74-9.87-.77.63c.26-.21.51-.43.77-.63Zm-43.35,49.71h0Zm-18.38,31,.43.58c-.14-.19-.29-.38-.43-.58Zm52.45,67.49c.34.22.68.42,1,.62a2.12,2.12,0,0,0,1,.27,2,2,0,0,0,2-2,2,2,0,0,0-.52-1.36,1.43,1.43,0,0,0,.48-.53l.84-.6c.76-.55,1.56-1.05,2.33-1.56s1.29-.85,1.94-1.27c2.7-1.76,5.4-3.52,8.08-5.32,2.93-2,5.86-4,8.84-5.88a.41.41,0,0,1,.11-.07l.43-.21,3.49-1.59c5.29-2.4,10.51-4.92,15.82-7.26,4-1.66,8-3.29,11.93-5.12,1.88-.88,3.73-1.79,5.59-2.69.88-.43,1.75-.87,2.64-1.29,2.07-.85,4.14-1.72,6.19-2.63l.21-.09c1.16-.41,2.32-.82,3.49-1.2,2.31-.75,4.63-1.49,7-2.17s4.86-1.32,7.31-1.9c2-.46,3.91-.88,5.89-1.21l1.54.63a247.79,247.79,0,0,1,42,22.88q6.48,4.41,12.7,9.2c1,.74,1.93,1.5,2.89,2.27q7.49,6,14.5,12.57,3.45,3.22,6.77,6.59l.12.12.3.31.27.28.15.16q5.29,5.4,10.25,11.12c.86,1,1.71,2,2.56,3,0,2.24,0,4.48,0,6.72,0,2.73,0,5.47-.12,8.2s-.22,5.36-.49,8c-.08.73-.15,1.46-.23,2.2-.15,1.15-.29,2.31-.49,3.46-.23,1.38-.44,2.76-.71,4.13-.53,2.76-1.1,5.53-1.61,8.3-.26,1.41-.53,2.8-.77,4.21s-.49,2.81-.69,4.21l-.66,4.55c-.23,1.61-.4,3.23-.6,4.85-.33,2.63-.57,5.29-.82,7.93s-.51,5.27-.83,7.9l-1,8.39c-.34,2.91-.71,5.82-1,8.74-.12,1.13-.25,2.27-.36,3.4-.08.78-.16,1.56-.23,2.34-.05.53-.14,1.08-.16,1.62s-.05,1.36-.07,2v.34l-1.61,1.14a7.67,7.67,0,0,0-1.17.08,2.54,2.54,0,0,0-1.58,1.05,1.92,1.92,0,0,0-.35.89.57.57,0,0,0,0,.13q-2.2,1.5-4.44,2.94c-3,1.94-6,3.8-9.09,5.61l-1.44.84A244.22,244.22,0,0,1,274,352.64l-1.43.61a246,246,0,0,1-52.09,15.57c-3.39.61-6.79,1.13-10.2,1.6h0l-.44.06.28,0-1.47.19-.45-.25L203.69,368c-2.91-1.52-5.74-3.15-8.55-4.84-2.63-1.57-5.2-3.26-7.81-4.86-2.9-1.79-5.82-3.53-8.71-5.34-1.26-.78-2.48-1.63-3.69-2.49s-2.6-1.88-3.88-2.85c-4.31-3.26-8.64-6.49-12.92-9.79-5-3.93-9.9-7.95-14.68-12.13-1.33-1.16-2.65-2.32-3.95-3.5s-2.33-2.17-3.49-3.27-2.21-2.17-3.3-3.28c-1.27-1.3-2.55-2.59-3.83-3.89-.44-.44-.89-.87-1.35-1.3l-.82-.78,0,0-.09-.85a1.48,1.48,0,0,0,.25-.52,1.75,1.75,0,0,0-.18-1.36,1.57,1.57,0,0,0-.3-.38c0-.16,0-.32,0-.48-.12-1.32-.23-2.64-.34-4v-.54c0-.25,0-.5,0-.75l-.06-.75c-.09-1.08-.17-2.17-.24-3.26q-.19-3.24-.3-6.49l-.06-1.94q-.24-10.36.39-20.71.54-9.07,1.75-18.09a246.17,246.17,0,0,1,4.67-24.83C134,217.09,136.2,209.52,138.79,202.07ZM321.68,329.82l-.52-.16h0Zm-1.12-3.91c-.13.08-.25.17-.37.26h0ZM127,312.78h0c0,.13,0,.25,0,.38C127,313,127,312.91,127,312.78ZM197.8,447.13v0Zm3-75.71.11.06h0Zm131.3-140.68c0-.31,0-.62,0-.94h0C332.09,230.12,332.08,230.43,332.08,230.74Zm3.52,3.49s0,0,0,0h0c-.23-.31-.47-.61-.71-.92ZM320.37,476h-.91c-.61,0-1.22,0-1.83.07a2.48,2.48,0,0,0-.55-.15c.88-.29,1.77-.57,2.65-.87l.64-.22A2.36,2.36,0,0,0,320.37,476Zm73.2-97.73-.25.82.27-3c.05-.52.09-1.05.12-1.57a2.6,2.6,0,0,0,1,0C394.35,375.79,394,377.05,393.57,378.31Zm-239-352.5a252.23,252.23,0,0,1,30.6-10.52,248.78,248.78,0,0,1,31.31-6.35,254.39,254.39,0,0,1,32.4-2.14,238.2,238.2,0,0,1,64.54,8.65c5.67,1.54,11.28,3.32,16.81,5.29-.06.14-.13.29-.18.44a3.62,3.62,0,0,0-.15.81,11.36,11.36,0,0,0,0,1.65,21.23,21.23,0,0,0,.57,3.54c.1.43.24.85.36,1.27s.2.78.33,1.16c.53,1.57,1.07,3.13,1.68,4.68.3.78.64,1.58,1,2.32a19,19,0,0,0,1.13,2,25.6,25.6,0,0,0,2.29,2.9h-.38q-5.94,0-11.89.27c-8,.37-16,1.15-23.9,2.29a242.78,242.78,0,0,0-45.76,11.25c-4.12,1.44-8.2,3-12.23,4.67a1.45,1.45,0,0,0-.87-.27,1.48,1.48,0,0,0-1.09.44c-.16.18-.3.37-.44.55l-.1.24c-1.26-.26-2.52-.52-3.78-.8L231,58.87,230,58.64c-1.28-.4-2.57-.79-3.86-1.17-1.81-.53-3.64-1-5.46-1.49s-3.85-1-5.79-1.43-3.66-.74-5.51-1c-2.22-.37-4.44-.68-6.68-.92-1.93-.2-3.87-.34-5.81-.5-3.91-.32-7.82-.66-11.73-.86s-7.56-.31-11.34-.43c-1.39,0-2.78-.08-4.18-.09h-.25c-1.19,0-2.37.07-3.56.11-.55,0-1.11.09-1.66.14l-1.25.1-4.26-.39c-2.95-.27-5.91-.49-8.88-.71a1.57,1.57,0,0,0-.23-.09l-.1,0c-.13-1.12-.27-2.24-.39-3.36-.28-2.45-.5-4.91-.7-7.36-.28-3.43-.49-6.85-.62-10.28Q151.11,27.28,154.55,25.81Zm-129,129A249.14,249.14,0,0,1,39.3,127.34a244.79,244.79,0,0,1,17.51-26.12,255.52,255.52,0,0,1,20.1-22.89,247.35,247.35,0,0,1,23.72-21,255.34,255.34,0,0,1,26.28-17.7q9.17-5.35,18.77-9.87c.15,3.12.37,6.23.63,9.34.22,2.45.48,4.91.77,7.36.13,1.1.27,2.21.41,3.32a1.54,1.54,0,0,0-1.37,1.52,1.84,1.84,0,0,0,0,.41l-.43.34-.28.24a8.2,8.2,0,0,0-1,.5,13.76,13.76,0,0,0-1.19.86q-.9.72-1.8,1.47c-1.23,1-2.42,2.06-3.59,3.13-2.34,2.16-4.54,4.48-6.66,6.86-4.33,4.85-8.36,10-12.39,15.06q-3,3.81-6,7.66c-1.87,2.45-3.69,4.92-5.55,7.37-2,2.62-4,5.22-6,7.84-.91,1.2-1.83,2.41-2.72,3.63l-3.23,4.43c-.28.39-.53.8-.8,1.2L92.85,115c-.49.75-1,1.5-1.49,2.25q-.24.36-.45.72l-2.84,4.93c-1.13,2-2.24,3.95-3.35,5.94a1.51,1.51,0,0,0,0,1.51l-.94.53-.21.11h0a.5.5,0,0,0-.1-.19c-.5-.66-1-1.33-1.54-1.95a1.06,1.06,0,0,0-.79-.33,1.13,1.13,0,0,0-1,1.7c.42.61.87,1.2,1.31,1.8l-1.31.65-.7.36a1.36,1.36,0,0,0-.86-.3,1.51,1.51,0,0,0-.71.17c-.75.4-1.49.79-2.22,1.22l-2.36,1.45q-2.24,1.38-4.44,2.81-4.49,2.91-8.85,6-8.88,6.28-17.19,13.33c-5.46,4.64-10.75,9.48-15.8,14.56-2.49,2.5-4.93,5.07-7.3,7.68q-1.78,2-3.49,3.94c-.4.48-.8.95-1.19,1.43A243.89,243.89,0,0,1,25.54,154.83ZM7.91,273.68q-.42-4-.7-8c-.41-5.57-.58-11.15-.59-16.73a245.57,245.57,0,0,1,2.09-32.51q1.66-12,4.48-23.85c.7-.85,1.4-1.7,2.1-2.53,1.13-1.35,2.3-2.66,3.47-4s2.31-2.63,3.49-3.93q3.56-3.94,7.27-7.73c2.47-2.53,5-5,7.56-7.43q8.37-7.81,17.43-14.83,5.91-4.56,12.1-8.76,3-2,6-3.93a1.31,1.31,0,0,0-.26.4.59.59,0,0,0,.2.79.59.59,0,0,0,.45.06,10.27,10.27,0,0,0,1.07-.48c.36-.19.7-.4,1.05-.61l.64-.42c.5-.32,1-.63,1.5-1L80,136.39c.9-.62,1.81-1.25,2.72-1.86l.41-.29.25.34,3.44,4.76c.94,1.3,1.86,2.61,2.79,3.91q1.74,2.43,3.51,4.84c2,2.71,4.1,5.38,6.13,8.08,1,1.4,2.11,2.79,3.13,4.21s2.13,3,3.17,4.44c2.19,3.12,4.37,6.25,6.62,9.32,1.14,1.56,2.31,3.09,3.48,4.63.54.71,1.11,1.4,1.67,2.1s1,1.22,1.48,1.82q3.65,4.29,7.4,8.49a57.84,57.84,0,0,0,7.88,7.53c.84.64,1.69,1.25,2.54,1.87l-.33.95c-1.42,4-2.72,8.07-3.93,12.16A246.31,246.31,0,0,0,122.42,288q.06,3.64.23,7.29c.06,1.36.12,2.71.2,4.06,0,.72.05,1.44.16,2.15,0,.24.07.48.11.72,0,.71.11,1.41.17,2.12s.15,1.69.23,2.53l-2.9,2.14a1.54,1.54,0,0,0-.56.23c-1.38,1-2.79,1.85-4.14,2.84s-2.88,2.21-4.31,3.34h0c-1.07.83-2.13,1.66-3.24,2.42l-2.09,1.43c-.7.48-1.43.92-2.14,1.38-1.2.76-2.39,1.51-3.57,2.28-1.44.95-2.85,1.92-4.26,2.9s-2.55,1.85-3.82,2.78l-1.57,1.14c-.59.44-1.17.89-1.78,1.31l-2.32,1.6c-.45.31-.9.63-1.37.92-1.34.84-2.65,1.71-4,2.48s-2.74,1.57-4.13,2.33-2.84,1.54-4.25,2.32l-2.65,1.48a1.29,1.29,0,0,0-.32-.55,1.23,1.23,0,0,0-.89-.36,1.2,1.2,0,0,0-.86.36c-.78.83-1.56,1.66-2.39,2.45-.34.32-.67.66-1,1l-.64.53c-.5.27-1,.54-1.5.83a.86.86,0,0,0-.46.68l-.37.25-.22.16c-.3-.67-.6-1.33-.91-2a1.74,1.74,0,0,0-1.07-.82,1.84,1.84,0,0,0-.47-.06,1.78,1.78,0,0,0-.9.24l-.18.13-1.42-1.4a1.63,1.63,0,0,0-.64-.38c-4.75-4.88-9.32-9.95-13.65-15.21q-2-2.41-3.88-4.89v0l0,0h0l0-.07v0l0,0h0l0,0h0a249.57,249.57,0,0,1-25.91-41.45l-1.14-2.36a1.24,1.24,0,0,0-.69-.56q-1-2.21-2.05-4.44a.84.84,0,0,0-.77-.44Zm38.9,59.58h0l0,0Zm53.35,106.42A253,253,0,0,1,77.85,420,248,248,0,0,1,57,396.31a255,255,0,0,1-17.25-25.62,243.39,243.39,0,0,1-14.17-28.18,250.88,250.88,0,0,1-10.35-30,243.1,243.1,0,0,1-6.43-31.4c-.15-1.16-.3-2.33-.44-3.49.27.56.53,1.13.8,1.69l0,.1a1.39,1.39,0,0,0,.13,1A247.6,247.6,0,0,0,34.7,322.27q2.65,3.5,5.42,6.91l.78.95.48.58q3.3,4.07,6.77,8,2.91,3.26,5.92,6.43a1.85,1.85,0,0,0,.41.7c.7.76,1.4,1.51,2.12,2.24l1.59,1.59a1.21,1.21,0,0,0,0,.19c.08.44.15.87.24,1.29a12.42,12.42,0,0,0,.42,1.35c.17.51.34,1,.53,1.51.32.81.63,1.63.94,2.44.43,1.1.86,2.19,1.31,3.27q1.72,4.2,3.49,8.35c.4.94.79,1.88,1.2,2.8l2.21,4.92c.39.87.76,1.75,1.18,2.6q1.16,2.37,2.32,4.72c.43.89.85,1.78,1.32,2.65q1.26,2.31,2.51,4.64c.55,1,1.16,2,1.75,3s1.19,2,1.8,3c2.86,4.64,5.69,9.29,8.45,14q2.19,3.72,4.39,7.42c1.4,2.35,2.87,4.64,4.41,6.89,1.23,1.8,2.5,3.58,3.77,5.36l1.75,2.49.94,1.35c.31.44.64.87,1,1.3l-.21.2c-.74.73-1.44,1.52-2.11,2.32Zm148.7,51.12h-.41a247.15,247.15,0,0,1-31.81-2.13,252.24,252.24,0,0,1-31.23-6.34A242.59,242.59,0,0,1,155,471.86a255.2,255.2,0,0,1-28.47-14.33,242.24,242.24,0,0,1-23.83-15.93L104,440c.36-.44.74-.85,1.12-1.27a19.56,19.56,0,0,1,2.15-2.12c.38-.28.77-.54,1.17-.8a22.53,22.53,0,0,0,3,1.9c1.25.63,2.52,1.23,3.82,1.76,1.37.84,2.81,1.57,4.23,2.33.53.29,1,.6,1.59.86l3,1.41c.65.32,1.29.64,2,.91l3.11,1.26c.55.23,1.1.46,1.67.65l3.31,1.15c1.62.57,3.29,1,4.94,1.44.63.18,1.27.31,1.9.46l2.74.64c1.69.39,3.38.77,5.06,1.18,3.35.81,6.67,1.69,10,2.51.4.1.81.17,1.21.25s.82.18,1.23.25l2.78.46c1.72.29,3.45.52,5.18.76a86.33,86.33,0,0,0,10.28.83c3.52.06,7,.09,10.54.22,2.32.09,4.64.21,6.95.3a1.76,1.76,0,0,0,1.71-1.34l.9,0a1.11,1.11,0,0,0,.43.43,1.24,1.24,0,0,0,1,.13,1.3,1.3,0,0,0,.8-.69c.54,0,1.08-.09,1.62-.16a248.94,248.94,0,0,0,62,29.55q6.68,2.11,13.48,3.82A257.3,257.3,0,0,1,248.86,490.8ZM361.47,464l.2-.08ZM482.71,312.1a241.57,241.57,0,0,1-10.39,30.18,253,253,0,0,1-14,28,248.44,248.44,0,0,1-17.9,26.53,255.14,255.14,0,0,1-20.31,23,247.52,247.52,0,0,1-23.53,20.71c-1,.79-2.07,1.57-3.11,2.35a12.94,12.94,0,0,0-2.3-.59c-.87-.17-1.73-.38-2.59-.59-1.13-.26-2.25-.56-3.38-.86a1.33,1.33,0,0,0,.11-.3,2.36,2.36,0,0,0-.23-1.78,2.34,2.34,0,0,0-1.38-1.06,2.69,2.69,0,0,0-.65-.08,2.18,2.18,0,0,0-.67.1c.1-.35.2-.7.29-1,.17-.63.33-1.26.5-1.9q1.94-5,3.65-10.07c1.37-4,2.61-8.11,3.75-12.21.88-3.15,1.68-6.33,2.43-9.52.43-1.79.85-3.59,1.24-5.39q2.54-11.58,3.94-23.35a.6.6,0,0,0,.3-.1,5.85,5.85,0,0,0,.54-.45c.14-.14.26-.29.4-.43l.67-.63c.5-.47,1-.93,1.51-1.38a.56.56,0,0,0,.08-.7l.17-.21c1-1.21,2-2.4,2.93-3.63q3-4,6.05-8c1.62-2.16,3.24-4.32,4.88-6.46a.05.05,0,0,0,0,0v0l.07-.09,0,0,0,0,.08-.1h0l0,0h0l3.1-4h0l0,0,0,0h.07l0,0h0l0,0,.06-.08h0l3-3.82h0l.09-.12h0l.1-.12,3-3.83.06-.08h0l0,0h0l-.16.21,3.05-4,0,0,.07-.08,0,0-.11.14c3.79-4.86,7.59-9.71,11.29-14.63q2.88-3.82,5.75-7.67c1.72-2.28,3.48-4.53,5.22-6.81s3.59-4.7,5.36-7.07,3.71-5,5.51-7.56c1.5-2.13,2.95-4.28,4.48-6.37a2.27,2.27,0,0,0,.27-.78c1.71.11,3.41.2,5.12.28,3.2.14,6.41.21,9.61.21H483c1.16,0,2.33,0,3.49-.08a1.25,1.25,0,0,0,1-.49l.94,0A252,252,0,0,1,482.71,312.1ZM491.07,256c-.08,2.86-.23,5.72-.42,8.57-.35,5.58-.93,11.14-1.66,16.68l-.33,2.3-1.21,0a1.2,1.2,0,0,0-.92-.44c-1.09,0-2.18,0-3.27,0h-2.44c-3.12,0-6.25,0-9.37-.13-1.72-.05-3.45-.12-5.17-.21l-1.8-.09a2.42,2.42,0,0,0-.47-.05h-.24l-.87,0c-.16-.75-.35-1.49-.53-2.23-.06-.27-.13-.54-.19-.81a1.16,1.16,0,0,0-.05-.45l-.2-.57c-.19-.81-.38-1.62-.56-2.43-.64-2.88-1.13-5.8-1.65-8.7-.13-.75-.26-1.51-.4-2.26s-.29-1.58-.46-2.36l-.57-2.5c-.17-.77-.38-1.53-.57-2.29-.34-1.35-.72-2.69-1.15-4s-.93-2.91-1.46-4.35-1.12-3-1.71-4.47-1.22-3-1.85-4.48c-1.14-2.72-2.34-5.43-3.58-8.11-.65-1.39-1.28-2.8-2-4.18l-1.27-2.61c-.25-.52-.5-1-.77-1.56-.7-1.34-1.38-2.69-2.12-4-.65-1.14-1.29-2.29-1.95-3.43l-.26-.49c-.65-1.27-1.35-2.52-2-3.77-.32-.58-.67-1.15-1-1.72s-.62-1.1-.95-1.64c-.74-1.2-1.45-2.43-2.22-3.61s-1.58-2.45-2.42-3.63-1.74-2.46-2.65-3.66L427,196.56q-.24-.48-.45-1l-1.81-4.2-.51-1.3a1.35,1.35,0,0,0-.57-.74l-.14-.06q.4-3.06.74-6.14,1.19-11,1.38-22.14a247.78,247.78,0,0,0-3.27-44.69q-.64-3.93-1.43-7.85a1.57,1.57,0,0,0,.49-.23,19.6,19.6,0,0,1,2.59-1.5,38.27,38.27,0,0,1,8.54-1.91c2.37-.25,4.74-.4,7.12-.55,1.14-.08,2.29-.16,3.44-.26a242.13,242.13,0,0,1,29.21,50.89,251.42,251.42,0,0,1,10.34,29.86,242.59,242.59,0,0,1,6.38,31A260.87,260.87,0,0,1,491.25,248C491.26,250.67,491.15,253.33,491.07,256Z"/><path class="cls-2" d="M361.67,463.93l-.2.08"/><path class="cls-2" d="M104.73,103.56h0"/></g></g></svg>