<svg xmlns="http://www.w3.org/2000/svg" xmlns:xlink="http://www.w3.org/1999/xlink" viewBox="0 0 19.21 18.47"><defs><style>.cls-1{isolation:isolate;}.cls-169,.cls-170,.cls-2,.cls-34,.cls-68{opacity:0;}.cls-2{fill:url(#Áåçûìÿííûé_ãðàäèåíò_52);}.cls-101,.cls-3{opacity:0.01;}.cls-3{fill:url(#Áåçûìÿííûé_ãðàäèåíò_52-2);}.cls-102,.cls-4{opacity:0.03;}.cls-4{fill:url(#Áåçûìÿííûé_ãðàäèåíò_52-3);}.cls-103,.cls-5{opacity:0.04;}.cls-5{fill:url(#Áåçûìÿííûé_ãðàäèåíò_52-4);}.cls-104,.cls-6{opacity:0.05;}.cls-6{fill:url(#Áåçûìÿííûé_ãðàäèåíò_52-5);}.cls-105,.cls-7{opacity:0.06;}.cls-7{fill:url(#Áåçûìÿííûé_ãðàäèåíò_52-6);}.cls-106,.cls-8{opacity:0.08;}.cls-8{fill:url(#Áåçûìÿííûé_ãðàäèåíò_52-7);}.cls-107,.cls-9{opacity:0.09;}.cls-9{fill:url(#Áåçûìÿííûé_ãðàäèåíò_52-8);}.cls-10,.cls-108{opacity:0.1;}.cls-10{fill:url(#Áåçûìÿííûé_ãðàäèåíò_52-9);}.cls-109,.cls-11{opacity:0.12;}.cls-11{fill:url(#Áåçûìÿííûé_ãðàäèåíò_52-10);}.cls-110,.cls-12{opacity:0.13;}.cls-12{fill:url(#Áåçûìÿííûé_ãðàäèåíò_52-11);}.cls-111,.cls-13{opacity:0.14;}.cls-13{fill:url(#Áåçûìÿííûé_ãðàäèåíò_52-12);}.cls-112,.cls-14{opacity:0.15;}.cls-14{fill:url(#Áåçûìÿííûé_ãðàäèåíò_52-13);}.cls-113,.cls-15{opacity:0.17;}.cls-15{fill:url(#Áåçûìÿííûé_ãðàäèåíò_52-14);}.cls-114,.cls-16{opacity:0.18;}.cls-16{fill:url(#Áåçûìÿííûé_ãðàäèåíò_52-15);}.cls-115,.cls-17{opacity:0.19;}.cls-17{fill:url(#Áåçûìÿííûé_ãðàäèåíò_52-16);}.cls-116,.cls-18{opacity:0.21;}.cls-18{fill:url(#Áåçûìÿííûé_ãðàäèåíò_52-17);}.cls-117,.cls-19{opacity:0.22;}.cls-19{fill:url(#Áåçûìÿííûé_ãðàäèåíò_52-18);}.cls-118,.cls-20{opacity:0.23;}.cls-20{fill:url(#Áåçûìÿííûé_ãðàäèåíò_52-19);}.cls-119,.cls-21{opacity:0.25;}.cls-21{fill:url(#Áåçûìÿííûé_ãðàäèåíò_52-20);}.cls-120,.cls-22{opacity:0.26;}.cls-22{fill:url(#Áåçûìÿííûé_ãðàäèåíò_52-21);}.cls-121,.cls-23{opacity:0.27;}.cls-23{fill:url(#Áåçûìÿííûé_ãðàäèåíò_52-22);}.cls-122,.cls-24{opacity:0.28;}.cls-24{fill:url(#Áåçûìÿííûé_ãðàäèåíò_52-23);}.cls-123,.cls-25{opacity:0.3;}.cls-25{fill:url(#Áåçûìÿííûé_ãðàäèåíò_52-24);}.cls-124,.cls-26{opacity:0.31;}.cls-26{fill:url(#Áåçûìÿííûé_ãðàäèåíò_52-25);}.cls-125,.cls-27{opacity:0.32;}.cls-27{fill:url(#Áåçûìÿííûé_ãðàäèåíò_52-26);}.cls-126,.cls-28{opacity:0.34;}.cls-28{fill:url(#Áåçûìÿííûé_ãðàäèåíò_52-27);}.cls-127,.cls-29{opacity:0.35;}.cls-29{fill:url(#Áåçûìÿííûé_ãðàäèåíò_52-28);}.cls-128,.cls-30{opacity:0.36;}.cls-30{fill:url(#Áåçûìÿííûé_ãðàäèåíò_52-29);}.cls-129,.cls-31{opacity:0.37;}.cls-31{fill:url(#Áåçûìÿííûé_ãðàäèåíò_52-30);}.cls-130,.cls-32{opacity:0.39;}.cls-32{fill:url(#Áåçûìÿííûé_ãðàäèåíò_52-31);}.cls-131,.cls-134,.cls-33{opacity:0.4;}.cls-33{fill:url(#Áåçûìÿííûé_ãðàäèåíò_52-32);}.cls-34{fill:url(#Áåçûìÿííûé_ãðàäèåíò_52-33);}.cls-35,.cls-69{opacity:0.02;}.cls-35{fill:url(#Áåçûìÿííûé_ãðàäèåíò_52-34);}.cls-36,.cls-70{opacity:0.03;}.cls-36{fill:url(#Áåçûìÿííûé_ãðàäèåíò_52-35);}.cls-37,.cls-71{opacity:0.05;}.cls-37{fill:url(#Áåçûìÿííûé_ãðàäèåíò_52-36);}.cls-38,.cls-72{opacity:0.06;}.cls-38{fill:url(#Áåçûìÿííûé_ãðàäèåíò_52-37);}.cls-39,.cls-73{opacity:0.08;}.cls-39{fill:url(#Áåçûìÿííûé_ãðàäèåíò_52-38);}.cls-40,.cls-74{opacity:0.1;}.cls-40{fill:url(#Áåçûìÿííûé_ãðàäèåíò_52-39);}.cls-41,.cls-75{opacity:0.11;}.cls-41{fill:url(#Áåçûìÿííûé_ãðàäèåíò_52-40);}.cls-42,.cls-76{opacity:0.13;}.cls-42{fill:url(#Áåçûìÿííûé_ãðàäèåíò_52-41);}.cls-43,.cls-77{opacity:0.15;}.cls-43{fill:url(#Áåçûìÿííûé_ãðàäèåíò_52-42);}.cls-44,.cls-78{opacity:0.16;}.cls-44{fill:url(#Áåçûìÿííûé_ãðàäèåíò_52-43);}.cls-45,.cls-79{opacity:0.18;}.cls-45{fill:url(#Áåçûìÿííûé_ãðàäèåíò_52-44);}.cls-46,.cls-80{opacity:0.19;}.cls-46{fill:url(#Áåçûìÿííûé_ãðàäèåíò_52-45);}.cls-47,.cls-81{opacity:0.21;}.cls-47{fill:url(#Áåçûìÿííûé_ãðàäèåíò_52-46);}.cls-48,.cls-82{opacity:0.23;}.cls-48{fill:url(#Áåçûìÿííûé_ãðàäèåíò_52-47);}.cls-49,.cls-83{opacity:0.24;}.cls-49{fill:url(#Áåçûìÿííûé_ãðàäèåíò_52-48);}.cls-50,.cls-84{opacity:0.26;}.cls-50{fill:url(#Áåçûìÿííûé_ãðàäèåíò_52-49);}.cls-51,.cls-85{opacity:0.27;}.cls-51{fill:url(#Áåçûìÿííûé_ãðàäèåíò_52-50);}.cls-52,.cls-86{opacity:0.29;}.cls-52{fill:url(#Áåçûìÿííûé_ãðàäèåíò_52-51);}.cls-53,.cls-87{opacity:0.31;}.cls-53{fill:url(#Áåçûìÿííûé_ãðàäèåíò_52-52);}.cls-54,.cls-88{opacity:0.32;}.cls-54{fill:url(#Áåçûìÿííûé_ãðàäèåíò_52-53);}.cls-55,.cls-89{opacity:0.34;}.cls-55{fill:url(#Áåçûìÿííûé_ãðàäèåíò_52-54);}.cls-56,.cls-90{opacity:0.35;}.cls-56{fill:url(#Áåçûìÿííûé_ãðàäèåíò_52-55);}.cls-57,.cls-91{opacity:0.37;}.cls-57{fill:url(#Áåçûìÿííûé_ãðàäèåíò_52-56);}.cls-58,.cls-92{opacity:0.39;}.cls-58{fill:url(#Áåçûìÿííûé_ãðàäèåíò_52-57);}.cls-59,.cls-93{opacity:0.4;}.cls-59{fill:url(#Áåçûìÿííûé_ãðàäèåíò_52-58);}.cls-60,.cls-94{opacity:0.42;}.cls-60{fill:url(#Áåçûìÿííûé_ãðàäèåíò_52-59);}.cls-61,.cls-95{opacity:0.44;}.cls-61{fill:url(#Áåçûìÿííûé_ãðàäèåíò_52-60);}.cls-62,.cls-96{opacity:0.45;}.cls-62{fill:url(#Áåçûìÿííûé_ãðàäèåíò_52-61);}.cls-63,.cls-97{opacity:0.47;}.cls-63{fill:url(#Áåçûìÿííûé_ãðàäèåíò_52-62);}.cls-64,.cls-98{opacity:0.48;}.cls-64{fill:url(#Áåçûìÿííûé_ãðàäèåíò_52-63);}.cls-166,.cls-65,.cls-99{opacity:0.5;}.cls-65{fill:url(#Áåçûìÿííûé_ãðàäèåíò_52-64);}.cls-66,.cls-67{opacity:0.08;}.cls-100,.cls-134,.cls-66,.cls-67{mix-blend-mode:multiply;}.cls-66{fill:url(#Áåçûìÿííûé_ãðàäèåíò_73);}.cls-67{fill:url(#Áåçûìÿííûé_ãðàäèåíò_73-2);}.cls-101,.cls-102,.cls-103,.cls-104,.cls-105,.cls-106,.cls-107,.cls-108,.cls-109,.cls-110,.cls-111,.cls-112,.cls-113,.cls-114,.cls-115,.cls-116,.cls-117,.cls-118,.cls-119,.cls-120,.cls-121,.cls-122,.cls-123,.cls-124,.cls-125,.cls-126,.cls-127,.cls-128,.cls-129,.cls-130,.cls-131,.cls-135,.cls-136,.cls-137,.cls-138,.cls-139,.cls-140,.cls-141,.cls-142,.cls-143,.cls-144,.cls-145,.cls-146,.cls-147,.cls-148,.cls-149,.cls-150,.cls-151,.cls-152,.cls-153,.cls-154,.cls-155,.cls-156,.cls-157,.cls-158,.cls-159,.cls-160,.cls-161,.cls-162,.cls-163,.cls-164,.cls-165,.cls-68,.cls-69,.cls-70,.cls-71,.cls-72,.cls-73,.cls-74,.cls-75,.cls-76,.cls-77,.cls-78,.cls-79,.cls-80,.cls-81,.cls-82,.cls-83,.cls-84,.cls-85,.cls-86,.cls-87,.cls-88,.cls-89,.cls-90,.cls-91,.cls-92,.cls-93,.cls-94,.cls-95,.cls-96,.cls-97,.cls-98,.cls-99{fill:#242127;}.cls-132,.cls-133{opacity:0.7;}.cls-132,.cls-133,.cls-166,.cls-169{mix-blend-mode:screen;}.cls-132{fill:url(#Áåçûìÿííûé_ãðàäèåíò_52-65);}.cls-133{fill:url(#Áåçûìÿííûé_ãðàäèåíò_52-66);}.cls-135{opacity:0.03;}.cls-136{opacity:0.05;}.cls-137{opacity:0.08;}.cls-138{opacity:0.1;}.cls-139{opacity:0.13;}.cls-140{opacity:0.15;}.cls-141{opacity:0.18;}.cls-142{opacity:0.21;}.cls-143{opacity:0.23;}.cls-144{opacity:0.26;}.cls-145{opacity:0.28;}.cls-146{opacity:0.31;}.cls-147{opacity:0.34;}.cls-148{opacity:0.36;}.cls-149{opacity:0.39;}.cls-150{opacity:0.41;}.cls-151{opacity:0.44;}.cls-152{opacity:0.46;}.cls-153{opacity:0.49;}.cls-154{opacity:0.52;}.cls-155{opacity:0.54;}.cls-156{opacity:0.57;}.cls-157{opacity:0.59;}.cls-158{opacity:0.62;}.cls-159{opacity:0.65;}.cls-160{opacity:0.67;}.cls-161{opacity:0.7;}.cls-162{opacity:0.72;}.cls-163{opacity:0.75;}.cls-164{opacity:0.77;}.cls-165{opacity:0.8;}.cls-167{fill:url(#Áåçûìÿííûé_ãðàäèåíò_65);}.cls-168{fill:url(#Áåçûìÿííûé_ãðàäèåíò_65-2);}.cls-169{fill:url(#Áåçûìÿííûé_ãðàäèåíò_52-67);}.cls-170{fill:url(#Áåçûìÿííûé_ãðàäèåíò_25);}.cls-171{opacity:0.01;fill:url(#Áåçûìÿííûé_ãðàäèåíò_25-2);}.cls-172{opacity:0.02;fill:url(#Áåçûìÿííûé_ãðàäèåíò_25-3);}.cls-173{opacity:0.03;fill:url(#Áåçûìÿííûé_ãðàäèåíò_25-4);}.cls-174{opacity:0.04;fill:url(#Áåçûìÿííûé_ãðàäèåíò_25-5);}.cls-175{opacity:0.05;fill:url(#Áåçûìÿííûé_ãðàäèåíò_25-6);}.cls-176{opacity:0.06;fill:url(#Áåçûìÿííûé_ãðàäèåíò_25-7);}.cls-177{opacity:0.07;fill:url(#Áåçûìÿííûé_ãðàäèåíò_25-8);}.cls-178{opacity:0.08;fill:url(#Áåçûìÿííûé_ãðàäèåíò_25-9);}.cls-179{opacity:0.09;fill:url(#Áåçûìÿííûé_ãðàäèåíò_25-10);}.cls-180{opacity:0.1;fill:url(#Áåçûìÿííûé_ãðàäèåíò_25-11);}.cls-181{opacity:0.11;fill:url(#Áåçûìÿííûé_ãðàäèåíò_25-12);}.cls-182{opacity:0.12;fill:url(#Áåçûìÿííûé_ãðàäèåíò_25-13);}.cls-183{opacity:0.13;fill:url(#Áåçûìÿííûé_ãðàäèåíò_25-14);}.cls-184{opacity:0.14;fill:url(#Áåçûìÿííûé_ãðàäèåíò_25-15);}.cls-185{opacity:0.15;fill:url(#Áåçûìÿííûé_ãðàäèåíò_25-16);}.cls-186{opacity:0.15;fill:url(#Áåçûìÿííûé_ãðàäèåíò_25-17);}.cls-187{opacity:0.16;fill:url(#Áåçûìÿííûé_ãðàäèåíò_25-18);}.cls-188{opacity:0.17;fill:url(#Áåçûìÿííûé_ãðàäèåíò_25-19);}.cls-189{opacity:0.18;fill:url(#Áåçûìÿííûé_ãðàäèåíò_25-20);}.cls-190{opacity:0.19;fill:url(#Áåçûìÿííûé_ãðàäèåíò_25-21);}.cls-191{opacity:0.2;fill:url(#Áåçûìÿííûé_ãðàäèåíò_25-22);}.cls-192{opacity:0.21;fill:url(#Áåçûìÿííûé_ãðàäèåíò_25-23);}.cls-193{opacity:0.22;fill:url(#Áåçûìÿííûé_ãðàäèåíò_25-24);}.cls-194{opacity:0.23;fill:url(#Áåçûìÿííûé_ãðàäèåíò_25-25);}.cls-195{opacity:0.24;fill:url(#Áåçûìÿííûé_ãðàäèåíò_25-26);}.cls-196{opacity:0.25;fill:url(#Áåçûìÿííûé_ãðàäèåíò_25-27);}.cls-197{opacity:0.26;fill:url(#Áåçûìÿííûé_ãðàäèåíò_25-28);}.cls-198{opacity:0.27;fill:url(#Áåçûìÿííûé_ãðàäèåíò_25-29);}.cls-199{opacity:0.28;fill:url(#Áåçûìÿííûé_ãðàäèåíò_25-30);}.cls-200{opacity:0.29;fill:url(#Áåçûìÿííûé_ãðàäèåíò_25-31);}.cls-201{opacity:0.3;fill:url(#Áåçûìÿííûé_ãðàäèåíò_25-32);}</style><linearGradient id="Áåçûìÿííûé_ãðàäèåíò_52" x1="-26.46" y1="5.65" x2="-26.46" y2="19.01" gradientTransform="matrix(-1, 0.08, 0.08, 1, -11.61, 0.2)" gradientUnits="userSpaceOnUse"><stop offset="0" stop-color="#fffcff"/><stop offset="1" stop-color="#d7d4da"/></linearGradient><linearGradient id="Áåçûìÿííûé_ãðàäèåíò_52-2" x1="-26.48" y1="5.86" x2="-26.48" y2="18.95" gradientTransform="matrix(-1, 0.08, 0.08, 1, -11.63, 0.21)" xlink:href="#Áåçûìÿííûé_ãðàäèåíò_52"/><linearGradient id="Áåçûìÿííûé_ãðàäèåíò_52-3" x1="-26.5" y1="6.07" x2="-26.5" y2="18.9" gradientTransform="matrix(-1, 0.09, 0.09, 1, -11.65, 0.22)" xlink:href="#Áåçûìÿííûé_ãðàäèåíò_52"/><linearGradient id="Áåçûìÿííûé_ãðàäèåíò_52-4" x1="-26.53" y1="6.28" x2="-26.53" y2="18.85" gradientTransform="matrix(-1, 0.09, 0.09, 1, -11.67, 0.23)" xlink:href="#Áåçûìÿííûé_ãðàäèåíò_52"/><linearGradient id="Áåçûìÿííûé_ãðàäèåíò_52-5" x1="-26.55" y1="6.48" x2="-26.55" y2="18.79" gradientTransform="matrix(-1, 0.09, 0.09, 1, -11.69, 0.25)" xlink:href="#Áåçûìÿííûé_ãðàäèåíò_52"/><linearGradient id="Áåçûìÿííûé_ãðàäèåíò_52-6" x1="-26.57" y1="6.69" x2="-26.57" y2="18.74" gradientTransform="matrix(-1, 0.09, 0.09, 1, -11.7, 0.26)" xlink:href="#Áåçûìÿííûé_ãðàäèåíò_52"/><linearGradient id="Áåçûìÿííûé_ãðàäèåíò_52-7" x1="-26.59" y1="6.9" x2="-26.59" y2="18.69" gradientTransform="matrix(-1, 0.09, 0.09, 1, -11.72, 0.27)" xlink:href="#Áåçûìÿííûé_ãðàäèåíò_52"/><linearGradient id="Áåçûìÿííûé_ãðàäèåíò_52-8" x1="-26.61" y1="7.11" x2="-26.61" y2="18.63" gradientTransform="matrix(-1, 0.09, 0.09, 1, -11.74, 0.28)" xlink:href="#Áåçûìÿííûé_ãðàäèåíò_52"/><linearGradient id="Áåçûìÿííûé_ãðàäèåíò_52-9" x1="-26.63" y1="7.31" x2="-26.63" y2="18.58" gradientTransform="matrix(-1, 0.09, 0.09, 1, -11.76, 0.3)" xlink:href="#Áåçûìÿííûé_ãðàäèåíò_52"/><linearGradient id="Áåçûìÿííûé_ãðàäèåíò_52-10" x1="-26.65" y1="7.52" x2="-26.65" y2="18.53" gradientTransform="matrix(-1, 0.09, 0.09, 1, -11.78, 0.31)" xlink:href="#Áåçûìÿííûé_ãðàäèåíò_52"/><linearGradient id="Áåçûìÿííûé_ãðàäèåíò_52-11" x1="-26.67" y1="7.73" x2="-26.67" y2="18.47" gradientTransform="matrix(-1, 0.09, 0.09, 1, -11.79, 0.32)" xlink:href="#Áåçûìÿííûé_ãðàäèåíò_52"/><linearGradient id="Áåçûìÿííûé_ãðàäèåíò_52-12" x1="-26.69" y1="7.94" x2="-26.69" y2="18.42" gradientTransform="matrix(-1, 0.09, 0.09, 1, -11.81, 0.33)" xlink:href="#Áåçûìÿííûé_ãðàäèåíò_52"/><linearGradient id="Áåçûìÿííûé_ãðàäèåíò_52-13" x1="-26.71" y1="8.14" x2="-26.71" y2="18.37" gradientTransform="matrix(-1, 0.1, 0.1, 1, -11.83, 0.35)" xlink:href="#Áåçûìÿííûé_ãðàäèåíò_52"/><linearGradient id="Áåçûìÿííûé_ãðàäèåíò_52-14" x1="-26.74" y1="8.35" x2="-26.74" y2="18.31" gradientTransform="matrix(-1, 0.1, 0.1, 1, -11.85, 0.36)" xlink:href="#Áåçûìÿííûé_ãðàäèåíò_52"/><linearGradient id="Áåçûìÿííûé_ãðàäèåíò_52-15" x1="-26.76" y1="8.56" x2="-26.76" y2="18.26" gradientTransform="matrix(-1, 0.1, 0.1, 1, -11.87, 0.37)" xlink:href="#Áåçûìÿííûé_ãðàäèåíò_52"/><linearGradient id="Áåçûìÿííûé_ãðàäèåíò_52-16" x1="-26.78" y1="8.77" x2="-26.78" y2="18.21" gradientTransform="matrix(-1, 0.1, 0.1, 1, -11.88, 0.38)" xlink:href="#Áåçûìÿííûé_ãðàäèåíò_52"/><linearGradient id="Áåçûìÿííûé_ãðàäèåíò_52-17" x1="-26.8" y1="8.98" x2="-26.8" y2="18.16" gradientTransform="matrix(-0.99, 0.1, 0.1, 0.99, -11.9, 0.4)" xlink:href="#Áåçûìÿííûé_ãðàäèåíò_52"/><linearGradient id="Áåçûìÿííûé_ãðàäèåíò_52-18" x1="-26.82" y1="9.18" x2="-26.82" y2="18.1" gradientTransform="matrix(-0.99, 0.1, 0.1, 0.99, -11.92, 0.41)" xlink:href="#Áåçûìÿííûé_ãðàäèåíò_52"/><linearGradient id="Áåçûìÿííûé_ãðàäèåíò_52-19" x1="-26.84" y1="9.39" x2="-26.84" y2="18.05" gradientTransform="matrix(-0.99, 0.1, 0.1, 0.99, -11.94, 0.42)" xlink:href="#Áåçûìÿííûé_ãðàäèåíò_52"/><linearGradient id="Áåçûìÿííûé_ãðàäèåíò_52-20" x1="-26.86" y1="9.6" x2="-26.86" y2="18" gradientTransform="matrix(-0.99, 0.1, 0.1, 0.99, -11.96, 0.43)" xlink:href="#Áåçûìÿííûé_ãðàäèåíò_52"/><linearGradient id="Áåçûìÿííûé_ãðàäèåíò_52-21" x1="-26.88" y1="9.81" x2="-26.88" y2="17.95" gradientTransform="matrix(-0.99, 0.1, 0.1, 0.99, -11.97, 0.45)" xlink:href="#Áåçûìÿííûé_ãðàäèåíò_52"/><linearGradient id="Áåçûìÿííûé_ãðàäèåíò_52-22" x1="-26.91" y1="10.02" x2="-26.91" y2="17.89" gradientTransform="matrix(-0.99, 0.1, 0.1, 0.99, -11.99, 0.46)" xlink:href="#Áåçûìÿííûé_ãðàäèåíò_52"/><linearGradient id="Áåçûìÿííûé_ãðàäèåíò_52-23" x1="-26.93" y1="10.22" x2="-26.93" y2="17.84" gradientTransform="matrix(-0.99, 0.11, 0.11, 0.99, -12.01, 0.47)" xlink:href="#Áåçûìÿííûé_ãðàäèåíò_52"/><linearGradient id="Áåçûìÿííûé_ãðàäèåíò_52-24" x1="-26.95" y1="10.43" x2="-26.95" y2="17.79" gradientTransform="matrix(-0.99, 0.11, 0.11, 0.99, -12.03, 0.48)" xlink:href="#Áåçûìÿííûé_ãðàäèåíò_52"/><linearGradient id="Áåçûìÿííûé_ãðàäèåíò_52-25" x1="-26.97" y1="10.64" x2="-26.97" y2="17.74" gradientTransform="matrix(-0.99, 0.11, 0.11, 0.99, -12.05, 0.5)" xlink:href="#Áåçûìÿííûé_ãðàäèåíò_52"/><linearGradient id="Áåçûìÿííûé_ãðàäèåíò_52-26" x1="-26.99" y1="10.85" x2="-26.99" y2="17.69" gradientTransform="matrix(-0.99, 0.11, 0.11, 0.99, -12.06, 0.51)" xlink:href="#Áåçûìÿííûé_ãðàäèåíò_52"/><linearGradient id="Áåçûìÿííûé_ãðàäèåíò_52-27" x1="-27.02" y1="11.06" x2="-27.02" y2="17.63" gradientTransform="matrix(-0.99, 0.11, 0.11, 0.99, -12.08, 0.52)" xlink:href="#Áåçûìÿííûé_ãðàäèåíò_52"/><linearGradient id="Áåçûìÿííûé_ãðàäèåíò_52-28" x1="-27.04" y1="11.26" x2="-27.04" y2="17.58" gradientTransform="matrix(-0.99, 0.11, 0.11, 0.99, -12.1, 0.53)" xlink:href="#Áåçûìÿííûé_ãðàäèåíò_52"/><linearGradient id="Áåçûìÿííûé_ãðàäèåíò_52-29" x1="-27.06" y1="11.47" x2="-27.06" y2="17.53" gradientTransform="matrix(-0.99, 0.11, 0.11, 0.99, -12.12, 0.55)" xlink:href="#Áåçûìÿííûé_ãðàäèåíò_52"/><linearGradient id="Áåçûìÿííûé_ãðàäèåíò_52-30" x1="-27.09" y1="11.68" x2="-27.09" y2="17.48" gradientTransform="matrix(-0.99, 0.11, 0.11, 0.99, -12.14, 0.56)" xlink:href="#Áåçûìÿííûé_ãðàäèåíò_52"/><linearGradient id="Áåçûìÿííûé_ãðàäèåíò_52-31" x1="-27.11" y1="11.88" x2="-27.11" y2="17.43" gradientTransform="matrix(-0.99, 0.11, 0.11, 0.99, -12.15, 0.57)" xlink:href="#Áåçûìÿííûé_ãðàäèåíò_52"/><linearGradient id="Áåçûìÿííûé_ãðàäèåíò_52-32" x1="-27.14" y1="12.09" x2="-27.14" y2="17.38" gradientTransform="matrix(-0.99, 0.11, 0.11, 0.99, -12.17, 0.58)" xlink:href="#Áåçûìÿííûé_ãðàäèåíò_52"/><linearGradient id="Áåçûìÿííûé_ãðàäèåíò_52-33" x1="3.53" y1="5.61" x2="3.53" y2="17.46" gradientTransform="matrix(1, 0, 0, 1, 0, 0)" xlink:href="#Áåçûìÿííûé_ãðàäèåíò_52"/><linearGradient id="Áåçûìÿííûé_ãðàäèåíò_52-34" x1="3.55" y1="5.78" x2="3.55" y2="17.43" gradientTransform="translate(-0.03 -0.01) rotate(-0.09)" xlink:href="#Áåçûìÿííûé_ãðàäèåíò_52"/><linearGradient id="Áåçûìÿííûé_ãðàäèåíò_52-35" x1="3.56" y1="5.94" x2="3.56" y2="17.41" gradientTransform="translate(-0.06 -0.02) rotate(-0.19)" xlink:href="#Áåçûìÿííûé_ãðàäèåíò_52"/><linearGradient id="Áåçûìÿííûé_ãðàäèåíò_52-36" x1="3.58" y1="6.11" x2="3.58" y2="17.39" gradientTransform="translate(-0.09 -0.04) rotate(-0.28)" xlink:href="#Áåçûìÿííûé_ãðàäèåíò_52"/><linearGradient id="Áåçûìÿííûé_ãðàäèåíò_52-37" x1="3.59" y1="6.27" x2="3.59" y2="17.36" gradientTransform="translate(-0.13 -0.05) rotate(-0.38)" xlink:href="#Áåçûìÿííûé_ãðàäèåíò_52"/><linearGradient id="Áåçûìÿííûé_ãðàäèåíò_52-38" x1="3.61" y1="6.43" x2="3.61" y2="17.34" gradientTransform="translate(-0.16 -0.06) rotate(-0.47)" xlink:href="#Áåçûìÿííûé_ãðàäèåíò_52"/><linearGradient id="Áåçûìÿííûé_ãðàäèåíò_52-39" x1="3.63" y1="6.6" x2="3.63" y2="17.32" gradientTransform="matrix(1, -0.01, 0.01, 1, -0.19, -0.07)" xlink:href="#Áåçûìÿííûé_ãðàäèåíò_52"/><linearGradient id="Áåçûìÿííûé_ãðàäèåíò_52-40" x1="3.64" y1="6.76" x2="3.64" y2="17.29" gradientTransform="translate(-0.22 -0.08) rotate(-0.66)" xlink:href="#Áåçûìÿííûé_ãðàäèåíò_52"/><linearGradient id="Áåçûìÿííûé_ãðàäèåíò_52-41" x1="3.65" y1="6.93" x2="3.65" y2="17.27" gradientTransform="translate(-0.25 -0.1) rotate(-0.76)" xlink:href="#Áåçûìÿííûé_ãðàäèåíò_52"/><linearGradient id="Áåçûìÿííûé_ãðàäèåíò_52-42" x1="3.67" y1="7.09" x2="3.67" y2="17.25" gradientTransform="matrix(1, -0.01, 0.01, 1, -0.28, -0.11)" xlink:href="#Áåçûìÿííûé_ãðàäèåíò_52"/><linearGradient id="Áåçûìÿííûé_ãðàäèåíò_52-43" x1="3.68" y1="7.26" x2="3.68" y2="17.22" gradientTransform="matrix(1, -0.02, 0.02, 1, -0.32, -0.12)" xlink:href="#Áåçûìÿííûé_ãðàäèåíò_52"/><linearGradient id="Áåçûìÿííûé_ãðàäèåíò_52-44" x1="3.7" y1="7.42" x2="3.7" y2="17.2" gradientTransform="translate(-0.35 -0.13) rotate(-1.04)" xlink:href="#Áåçûìÿííûé_ãðàäèåíò_52"/><linearGradient id="Áåçûìÿííûé_ãðàäèåíò_52-45" x1="3.71" y1="7.59" x2="3.71" y2="17.18" gradientTransform="matrix(1, -0.02, 0.02, 1, -0.38, -0.14)" xlink:href="#Áåçûìÿííûé_ãðàäèåíò_52"/><linearGradient id="Áåçûìÿííûé_ãðàäèåíò_52-46" x1="3.73" y1="7.75" x2="3.73" y2="17.15" gradientTransform="matrix(1, -0.02, 0.02, 1, -0.41, -0.16)" xlink:href="#Áåçûìÿííûé_ãðàäèåíò_52"/><linearGradient id="Áåçûìÿííûé_ãðàäèåíò_52-47" x1="3.74" y1="7.92" x2="3.74" y2="17.13" gradientTransform="matrix(1, -0.02, 0.02, 1, -0.44, -0.17)" xlink:href="#Áåçûìÿííûé_ãðàäèåíò_52"/><linearGradient id="Áåçûìÿííûé_ãðàäèåíò_52-48" x1="3.75" y1="8.09" x2="3.75" y2="17.11" gradientTransform="translate(-0.47 -0.18) rotate(-1.42)" xlink:href="#Áåçûìÿííûé_ãðàäèåíò_52"/><linearGradient id="Áåçûìÿííûé_ãðàäèåíò_52-49" x1="3.76" y1="8.25" x2="3.76" y2="17.08" gradientTransform="translate(-0.51 -0.19) rotate(-1.51)" xlink:href="#Áåçûìÿííûé_ãðàäèåíò_52"/><linearGradient id="Áåçûìÿííûé_ãðàäèåíò_52-50" x1="3.78" y1="8.42" x2="3.78" y2="17.06" gradientTransform="translate(-0.54 -0.2) rotate(-1.61)" xlink:href="#Áåçûìÿííûé_ãðàäèåíò_52"/><linearGradient id="Áåçûìÿííûé_ãðàäèåíò_52-51" x1="3.79" y1="8.58" x2="3.79" y2="17.04" gradientTransform="translate(-0.57 -0.22) rotate(-1.7)" xlink:href="#Áåçûìÿííûé_ãðàäèåíò_52"/><linearGradient id="Áåçûìÿííûé_ãðàäèåíò_52-52" x1="3.8" y1="8.75" x2="3.8" y2="17.02" gradientTransform="matrix(1, -0.03, 0.03, 1, -0.6, -0.23)" xlink:href="#Áåçûìÿííûé_ãðàäèåíò_52"/><linearGradient id="Áåçûìÿííûé_ãðàäèåíò_52-53" x1="3.81" y1="8.92" x2="3.81" y2="16.99" gradientTransform="translate(-0.63 -0.24) rotate(-1.89)" xlink:href="#Áåçûìÿííûé_ãðàäèåíò_52"/><linearGradient id="Áåçûìÿííûé_ãðàäèåíò_52-54" x1="3.83" y1="9.08" x2="3.83" y2="16.97" gradientTransform="matrix(1, -0.03, 0.03, 1, -0.66, -0.25)" xlink:href="#Áåçûìÿííûé_ãðàäèåíò_52"/><linearGradient id="Áåçûìÿííûé_ãðàäèåíò_52-55" x1="3.84" y1="9.25" x2="3.84" y2="16.95" gradientTransform="translate(-0.7 -0.26) rotate(-2.08)" xlink:href="#Áåçûìÿííûé_ãðàäèåíò_52"/><linearGradient id="Áåçûìÿííûé_ãðàäèåíò_52-56" x1="3.85" y1="9.41" x2="3.85" y2="16.93" gradientTransform="translate(-0.73 -0.28) rotate(-2.18)" xlink:href="#Áåçûìÿííûé_ãðàäèåíò_52"/><linearGradient id="Áåçûìÿííûé_ãðàäèåíò_52-57" x1="3.86" y1="9.58" x2="3.86" y2="16.9" gradientTransform="translate(-0.76 -0.29) rotate(-2.27)" xlink:href="#Áåçûìÿííûé_ãðàäèåíò_52"/><linearGradient id="Áåçûìÿííûé_ãðàäèåíò_52-58" x1="3.87" y1="9.75" x2="3.87" y2="16.88" gradientTransform="translate(-0.79 -0.3) rotate(-2.37)" xlink:href="#Áåçûìÿííûé_ãðàäèåíò_52"/><linearGradient id="Áåçûìÿííûé_ãðàäèåíò_52-59" x1="3.88" y1="9.91" x2="3.88" y2="16.86" gradientTransform="matrix(1, -0.04, 0.04, 1, -0.82, -0.31)" xlink:href="#Áåçûìÿííûé_ãðàäèåíò_52"/><linearGradient id="Áåçûìÿííûé_ãðàäèåíò_52-60" x1="3.89" y1="10.08" x2="3.89" y2="16.84" gradientTransform="matrix(1, -0.04, 0.04, 1, -0.85, -0.32)" xlink:href="#Áåçûìÿííûé_ãðàäèåíò_52"/><linearGradient id="Áåçûìÿííûé_ãðàäèåíò_52-61" x1="3.9" y1="10.25" x2="3.9" y2="16.82" gradientTransform="translate(-0.89 -0.33) rotate(-2.65)" xlink:href="#Áåçûìÿííûé_ãðàäèåíò_52"/><linearGradient id="Áåçûìÿííûé_ãðàäèåíò_52-62" x1="3.9" y1="10.41" x2="3.9" y2="16.8" gradientTransform="translate(-0.92 -0.35) rotate(-2.75)" xlink:href="#Áåçûìÿííûé_ãðàäèåíò_52"/><linearGradient id="Áåçûìÿííûé_ãðàäèåíò_52-63" x1="3.91" y1="10.58" x2="3.91" y2="16.78" gradientTransform="translate(-0.95 -0.36) rotate(-2.84)" xlink:href="#Áåçûìÿííûé_ãðàäèåíò_52"/><linearGradient id="Áåçûìÿííûé_ãðàäèåíò_52-64" x1="3.92" y1="10.75" x2="3.92" y2="16.76" gradientTransform="matrix(1, -0.05, 0.05, 1, -0.98, -0.37)" xlink:href="#Áåçûìÿííûé_ãðàäèåíò_52"/><linearGradient id="Áåçûìÿííûé_ãðàäèåíò_73" x1="9.48" y1="16.59" x2="9.48" y2="0.49" gradientUnits="userSpaceOnUse"><stop offset="0" stop-color="#49464c"/><stop offset="0.51" stop-color="#8a878d"/><stop offset="0.64" stop-color="#78757b"/><stop offset="0.88" stop-color="#49464c"/><stop offset="1" stop-color="#312e34"/></linearGradient><linearGradient id="Áåçûìÿííûé_ãðàäèåíò_73-2" x1="0.79" y1="8.84" x2="18.57" y2="8.84" xlink:href="#Áåçûìÿííûé_ãðàäèåíò_73"/><linearGradient id="Áåçûìÿííûé_ãðàäèåíò_52-65" x1="3.13" y1="10.85" x2="6.78" y2="13.97" gradientTransform="matrix(1, 0, 0, 1, 0, 0)" xlink:href="#Áåçûìÿííûé_ãðàäèåíò_52"/><linearGradient id="Áåçûìÿííûé_ãðàäèåíò_52-66" x1="-17.57" y1="12.07" x2="-13.92" y2="15.2" gradientTransform="matrix(-1.09, 0.03, 0.03, 1.19, -3.25, -3.47)" xlink:href="#Áåçûìÿííûé_ãðàäèåíò_52"/><linearGradient id="Áåçûìÿííûé_ãðàäèåíò_65" x1="9.5" y1="7.66" x2="9.5" y2="0.97" gradientUnits="userSpaceOnUse"><stop offset="0" stop-color="#312e34"/><stop offset="0.4" stop-color="#403d43"/><stop offset="1" stop-color="#524f55"/></linearGradient><linearGradient id="Áåçûìÿííûé_ãðàäèåíò_65-2" x1="9.55" y1="2.17" x2="9.55" y2="1.49" xlink:href="#Áåçûìÿííûé_ãðàäèåíò_65"/><linearGradient id="Áåçûìÿííûé_ãðàäèåíò_52-67" x1="9.45" y1="1.5" x2="9.45" y2="9.89" gradientTransform="matrix(1, 0, 0, 1, 0, 0)" xlink:href="#Áåçûìÿííûé_ãðàäèåíò_52"/><radialGradient id="Áåçûìÿííûé_ãðàäèåíò_25" cx="9.83" cy="18.03" r="7.5" gradientTransform="matrix(1, 0, 0, 1, 0, 0)" xlink:href="#Áåçûìÿííûé_ãðàäèåíò_52"/><radialGradient id="Áåçûìÿííûé_ãðàäèåíò_25-2" cx="9.83" cy="18.02" r="7.54" gradientTransform="matrix(1, 0, 0, 1, 0, 0)" xlink:href="#Áåçûìÿííûé_ãðàäèåíò_52"/><radialGradient id="Áåçûìÿííûé_ãðàäèåíò_25-3" cx="9.83" cy="18.02" r="7.57" gradientTransform="matrix(1, 0, 0, 1, 0, 0)" xlink:href="#Áåçûìÿííûé_ãðàäèåíò_52"/><radialGradient id="Áåçûìÿííûé_ãðàäèåíò_25-4" cx="9.83" cy="18.02" r="7.6" gradientTransform="matrix(1, 0, 0, 1, 0, 0)" xlink:href="#Áåçûìÿííûé_ãðàäèåíò_52"/><radialGradient id="Áåçûìÿííûé_ãðàäèåíò_25-5" cx="9.83" cy="18.02" r="7.62" gradientTransform="matrix(1, 0, 0, 1, 0, 0)" xlink:href="#Áåçûìÿííûé_ãðàäèåíò_52"/><radialGradient id="Áåçûìÿííûé_ãðàäèåíò_25-6" cx="9.83" cy="18.02" r="7.65" gradientTransform="matrix(1, 0, 0, 1, 0, 0)" xlink:href="#Áåçûìÿííûé_ãðàäèåíò_52"/><radialGradient id="Áåçûìÿííûé_ãðàäèåíò_25-7" cx="9.83" cy="18.01" r="7.67" gradientTransform="matrix(1, 0, 0, 1, 0, 0)" xlink:href="#Áåçûìÿííûé_ãðàäèåíò_52"/><radialGradient id="Áåçûìÿííûé_ãðàäèåíò_25-8" cx="9.83" cy="18.01" r="7.69" gradientTransform="matrix(1, 0, 0, 1, 0, 0)" xlink:href="#Áåçûìÿííûé_ãðàäèåíò_52"/><radialGradient id="Áåçûìÿííûé_ãðàäèåíò_25-9" cx="9.84" cy="18.01" r="7.71" gradientTransform="matrix(1, 0, 0, 1, 0, 0)" xlink:href="#Áåçûìÿííûé_ãðàäèåíò_52"/><radialGradient id="Áåçûìÿííûé_ãðàäèåíò_25-10" cx="9.84" cy="18.01" r="7.72" gradientTransform="matrix(1, 0, 0, 1, 0, 0)" xlink:href="#Áåçûìÿííûé_ãðàäèåíò_52"/><radialGradient id="Áåçûìÿííûé_ãðàäèåíò_25-11" cx="9.84" cy="18.01" r="7.73" gradientTransform="matrix(1, 0, 0, 1, 0, 0)" xlink:href="#Áåçûìÿííûé_ãðàäèåíò_52"/><radialGradient id="Áåçûìÿííûé_ãðàäèåíò_25-12" cx="9.84" cy="18.01" r="7.74" gradientTransform="matrix(1, 0, 0, 1, 0, 0)" xlink:href="#Áåçûìÿííûé_ãðàäèåíò_52"/><radialGradient id="Áåçûìÿííûé_ãðàäèåíò_25-13" cx="9.84" cy="18.01" r="7.75" gradientTransform="matrix(1, 0, 0, 1, 0, 0)" xlink:href="#Áåçûìÿííûé_ãðàäèåíò_52"/><radialGradient id="Áåçûìÿííûé_ãðàäèåíò_25-14" cx="9.84" cy="18.01" r="7.76" gradientTransform="matrix(1, 0, 0, 1, 0, 0)" xlink:href="#Áåçûìÿííûé_ãðàäèåíò_52"/><radialGradient id="Áåçûìÿííûé_ãðàäèåíò_25-15" cx="9.84" cy="18.01" r="7.76" gradientTransform="matrix(1, 0, 0, 1, 0, 0)" xlink:href="#Áåçûìÿííûé_ãðàäèåíò_52"/><radialGradient id="Áåçûìÿííûé_ãðàäèåíò_25-16" cx="9.84" cy="18.01" r="7.77" gradientTransform="matrix(1, 0, 0, 1, 0, 0)" xlink:href="#Áåçûìÿííûé_ãðàäèåíò_52"/><radialGradient id="Áåçûìÿííûé_ãðàäèåíò_25-17" cx="9.84" cy="18.01" r="7.77" gradientTransform="matrix(1, 0, 0, 1, 0, 0)" xlink:href="#Áåçûìÿííûé_ãðàäèåíò_52"/><radialGradient id="Áåçûìÿííûé_ãðàäèåíò_25-18" cx="9.84" cy="18.01" r="7.76" gradientTransform="matrix(1, 0, 0, 1, 0, 0)" xlink:href="#Áåçûìÿííûé_ãðàäèåíò_52"/><radialGradient id="Áåçûìÿííûé_ãðàäèåíò_25-19" cx="9.84" cy="18.01" r="7.76" gradientTransform="matrix(1, 0, 0, 1, 0, 0)" xlink:href="#Áåçûìÿííûé_ãðàäèåíò_52"/><radialGradient id="Áåçûìÿííûé_ãðàäèåíò_25-20" cx="9.84" cy="18.01" r="7.75" gradientTransform="matrix(1, 0, 0, 1, 0, 0)" xlink:href="#Áåçûìÿííûé_ãðàäèåíò_52"/><radialGradient id="Áåçûìÿííûé_ãðàäèåíò_25-21" cx="9.84" cy="18.01" r="7.74" gradientTransform="matrix(1, 0, 0, 1, 0, 0)" xlink:href="#Áåçûìÿííûé_ãðàäèåíò_52"/><radialGradient id="Áåçûìÿííûé_ãðàäèåíò_25-22" cx="9.84" cy="18.01" r="7.73" gradientTransform="matrix(1, 0, 0, 1, 0, 0)" xlink:href="#Áåçûìÿííûé_ãðàäèåíò_52"/><radialGradient id="Áåçûìÿííûé_ãðàäèåíò_25-23" cx="9.83" cy="18.01" r="7.72" gradientTransform="matrix(1, 0, 0, 1, 0, 0)" xlink:href="#Áåçûìÿííûé_ãðàäèåíò_52"/><radialGradient id="Áåçûìÿííûé_ãðàäèåíò_25-24" cx="9.83" cy="18.01" r="7.7" gradientTransform="matrix(1, 0, 0, 1, 0, 0)" xlink:href="#Áåçûìÿííûé_ãðàäèåíò_52"/><radialGradient id="Áåçûìÿííûé_ãðàäèåíò_25-25" cx="9.83" cy="18.01" r="7.69" gradientTransform="matrix(1, 0, 0, 1, 0, 0)" xlink:href="#Áåçûìÿííûé_ãðàäèåíò_52"/><radialGradient id="Áåçûìÿííûé_ãðàäèåíò_25-26" cx="9.83" cy="18.02" r="7.67" gradientTransform="matrix(1, 0, 0, 1, 0, 0)" xlink:href="#Áåçûìÿííûé_ãðàäèåíò_52"/><radialGradient id="Áåçûìÿííûé_ãðàäèåíò_25-27" cx="9.83" cy="18.02" r="7.64" gradientTransform="matrix(1, 0, 0, 1, 0, 0)" xlink:href="#Áåçûìÿííûé_ãðàäèåíò_52"/><radialGradient id="Áåçûìÿííûé_ãðàäèåíò_25-28" cx="9.83" cy="18.02" r="7.62" gradientTransform="matrix(1, 0, 0, 1, 0, 0)" xlink:href="#Áåçûìÿííûé_ãðàäèåíò_52"/><radialGradient id="Áåçûìÿííûé_ãðàäèåíò_25-29" cx="9.83" cy="18.02" r="7.59" gradientTransform="matrix(1, 0, 0, 1, 0, 0)" xlink:href="#Áåçûìÿííûé_ãðàäèåíò_52"/><radialGradient id="Áåçûìÿííûé_ãðàäèåíò_25-30" cx="9.83" cy="18.02" r="7.57" gradientTransform="matrix(1, 0, 0, 1, 0, 0)" xlink:href="#Áåçûìÿííûé_ãðàäèåíò_52"/><radialGradient id="Áåçûìÿííûé_ãðàäèåíò_25-31" cx="9.83" cy="18.03" r="7.54" gradientTransform="matrix(1, 0, 0, 1, 0, 0)" xlink:href="#Áåçûìÿííûé_ãðàäèåíò_52"/><radialGradient id="Áåçûìÿííûé_ãðàäèåíò_25-32" cx="9.83" cy="18.03" r="7.5" gradientTransform="matrix(1, 0, 0, 1, 0, 0)" xlink:href="#Áåçûìÿííûé_ãðàäèåíò_52"/></defs><g class="cls-1"><g id="Layer_2" data-name="Layer 2"><g id="_3" data-name="3"><path class="cls-2" d="M18.57,12.8A11.32,11.32,0,0,1,15,17.15c-.88.21-.76-.6-1.27-1.31s-1.51-.6-1-1.83c.08-.2,2.33-1.67,3.21-3.93a6.68,6.68,0,0,0,.28-4.41c-.42-1.53-.45-1.89,0-2.09C17.57,3,20.5,7.69,18.57,12.8Z" transform="translate(0)"/><path class="cls-3" d="M18.54,12.8A11.14,11.14,0,0,1,15,17.07c-.86.21-.75-.58-1.24-1.28s-1.49-.6-1-1.8c.08-.2,2.28-1.64,3.15-3.85a6.52,6.52,0,0,0,.3-4.33c-.37-1.5-.42-1.85,0-2C17.59,3.17,20.43,7.79,18.54,12.8Z" transform="translate(0)"/><path class="cls-4" d="M18.5,12.79A11,11,0,0,1,15.05,17c-.83.2-.72-.57-1.21-1.25s-1.46-.62-.95-1.78c.08-.2,2.23-1.6,3.09-3.77a6.58,6.58,0,0,0,.33-4.26c-.33-1.46-.4-1.8,0-2C17.61,3.37,20.37,7.89,18.5,12.79Z" transform="translate(0)"/><path class="cls-5" d="M18.47,12.79a10.84,10.84,0,0,1-3.39,4.14c-.81.19-.71-.56-1.19-1.23S12.46,15.08,13,14a11.05,11.05,0,0,0,3-3.69,6.61,6.61,0,0,0,.35-4.19c-.28-1.42-.37-1.75,0-1.93C17.64,3.57,20.31,8,18.47,12.79Z" transform="translate(0)"/><path class="cls-6" d="M18.44,12.79a10.66,10.66,0,0,1-3.33,4.06c-.78.19-.7-.54-1.17-1.19S12.54,15,13,13.92a10.63,10.63,0,0,0,3-3.61,6.5,6.5,0,0,0,.37-4.1c-.24-1.39-.34-1.72,0-1.88C17.66,3.78,20.24,8.09,18.44,12.79Z" transform="translate(0)"/><path class="cls-7" d="M18.4,12.79a10.34,10.34,0,0,1-3.27,4c-.75.18-.68-.53-1.14-1.17s-1.37-.64-.91-1.71A10.83,10.83,0,0,0,16,10.37a6.58,6.58,0,0,0,.4-4c-.21-1.35-.32-1.67.06-1.83C17.68,4,20.18,8.2,18.4,12.79Z" transform="translate(0)"/><path class="cls-8" d="M18.37,12.79a10.3,10.3,0,0,1-3.21,3.92c-.73.17-.67-.52-1.12-1.15s-1.34-.65-.9-1.68A10.54,10.54,0,0,0,16,10.43a6.38,6.38,0,0,0,.43-3.95c-.17-1.32-.29-1.63.08-1.78C17.7,4.19,20.12,8.3,18.37,12.79Z" transform="translate(0)"/><path class="cls-9" d="M18.34,12.79a10.36,10.36,0,0,1-3.15,3.85c-.71.16-.66-.51-1.1-1.12s-1.31-.66-.89-1.66A10.23,10.23,0,0,0,16,10.49a6.33,6.33,0,0,0,.45-3.88c-.13-1.27-.26-1.58.1-1.73C17.73,4.39,20.05,8.4,18.34,12.79Z" transform="translate(0)"/><path class="cls-10" d="M18.31,12.79a10.17,10.17,0,0,1-3.09,3.77c-.68.16-.64-.49-1.08-1.09s-1.28-.67-.88-1.63A10.3,10.3,0,0,0,16,10.55a6.42,6.42,0,0,0,.48-3.81c-.11-1.23-.24-1.53.12-1.67C17.75,4.59,20,8.5,18.31,12.79Z" transform="translate(0)"/><path class="cls-11" d="M18.27,12.79a9.85,9.85,0,0,1-3,3.7c-.65.15-.62-.48-1.05-1.06s-1.25-.68-.87-1.61A10.07,10.07,0,0,0,16,10.6a6.32,6.32,0,0,0,.5-3.72c-.08-1.19-.21-1.49.14-1.63C17.77,4.8,19.93,8.61,18.27,12.79Z" transform="translate(0)"/><path class="cls-12" d="M18.24,12.79a9.82,9.82,0,0,1-3,3.63c-.63.14-.61-.47-1-1s-1.22-.69-.85-1.58A10.07,10.07,0,0,0,16,10.66,6.42,6.42,0,0,0,16.5,7c-.05-1.15-.19-1.44.15-1.57C17.8,5,19.86,8.71,18.24,12.79Z" transform="translate(0)"/><path class="cls-13" d="M18.21,12.79a9.64,9.64,0,0,1-2.91,3.55c-.6.15-.6-.45-1-1s-1.19-.69-.84-1.55A9.88,9.88,0,0,0,16,10.72a6.26,6.26,0,0,0,.55-3.57c0-1.11-.16-1.4.17-1.53C17.82,5.21,19.8,8.81,18.21,12.79Z" transform="translate(0)"/><path class="cls-14" d="M18.18,12.79a9.5,9.5,0,0,1-2.86,3.48c-.57.14-.58-.44-1-1s-1.16-.71-.83-1.53a9.84,9.84,0,0,0,2.46-3,6.32,6.32,0,0,0,.57-3.5c0-1.07-.13-1.35.2-1.47C17.84,5.41,19.74,8.91,18.18,12.79Z" transform="translate(0)"/><path class="cls-15" d="M18.14,12.79a9.28,9.28,0,0,1-2.79,3.41c-.55.13-.57-.43-.95-1s-1.14-.72-.83-1.5a9.82,9.82,0,0,0,2.4-2.9,7.06,7.06,0,0,0,.6-3.43c-.17-1-.11-1.31.21-1.42C17.87,5.62,19.68,9,18.14,12.79Z" transform="translate(0)"/><path class="cls-16" d="M18.11,12.79a9.26,9.26,0,0,1-2.73,3.34c-.53.12-.55-.42-.93-.93s-1.11-.73-.82-1.48A9.49,9.49,0,0,0,16,10.9a7,7,0,0,0,.62-3.35c-.15-1-.08-1.27.23-1.37C17.89,5.82,19.62,9.12,18.11,12.79Z" transform="translate(0)"/><path class="cls-17" d="M18.08,12.79a9,9,0,0,1-2.68,3.26c-.49.12-.53-.4-.9-.9s-1.08-.74-.8-1.45A9.48,9.48,0,0,0,16,11a7.12,7.12,0,0,0,.64-3.27c-.13-.93-.05-1.22.25-1.32C17.91,6,19.55,9.22,18.08,12.79Z" transform="translate(0)"/><path class="cls-18" d="M18.05,12.79A8.83,8.83,0,0,1,15.43,16c-.47.11-.52-.39-.88-.88s-1.05-.74-.79-1.42A9.34,9.34,0,0,0,16,11a7.11,7.11,0,0,0,.68-3.19c-.11-.89,0-1.18.26-1.27C17.94,6.23,19.49,9.33,18.05,12.79Z" transform="translate(0)"/><path class="cls-19" d="M18,12.79a8.83,8.83,0,0,1-2.55,3.12c-.45.1-.51-.38-.86-.85s-1-.76-.78-1.4A9,9,0,0,0,16,11.07,7.27,7.27,0,0,0,16.66,8c-.09-.85,0-1.13.29-1.21C18,6.44,19.43,9.43,18,12.79Z" transform="translate(0)"/><path class="cls-20" d="M18,12.79a8.82,8.82,0,0,1-2.49,3.05c-.43.09-.5-.37-.84-.83s-1-.76-.77-1.37A9,9,0,0,0,16,11.13a7.52,7.52,0,0,0,.73-3.05c-.08-.8,0-1.08.3-1.16C18,6.64,19.36,9.53,18,12.79Z" transform="translate(0)"/><path class="cls-21" d="M18,12.79a8.4,8.4,0,0,1-2.44,3c-.39.09-.47-.35-.81-.79s-1-.78-.76-1.35a8.85,8.85,0,0,0,2-2.43,7.74,7.74,0,0,0,.75-3c-.05-.77.05-1,.32-1.11C18,6.85,19.3,9.63,18,12.79Z" transform="translate(0)"/><path class="cls-22" d="M17.92,12.79a8.4,8.4,0,0,1-2.38,2.9c-.37.08-.46-.34-.79-.77s-.94-.79-.74-1.32a9.3,9.3,0,0,0,2-2.36,7.51,7.51,0,0,0,.77-2.89c0-.73.08-1,.34-1.06C18,7.05,19.24,9.74,17.92,12.79Z" transform="translate(0)"/><path class="cls-23" d="M17.88,12.79a8.3,8.3,0,0,1-2.31,2.83c-.35.07-.45-.33-.77-.75s-.91-.79-.73-1.29A9,9,0,0,0,16,11.3a8.13,8.13,0,0,0,.8-2.81c0-.69.1-1,.35-1C18.06,7.26,19.17,9.84,17.88,12.79Z" transform="translate(0)"/><path class="cls-24" d="M17.85,12.79a8,8,0,0,1-2.26,2.75c-.31.07-.43-.31-.74-.71S14,14,14.13,13.56A8.82,8.82,0,0,0,16,11.36a8.17,8.17,0,0,0,.82-2.74c0-.65.12-.9.38-1C18.08,7.46,19.11,9.94,17.85,12.79Z" transform="translate(0)"/><path class="cls-25" d="M17.82,12.79a8,8,0,0,1-2.2,2.68c-.29.06-.42-.3-.72-.69s-.85-.81-.71-1.24A9.19,9.19,0,0,0,16,11.42a8.5,8.5,0,0,0,.84-2.67c0-.6.15-.85.4-.9C18.1,7.67,19.05,10,17.82,12.79Z" transform="translate(0)"/><path class="cls-26" d="M17.79,12.79a7.88,7.88,0,0,1-2.14,2.61c-.27.06-.41-.29-.7-.66s-.83-.83-.7-1.22a8.82,8.82,0,0,0,1.71-2,9.12,9.12,0,0,0,.87-2.59c0-.57.17-.81.41-.86C18.13,7.87,19,10.15,17.79,12.79Z" transform="translate(0)"/><path class="cls-27" d="M17.75,12.79a7.77,7.77,0,0,1-2.08,2.54c-.24.05-.39-.28-.66-.64s-.81-.84-.69-1.19a9.37,9.37,0,0,0,1.64-2A7.16,7.16,0,0,0,16.85,9c.15-.51.2-.76.43-.8C18.15,8.08,18.92,10.25,17.75,12.79Z" transform="translate(0)"/><path class="cls-28" d="M17.72,12.79a7.6,7.6,0,0,1-2,2.46c-.21.05-.37-.26-.64-.6s-.78-.85-.68-1.17A9.47,9.47,0,0,0,16,11.59a7.71,7.71,0,0,0,.93-2.43c.15-.47.22-.73.44-.76C18.18,8.29,18.86,10.35,17.72,12.79Z" transform="translate(0)"/><path class="cls-29" d="M17.69,12.79a7.5,7.5,0,0,1-2,2.39c-.19,0-.36-.25-.62-.58s-.75-.86-.67-1.14A9.86,9.86,0,0,0,16,11.65a8,8,0,0,0,.95-2.36c.16-.43.25-.68.47-.7C18.2,8.49,18.79,10.45,17.69,12.79Z" transform="translate(0)"/><path class="cls-30" d="M17.66,12.79a7.39,7.39,0,0,1-1.91,2.32c-.16,0-.34-.24-.59-.56s-.73-.87-.66-1.11A10,10,0,0,0,16,11.71a8.28,8.28,0,0,0,1-2.29c.17-.39.28-.63.49-.65C18.22,8.7,18.72,10.55,17.66,12.79Z" transform="translate(0)"/><path class="cls-31" d="M17.62,12.79A7.09,7.09,0,0,1,15.78,15c-.13,0-.33-.22-.57-.52s-.7-.88-.65-1.09A10.15,10.15,0,0,0,16,11.77a10.07,10.07,0,0,0,1-2.21c.16-.36.3-.59.5-.6C18.25,8.91,18.66,10.65,17.62,12.79Z" transform="translate(0)"/><path class="cls-32" d="M17.59,12.79A7.14,7.14,0,0,1,15.81,15c-.11,0-.32-.21-.55-.5s-.68-.89-.63-1.06A12.07,12.07,0,0,0,16,11.82a10.41,10.41,0,0,0,1-2.13c.17-.32.33-.54.52-.54C18.27,9.11,18.6,10.76,17.59,12.79Z" transform="translate(0)"/><path class="cls-33" d="M17.56,12.79a7.4,7.4,0,0,1-1.72,2.1c-.09,0-.31-.2-.53-.47a2.85,2.85,0,0,1-.62-1A14,14,0,0,0,16,11.88a12.52,12.52,0,0,0,1-2.05c.18-.29.36-.5.54-.5C18.29,9.32,18.53,10.86,17.56,12.79Z" transform="translate(0)"/><path class="cls-34" d="M2.32,15.63a7.24,7.24,0,0,0,2.47,1.84c1.26.45,1-1,1.44-1.88.31-.58,1.37-.68.48-1.29a15.77,15.77,0,0,1-1.83-1.59A9.13,9.13,0,0,1,2.42,7.92c-.26-1.29-.28-2.16-1-2.3C1.1,5.55.28,6.83.06,8.73A8.05,8.05,0,0,0,.32,12,9.61,9.61,0,0,0,2.32,15.63Z" transform="translate(0)"/><path class="cls-35" d="M1.43,5.76c-.3,0-1.09,1.16-1.31,3v.09A8.17,8.17,0,0,0,.37,12a9.48,9.48,0,0,0,2,3.6,7.18,7.18,0,0,0,2.44,1.81c1.22.43.94-1,1.41-1.86.27-.5,1.1-.64.72-1.07a1.8,1.8,0,0,0-.24-.2,14.32,14.32,0,0,1-1.81-1.56A9.14,9.14,0,0,1,2.43,8C2.17,6.76,2.14,5.91,1.43,5.76Z" transform="translate(0)"/><path class="cls-36" d="M1.45,5.91C1.15,5.86.38,7.05.17,8.84v.09a8.13,8.13,0,0,0,.27,3.14,9.31,9.31,0,0,0,2,3.54,7.12,7.12,0,0,0,2.41,1.78c1.18.41.92-1,1.39-1.84.26-.49,1.06-.64.7-1.05a1.33,1.33,0,0,0-.24-.2,15.56,15.56,0,0,1-1.78-1.53A9.13,9.13,0,0,1,2.44,8.13C2.17,6.89,2.15,6.05,1.45,5.91Z" transform="translate(0)"/><path class="cls-37" d="M1.46,6.06C1.17,6,.42,7.18.22,9V9a8,8,0,0,0,.27,3.08A9.46,9.46,0,0,0,2.42,15.6a6.74,6.74,0,0,0,2.37,1.74c1.14.4.9-.94,1.36-1.8.26-.49,1-.64.68-1a1,1,0,0,0-.23-.2,15,15,0,0,1-1.75-1.5,9.09,9.09,0,0,1-2.4-4.56C2.18,7,2.15,6.19,1.46,6.06Z" transform="translate(0)"/><path class="cls-38" d="M1.48,6.21c-.29,0-1,1.1-1.21,2.84v.08a8,8,0,0,0,.28,3,9.18,9.18,0,0,0,1.91,3.42A6.71,6.71,0,0,0,4.78,17.3c1.12.38.9-.93,1.35-1.78.25-.48,1-.63.66-1a1.58,1.58,0,0,0-.22-.19,14.33,14.33,0,0,1-1.73-1.47A9.11,9.11,0,0,1,2.46,8.34C2.19,7.14,2.15,6.33,1.48,6.21Z" transform="translate(0)"/><path class="cls-39" d="M1.5,6.36C1.21,6.31.5,7.45.32,9.15v.09a7.72,7.72,0,0,0,.29,3,9,9,0,0,0,1.88,3.36,6.65,6.65,0,0,0,2.3,1.69c1.08.36.88-.92,1.32-1.75.25-.48,1-.64.65-1a1.58,1.58,0,0,0-.22-.19,14.14,14.14,0,0,1-1.69-1.44A9,9,0,0,1,2.47,8.45C2.2,7.27,2.15,6.48,1.5,6.36Z" transform="translate(0)"/><path class="cls-40" d="M1.51,6.51c-.27,0-1,1.07-1.14,2.74v.09a7.8,7.8,0,0,0,.29,2.91,9,9,0,0,0,1.86,3.31,6.6,6.6,0,0,0,2.27,1.66c1,.34.86-.91,1.3-1.73.24-.47,1-.63.63-1a.85.85,0,0,0-.22-.18,14,14,0,0,1-1.66-1.42A9,9,0,0,1,2.48,8.56C2.2,7.4,2.16,6.62,1.51,6.51Z" transform="translate(0)"/><path class="cls-41" d="M1.53,6.66c-.27,0-.95,1-1.11,2.7v.08a7.76,7.76,0,0,0,.3,2.86,9,9,0,0,0,1.84,3.25,6.44,6.44,0,0,0,2.23,1.63c1,.32.84-.9,1.27-1.7.24-.47.92-.63.61-1a.92.92,0,0,0-.2-.17,14.34,14.34,0,0,1-1.64-1.39A9.06,9.06,0,0,1,2.49,8.66C2.21,7.53,2.16,6.76,1.53,6.66Z" transform="translate(0)"/><path class="cls-42" d="M1.55,6.81c-.27,0-.93,1-1.08,2.65v.08a7.47,7.47,0,0,0,.31,2.8,8.8,8.8,0,0,0,1.81,3.2,6.25,6.25,0,0,0,2.19,1.59c1,.32.84-.88,1.26-1.67.23-.46.89-.63.59-1a.92.92,0,0,0-.2-.17A13.81,13.81,0,0,1,4.81,13a8.86,8.86,0,0,1-2.3-4.18C2.22,7.65,2.16,6.91,1.55,6.81Z" transform="translate(0)"/><path class="cls-43" d="M1.57,7c-.27,0-.91,1-1,2.6v.08a7.41,7.41,0,0,0,.31,2.75,8.86,8.86,0,0,0,1.79,3.13,6.13,6.13,0,0,0,2.16,1.57c.94.3.82-.87,1.23-1.65.24-.44.87-.62.58-1a.92.92,0,0,0-.2-.17A14.37,14.37,0,0,1,4.8,13,9,9,0,0,1,2.52,8.87C2.23,7.78,2.16,7.05,1.57,7Z" transform="translate(0)"/><path class="cls-44" d="M1.58,7.11c-.26,0-.88,1-1,2.55v.08a7.2,7.2,0,0,0,.32,2.7,8.51,8.51,0,0,0,1.77,3.07,6,6,0,0,0,2.12,1.54c.9.28.8-.86,1.2-1.62.24-.44.84-.63.57-.95a.83.83,0,0,0-.19-.17A13,13,0,0,1,4.8,13,8.82,8.82,0,0,1,2.53,9C2.24,7.91,2.16,7.19,1.58,7.11Z" transform="translate(0)"/><path class="cls-45" d="M1.6,7.26c-.26,0-.86,1-1,2.51v.07a7.08,7.08,0,0,0,.33,2.64,8.53,8.53,0,0,0,1.74,3A5.92,5.92,0,0,0,4.77,17c.86.26.78-.84,1.18-1.6.23-.43.81-.62.55-.94a1.19,1.19,0,0,0-.19-.16A11.87,11.87,0,0,1,4.79,13,8.83,8.83,0,0,1,2.54,9.09C2.24,8,2.17,7.33,1.6,7.26Z" transform="translate(0)"/><path class="cls-46" d="M1.62,7.41c-.26,0-.84,1-.95,2.46v.07A7,7,0,0,0,1,12.53a8.55,8.55,0,0,0,1.72,3A6.05,6.05,0,0,0,4.76,17c.83.24.78-.83,1.16-1.57.23-.43.78-.62.53-.93a.76.76,0,0,0-.18-.16,12.3,12.3,0,0,1-1.49-1.25A8.83,8.83,0,0,1,2.55,9.19C2.25,8.17,2.17,7.48,1.62,7.41Z" transform="translate(0)"/><path class="cls-47" d="M1.63,7.56c-.24,0-.81,1-.91,2.41V10a7,7,0,0,0,.34,2.54,8.3,8.3,0,0,0,1.7,2.89,5.61,5.61,0,0,0,2,1.45c.79.24.76-.81,1.14-1.54.22-.42.75-.62.51-.91a.52.52,0,0,0-.17-.15,12.21,12.21,0,0,1-1.47-1.23A8.72,8.72,0,0,1,2.56,9.3C2.26,8.29,2.17,7.62,1.63,7.56Z" transform="translate(0)"/><path class="cls-48" d="M1.65,7.7c-.24,0-.79.94-.88,2.38v.06a6.71,6.71,0,0,0,.35,2.48,8.1,8.1,0,0,0,1.67,2.84,5.69,5.69,0,0,0,2,1.42c.76.22.74-.8,1.11-1.51.22-.42.73-.62.5-.9a.52.52,0,0,0-.17-.15,13.71,13.71,0,0,1-1.44-1.2A8.93,8.93,0,0,1,2.57,9.41C2.27,8.42,2.17,7.76,1.65,7.7Z" transform="translate(0)"/><path class="cls-49" d="M1.67,7.85c-.24,0-.77.92-.85,2.33v.06a6.86,6.86,0,0,0,.35,2.43,8.14,8.14,0,0,0,1.65,2.78,5.64,5.64,0,0,0,1.94,1.39c.73.2.74-.79,1.1-1.49.21-.41.69-.61.48-.89a.79.79,0,0,0-.16-.14,11.4,11.4,0,0,1-1.41-1.17A8.72,8.72,0,0,1,2.58,9.51C2.27,8.55,2.17,7.91,1.67,7.85Z" transform="translate(0)"/><path class="cls-50" d="M1.69,8c-.24,0-.75.9-.82,2.28v.06a6.63,6.63,0,0,0,.35,2.38,8.13,8.13,0,0,0,1.62,2.72A5.58,5.58,0,0,0,4.75,16.8c.69.18.72-.78,1.07-1.47.21-.4.67-.61.47-.87a1.22,1.22,0,0,0-.16-.14,10.92,10.92,0,0,1-1.38-1.14A8.74,8.74,0,0,1,2.6,9.62C2.28,8.68,2.18,8.05,1.69,8Z" transform="translate(0)"/><path class="cls-51" d="M1.7,8.15c-.23,0-.72.88-.78,2.23v.07a6.07,6.07,0,0,0,.36,2.31,7.75,7.75,0,0,0,1.6,2.66,5.37,5.37,0,0,0,1.87,1.34c.65.17.7-.77,1-1.44.2-.4.63-.61.44-.86a.69.69,0,0,0-.15-.14,12.29,12.29,0,0,1-1.35-1.11A8.76,8.76,0,0,1,2.61,9.73C2.29,8.8,2.18,8.19,1.7,8.15Z" transform="translate(0)"/><path class="cls-52" d="M1.72,8.3c-.23,0-.7.87-.75,2.19v.06a6.27,6.27,0,0,0,.36,2.26,7.89,7.89,0,0,0,1.58,2.6,5.08,5.08,0,0,0,1.84,1.3c.61.16.68-.74,1-1.41.2-.39.61-.61.43-.85a.94.94,0,0,0-.14-.13,10.81,10.81,0,0,1-1.33-1.08A8.8,8.8,0,0,1,2.62,9.83C2.3,8.93,2.18,8.34,1.72,8.3Z" transform="translate(0)"/><path class="cls-53" d="M1.74,8.45c-.23,0-.68.85-.72,2.14v.06a6,6,0,0,0,.37,2.21A7.72,7.72,0,0,0,2.94,15.4a5.11,5.11,0,0,0,1.8,1.27c.58.15.68-.73,1-1.38.19-.39.58-.61.41-.84A.94.94,0,0,0,6,14.32a11.36,11.36,0,0,1-1.3-1.05A8.9,8.9,0,0,1,2.63,9.94C2.31,9.06,2.18,8.48,1.74,8.45Z" transform="translate(0)"/><path class="cls-54" d="M1.75,8.6c-.21,0-.65.83-.68,2.09v.06a5.92,5.92,0,0,0,.38,2.15A7.54,7.54,0,0,0,3,15.39a5,5,0,0,0,1.76,1.24c.54.13.66-.72,1-1.36.19-.38.55-.6.4-.82A.6.6,0,0,0,6,14.32a11,11,0,0,1-1.26-1,8.94,8.94,0,0,1-2.08-3.25C2.31,9.19,2.18,8.62,1.75,8.6Z" transform="translate(0)"/><path class="cls-55" d="M1.77,8.75c-.21,0-.63.81-.65,2v.06A5.89,5.89,0,0,0,1.5,13,7.69,7.69,0,0,0,3,15.38a4.9,4.9,0,0,0,1.73,1.21c.5.11.64-.71,1-1.34.19-.37.53-.6.38-.8A.34.34,0,0,0,6,14.33a10.94,10.94,0,0,1-1.24-1,8.93,8.93,0,0,1-2.06-3.18C2.32,9.32,2.19,8.77,1.77,8.75Z" transform="translate(0)"/><path class="cls-56" d="M1.79,8.9c-.21,0-.61.8-.62,2v0A5.89,5.89,0,0,0,1.56,13,7.68,7.68,0,0,0,3,15.36a4.78,4.78,0,0,0,1.7,1.19c.47.1.62-.7.93-1.31.18-.37.49-.6.36-.8a.44.44,0,0,0-.12-.11,11.67,11.67,0,0,1-1.21-1,9.09,9.09,0,0,1-2-3.1C2.33,9.44,2.19,8.91,1.79,8.9Z" transform="translate(0)"/><path class="cls-57" d="M1.8,9.05c-.2,0-.58.78-.58,1.95v.05a5.76,5.76,0,0,0,.4,2,7.13,7.13,0,0,0,1.46,2.31A4.49,4.49,0,0,0,4.73,16.5c.44.09.62-.68.91-1.28.18-.36.47-.6.35-.78a.44.44,0,0,0-.12-.11,12.28,12.28,0,0,1-1.18-.94,9.17,9.17,0,0,1-2-3C2.34,9.57,2.19,9.06,1.8,9.05Z" transform="translate(0)"/><path class="cls-58" d="M1.82,9.2c-.2,0-.56.76-.55,1.9v.05a5.79,5.79,0,0,0,.4,1.94,7.49,7.49,0,0,0,1.44,2.25,4.44,4.44,0,0,0,1.62,1.12c.4.08.6-.67.89-1.25.17-.36.44-.6.33-.77l-.11-.11a11.94,11.94,0,0,1-1.16-.91,9.34,9.34,0,0,1-2-2.95C2.34,9.7,2.19,9.2,1.82,9.2Z" transform="translate(0)"/><path class="cls-59" d="M1.84,9.35c-.2,0-.54.74-.52,1.85v.05a5.42,5.42,0,0,0,.41,1.88,7.37,7.37,0,0,0,1.41,2.2,4.38,4.38,0,0,0,1.59,1.09c.36.06.58-.65.86-1.23.17-.34.41-.59.32-.75l-.11-.11a10.42,10.42,0,0,1-1.12-.88,9.17,9.17,0,0,1-2-2.87C2.35,9.83,2.19,9.34,1.84,9.35Z" transform="translate(0)"/><path class="cls-60" d="M1.86,9.5c-.2,0-.53.72-.49,1.81v0a5.25,5.25,0,0,0,.42,1.83,7.25,7.25,0,0,0,1.38,2.13,4.26,4.26,0,0,0,1.56,1.07c.32.05.56-.64.84-1.2.16-.34.38-.6.29-.75l-.1-.1a9.1,9.1,0,0,1-1.09-.86,9.48,9.48,0,0,1-2-2.78C2.36,10,2.2,9.49,1.86,9.5Z" transform="translate(0)"/><path class="cls-61" d="M1.87,9.65c-.18,0-.5.71-.45,1.76v0a5.42,5.42,0,0,0,.42,1.78A7,7,0,0,0,3.21,15.3a4.2,4.2,0,0,0,1.51,1c.29,0,.56-.63.82-1.18.16-.33.36-.59.28-.73a.35.35,0,0,0-.09-.1,9.7,9.7,0,0,1-1.07-.83,9.33,9.33,0,0,1-1.94-2.71C2.37,10.08,2.2,9.63,1.87,9.65Z" transform="translate(0)"/><path class="cls-62" d="M1.89,9.79c-.18,0-.48.7-.42,1.72v0a5.35,5.35,0,0,0,.43,1.72,6.86,6.86,0,0,0,1.34,2,3.91,3.91,0,0,0,1.48,1c.25,0,.54-.61.8-1.15.15-.32.32-.59.26-.71a.19.19,0,0,0-.09-.09,11,11,0,0,1-1-.81A9.87,9.87,0,0,1,2.73,10.9C2.38,10.21,2.2,9.78,1.89,9.79Z" transform="translate(0)"/><path class="cls-63" d="M1.91,9.94c-.18,0-.46.68-.39,1.67v.05A5.14,5.14,0,0,0,2,13.32a7,7,0,0,0,1.31,2,3.85,3.85,0,0,0,1.45,1c.21,0,.52-.6.77-1.12.15-.32.3-.59.25-.71a.24.24,0,0,0-.09-.08,12.46,12.46,0,0,1-1-.78A10.13,10.13,0,0,1,2.74,11C2.38,10.34,2.2,9.92,1.91,9.94Z" transform="translate(0)"/><path class="cls-64" d="M1.92,10.09c-.17,0-.43.66-.35,1.63v0A5.43,5.43,0,0,0,2,13.37a7,7,0,0,0,1.3,1.9,3.64,3.64,0,0,0,1.41.94c.17,0,.5-.59.75-1.1.14-.31.27-.59.23-.69l-.08-.08a10.42,10.42,0,0,1-1-.75,10.24,10.24,0,0,1-1.89-2.48C2.39,10.47,2.2,10.07,1.92,10.09Z" transform="translate(0)"/><path class="cls-65" d="M3.34,15.25a3.47,3.47,0,0,0,1.37.92,3.47,3.47,0,0,0,.94-1.75c0-.11-.65-.44-1-.8a10.8,10.8,0,0,1-1.87-2.4c-.36-.62-.55-1-.82-1s-.41.65-.32,1.58a5.09,5.09,0,0,0,.45,1.59A6.71,6.71,0,0,0,3.34,15.25Z" transform="translate(0)"/><path class="cls-66" d="M17.41,8.54l0,.56a7.67,7.67,0,0,1-.26,1.58,8,8,0,0,1-3.22,4.54,7.8,7.8,0,0,1-3.51,1.3,8,8,0,0,1-4.1-.65A8.09,8.09,0,0,1,2.9,13,8.22,8.22,0,0,1,1.55,8.54,8.23,8.23,0,0,1,2.87,4.08,7.95,7.95,0,0,1,10.39.54a8,8,0,0,1,3.52,1.31A8.06,8.06,0,0,1,17.12,6.4,7.6,7.6,0,0,1,17.38,8Zm0-.13,0-.55a6.81,6.81,0,0,0-.27-1.54,7.77,7.77,0,0,0-3.24-4.4A8.23,8.23,0,0,0,10.38.67a8,8,0,0,0-4.05.62,7.84,7.84,0,0,0-4.7,7.12,7.75,7.75,0,0,0,4.69,7.15,8,8,0,0,0,4.06.6,8.23,8.23,0,0,0,3.47-1.25,7.8,7.8,0,0,0,3.24-4.4A6.81,6.81,0,0,0,17.36,9Z" transform="translate(0)"/><path class="cls-67" d="M18.53,8.85s0,.22,0,.62a7.55,7.55,0,0,1-.29,1.74,8.5,8.5,0,0,1-1.13,2.49,8.88,8.88,0,0,1-6.45,3.93A9.11,9.11,0,0,1,6,16.92,9,9,0,0,1,2.2,13.74,8.8,8.8,0,0,1,.68,8.85,8.9,8.9,0,0,1,2.17,3.93,9,9,0,0,1,6,.75a9.25,9.25,0,0,1,4.62-.7A8.92,8.92,0,0,1,17.08,4a8.66,8.66,0,0,1,1.13,2.5,7.57,7.57,0,0,1,.29,1.73Zm0,0,0-.62a7.52,7.52,0,0,0-.3-1.73A8.67,8.67,0,0,0,17,4a8.8,8.8,0,0,0-2.51-2.46A9.41,9.41,0,0,0,10.62.18,9.12,9.12,0,0,0,6.06.87,8.89,8.89,0,0,0,2.27,4a8.65,8.65,0,0,0,0,9.72,8.87,8.87,0,0,0,3.81,3.13,9.05,9.05,0,0,0,4.57.67,9.36,9.36,0,0,0,3.9-1.39,8.72,8.72,0,0,0,3.66-4.93,7.61,7.61,0,0,0,.3-1.73Z" transform="translate(0)"/><path class="cls-68" d="M2.09,3.3a1.48,1.48,0,0,0,.42,2.19c.34,0,1-1.27,1.75-2.12.89-1.08,2.33-2,2-2.3S3.59,1.3,2.09,3.3Z" transform="translate(0)"/><path class="cls-69" d="M2.11,3.3a1.45,1.45,0,0,0,.41,2.15c.33,0,1-1.25,1.73-2.08.87-1.06,2.29-1.93,2-2.26S3.58,1.33,2.11,3.3Z" transform="translate(0)"/><path class="cls-70" d="M2.13,3.3a1.42,1.42,0,0,0,.4,2.11c.33,0,1-1.22,1.7-2,.86-1.05,2.25-1.9,1.93-2.23S3.58,1.36,2.13,3.3Z" transform="translate(0)"/><path class="cls-71" d="M2.15,3.3a1.4,1.4,0,0,0,.39,2.07c.32,0,1-1.2,1.68-2,.84-1,2.21-1.86,1.89-2.19S3.57,1.39,2.15,3.3Z" transform="translate(0)"/><path class="cls-72" d="M2.17,3.3a1.36,1.36,0,0,0,.39,2c.31,0,1-1.17,1.65-2,.82-1,2.16-1.83,1.85-2.15S3.56,1.43,2.17,3.3Z" transform="translate(0)"/><path class="cls-73" d="M2.19,3.3a1.34,1.34,0,0,0,.38,2c.31,0,1-1.14,1.62-1.93C5,2.37,6.31,1.56,6,1.24S3.56,1.46,2.19,3.3Z" transform="translate(0)"/><path class="cls-74" d="M2.21,3.31a1.3,1.3,0,0,0,.37,1.94c.3,0,1-1.12,1.6-1.89C5,2.39,6.26,1.59,6,1.28S3.55,1.49,2.21,3.31Z" transform="translate(0)"/><path class="cls-75" d="M2.23,3.31a1.27,1.27,0,0,0,.36,1.9c.3,0,1-1.09,1.58-1.85.78-1,2-1.74,1.74-2S3.55,1.53,2.23,3.31Z" transform="translate(0)"/><path class="cls-76" d="M2.25,3.31A1.24,1.24,0,0,0,2.6,5.17c.29,0,.95-1.07,1.55-1.81.77-.94,2-1.72,1.71-2S3.54,1.56,2.25,3.31Z" transform="translate(0)"/><path class="cls-77" d="M2.27,3.31a1.21,1.21,0,0,0,.34,1.82c.29,0,.93-1,1.53-1.77.75-.92,2-1.69,1.67-2S3.53,1.59,2.27,3.31Z" transform="translate(0)"/><path class="cls-78" d="M2.29,3.31A1.2,1.2,0,0,0,2.62,5.1c.28,0,.92-1,1.51-1.74C4.86,2.45,6,1.7,5.76,1.42S3.53,1.62,2.29,3.31Z" transform="translate(0)"/><path class="cls-79" d="M2.31,3.31a1.17,1.17,0,0,0,.32,1.75c.28,0,.91-1,1.48-1.7C4.83,2.47,6,1.73,5.71,1.45S3.52,1.66,2.31,3.31Z" transform="translate(0)"/><path class="cls-80" d="M2.33,3.31A1.14,1.14,0,0,0,2.64,5c.27,0,.9-1,1.46-1.67.7-.87,1.83-1.59,1.56-1.86S3.52,1.69,2.33,3.31Z" transform="translate(0)"/><path class="cls-81" d="M2.35,3.31A1.11,1.11,0,0,0,2.66,5c.26,0,.88-1,1.43-1.63C4.78,2.5,5.87,1.79,5.6,1.52S3.51,1.72,2.35,3.31Z" transform="translate(0)"/><path class="cls-82" d="M2.37,3.31a1.08,1.08,0,0,0,.3,1.63c.26,0,.87-.93,1.4-1.59.68-.83,1.75-1.53,1.48-1.8S3.5,1.75,2.37,3.31Z" transform="translate(0)"/><path class="cls-83" d="M2.39,3.31A1,1,0,0,0,2.68,4.9c.25,0,.86-.9,1.38-1.55.66-.82,1.7-1.51,1.44-1.76S3.5,1.79,2.39,3.31Z" transform="translate(0)"/><path class="cls-84" d="M2.41,3.31a1,1,0,0,0,.28,1.55c.25,0,.85-.88,1.36-1.51.64-.8,1.65-1.48,1.4-1.73S3.49,1.82,2.41,3.31Z" transform="translate(0)"/><path class="cls-85" d="M2.43,3.31A1,1,0,0,0,2.7,4.82C2.94,4.83,3.54,4,4,3.35,4.66,2.57,5.65,1.9,5.4,1.66S3.49,1.85,2.43,3.31Z" transform="translate(0)"/><path class="cls-86" d="M2.45,3.31a1,1,0,0,0,.26,1.47C3,4.79,3.54,4,4,3.35c.61-.77,1.57-1.42,1.33-1.66S3.48,1.88,2.45,3.31Z" transform="translate(0)"/><path class="cls-87" d="M2.47,3.31a.93.93,0,0,0,.25,1.43c.23,0,.81-.8,1.29-1.39C4.6,2.6,5.54,2,5.3,1.73S3.47,1.92,2.47,3.31Z" transform="translate(0)"/><path class="cls-88" d="M2.49,3.31A.91.91,0,0,0,2.73,4.7c.23,0,.8-.77,1.26-1.35C4.57,2.61,5.48,2,5.25,1.76S3.47,2,2.49,3.31Z" transform="translate(0)"/><path class="cls-89" d="M2.51,3.32a.89.89,0,0,0,.23,1.35C3,4.67,3.53,3.91,4,3.34S5.43,2,5.2,1.8,3.46,2,2.51,3.32Z" transform="translate(0)"/><path class="cls-90" d="M2.53,3.32a.85.85,0,0,0,.23,1.31C3,4.63,3.53,3.9,4,3.34s1.4-1.29,1.18-1.51S3.46,2,2.53,3.32Z" transform="translate(0)"/><path class="cls-91" d="M2.55,3.32a.82.82,0,0,0,.22,1.27C3,4.59,3.53,3.88,4,3.34S5.32,2.07,5.1,1.87,3.45,2.05,2.55,3.32Z" transform="translate(0)"/><path class="cls-92" d="M2.57,3.32c-.44.63,0,1.23.21,1.23s.75-.68,1.16-1.21S5.26,2.1,5.05,1.9,3.44,2.08,2.57,3.32Z" transform="translate(0)"/><path class="cls-93" d="M2.59,3.32c-.43.61,0,1.19.2,1.19s.74-.66,1.14-1.17S5.21,2.13,5,1.94,3.44,2.11,2.59,3.32Z" transform="translate(0)"/><path class="cls-94" d="M2.61,3.32A.74.74,0,0,0,2.8,4.47c.19,0,.73-.63,1.11-1.13S5.15,2.16,5,2,3.43,2.15,2.61,3.32Z" transform="translate(0)"/><path class="cls-95" d="M2.63,3.32c-.4.58,0,1.11.18,1.11s.72-.61,1.09-1.09S5.09,2.19,4.9,2,3.43,2.18,2.63,3.32Z" transform="translate(0)"/><path class="cls-96" d="M2.65,3.32c-.39.56,0,1.07.17,1.07s.7-.58,1.07-1S5,2.22,4.85,2,3.42,2.21,2.65,3.32Z" transform="translate(0)"/><path class="cls-97" d="M2.67,3.32c-.38.55,0,1,.16,1s.69-.56,1-1S5,2.25,4.8,2.07,3.41,2.24,2.67,3.32Z" transform="translate(0)"/><path class="cls-98" d="M2.69,3.32c-.36.53,0,1,.15,1s.68-.53,1-1,1.07-1.06.89-1.22S3.41,2.28,2.69,3.32Z" transform="translate(0)"/><path class="cls-99" d="M2.71,3.32c-.35.52,0,1,.14.95s.67-.51,1-.94,1-1,.85-1.19S3.4,2.31,2.71,3.32Z" transform="translate(0)"/><path class="cls-68" d="M16.91,3.3a1.48,1.48,0,0,1-.43,2.19c-.33,0-1-1.27-1.75-2.12-.88-1.08-2.33-2-2-2.3S15.41,1.3,16.91,3.3Z" transform="translate(0)"/><path class="cls-69" d="M16.89,3.3a1.45,1.45,0,0,1-.42,2.15c-.33,0-1-1.25-1.72-2.08-.88-1.06-2.29-1.93-2-2.26S15.41,1.33,16.89,3.3Z" transform="translate(0)"/><path class="cls-70" d="M16.87,3.3a1.43,1.43,0,0,1-.41,2.11c-.32,0-1-1.22-1.7-2-.86-1.05-2.25-1.9-1.92-2.23S15.42,1.36,16.87,3.3Z" transform="translate(0)"/><path class="cls-71" d="M16.85,3.3a1.4,1.4,0,0,1-.4,2.07c-.32,0-1-1.2-1.68-2-.84-1-2.2-1.86-1.88-2.19S15.42,1.39,16.85,3.3Z" transform="translate(0)"/><path class="cls-72" d="M16.83,3.3a1.37,1.37,0,0,1-.39,2c-.32,0-1-1.17-1.65-2-.83-1-2.17-1.83-1.85-2.15S15.43,1.43,16.83,3.3Z" transform="translate(0)"/><path class="cls-73" d="M16.81,3.3a1.34,1.34,0,0,1-.38,2c-.31,0-1-1.14-1.63-1.93-.81-1-2.12-1.8-1.81-2.12S15.44,1.46,16.81,3.3Z" transform="translate(0)"/><path class="cls-74" d="M16.79,3.31a1.3,1.3,0,0,1-.37,1.94c-.31,0-1-1.12-1.61-1.89C14,2.39,12.74,1.59,13,1.28S15.44,1.49,16.79,3.31Z" transform="translate(0)"/><path class="cls-75" d="M16.76,3.31a1.27,1.27,0,0,1-.35,1.9c-.3,0-1-1.09-1.58-1.85-.78-1-2-1.74-1.74-2S15.45,1.53,16.76,3.31Z" transform="translate(0)"/><path class="cls-76" d="M16.74,3.31a1.23,1.23,0,0,1-.35,1.86c-.29,0-.94-1.07-1.55-1.81-.76-.94-2-1.72-1.7-2S15.45,1.56,16.74,3.31Z" transform="translate(0)"/><path class="cls-77" d="M16.72,3.31a1.2,1.2,0,0,1-.34,1.82c-.28,0-.93-1-1.53-1.77-.75-.92-1.95-1.69-1.66-2S15.46,1.59,16.72,3.31Z" transform="translate(0)"/><path class="cls-78" d="M16.7,3.31a1.19,1.19,0,0,1-.33,1.79c-.28,0-.92-1-1.5-1.74C14.13,2.45,13,1.7,13.24,1.42S15.47,1.62,16.7,3.31Z" transform="translate(0)"/><path class="cls-79" d="M16.68,3.31a1.16,1.16,0,0,1-.32,1.75c-.27,0-.91-1-1.48-1.7-.72-.89-1.87-1.63-1.59-1.91S15.47,1.66,16.68,3.31Z" transform="translate(0)"/><path class="cls-80" d="M16.66,3.31A1.14,1.14,0,0,1,16.35,5c-.27,0-.9-1-1.46-1.67-.7-.87-1.82-1.59-1.55-1.86S15.48,1.69,16.66,3.31Z" transform="translate(0)"/><path class="cls-81" d="M16.64,3.31A1.11,1.11,0,0,1,16.34,5c-.27,0-.89-1-1.43-1.63-.69-.85-1.79-1.56-1.52-1.83S15.48,1.72,16.64,3.31Z" transform="translate(0)"/><path class="cls-82" d="M16.62,3.31a1.08,1.08,0,0,1-.29,1.63c-.26,0-.88-.93-1.41-1.59-.67-.83-1.74-1.53-1.48-1.8S15.49,1.75,16.62,3.31Z" transform="translate(0)"/><path class="cls-83" d="M16.6,3.31a1,1,0,0,1-.28,1.59c-.26,0-.86-.9-1.39-1.55-.65-.82-1.7-1.51-1.44-1.76S15.5,1.79,16.6,3.31Z" transform="translate(0)"/><path class="cls-84" d="M16.58,3.31a1,1,0,0,1-.27,1.55c-.25,0-.85-.88-1.36-1.51-.65-.8-1.66-1.48-1.41-1.73S15.5,1.82,16.58,3.31Z" transform="translate(0)"/><path class="cls-85" d="M16.56,3.31a1,1,0,0,1-.27,1.51c-.24,0-.83-.85-1.33-1.47-.63-.78-1.62-1.45-1.37-1.69S15.51,1.85,16.56,3.31Z" transform="translate(0)"/><path class="cls-86" d="M16.54,3.31a1,1,0,0,1-.26,1.47c-.23,0-.82-.82-1.31-1.43-.61-.77-1.57-1.42-1.33-1.66S15.51,1.88,16.54,3.31Z" transform="translate(0)"/><path class="cls-87" d="M16.52,3.31a.93.93,0,0,1-.25,1.43c-.23,0-.81-.8-1.28-1.39-.6-.75-1.53-1.39-1.3-1.62S15.52,1.92,16.52,3.31Z" transform="translate(0)"/><path class="cls-88" d="M16.5,3.31a.9.9,0,0,1-.24,1.39c-.22,0-.8-.77-1.26-1.35-.58-.74-1.49-1.36-1.26-1.59S15.53,2,16.5,3.31Z" transform="translate(0)"/><path class="cls-89" d="M16.48,3.32a.88.88,0,0,1-.23,1.35c-.22,0-.79-.76-1.24-1.33S13.57,2,13.79,1.8,15.53,2,16.48,3.32Z" transform="translate(0)"/><path class="cls-90" d="M16.46,3.32a.86.86,0,0,1-.22,1.31c-.22,0-.78-.73-1.21-1.29s-1.41-1.29-1.19-1.51S15.54,2,16.46,3.32Z" transform="translate(0)"/><path class="cls-91" d="M16.44,3.32a.82.82,0,0,1-.21,1.27c-.21,0-.77-.71-1.19-1.25s-1.36-1.27-1.15-1.47S15.54,2.05,16.44,3.32Z" transform="translate(0)"/><path class="cls-92" d="M16.42,3.32a.79.79,0,0,1-.2,1.23c-.21,0-.75-.68-1.17-1.21S13.73,2.1,13.94,1.9,15.55,2.08,16.42,3.32Z" transform="translate(0)"/><path class="cls-93" d="M16.4,3.32a.77.77,0,0,1-.19,1.19c-.2,0-.74-.66-1.14-1.17S13.79,2.13,14,1.94,15.56,2.11,16.4,3.32Z" transform="translate(0)"/><path class="cls-94" d="M16.38,3.32c.42.6,0,1.15-.19,1.15s-.72-.63-1.11-1.13S13.84,2.16,14,2,15.56,2.15,16.38,3.32Z" transform="translate(0)"/><path class="cls-95" d="M16.36,3.32c.41.58,0,1.11-.18,1.11s-.71-.61-1.09-1.09S13.9,2.19,14.09,2,15.57,2.18,16.36,3.32Z" transform="translate(0)"/><path class="cls-96" d="M16.34,3.32c.39.56,0,1.07-.17,1.07s-.7-.58-1.06-1S14,2.22,14.14,2,15.57,2.21,16.34,3.32Z" transform="translate(0)"/><path class="cls-97" d="M16.32,3.32c.38.55,0,1-.16,1s-.69-.56-1-1S14,2.25,14.19,2.07,15.58,2.24,16.32,3.32Z" transform="translate(0)"/><path class="cls-98" d="M16.3,3.32c.37.53,0,1-.15,1s-.68-.53-1-1-1.06-1.06-.89-1.22S15.59,2.28,16.3,3.32Z" transform="translate(0)"/><path class="cls-99" d="M16.28,3.32c.35.52,0,1-.14.95s-.67-.51-1-.94-1-1-.86-1.19S15.59,2.31,16.28,3.32Z" transform="translate(0)"/><g class="cls-100"><path class="cls-68" d="M3.87,11.36c-.19.14,1,4,6.31,3.61,4.85-.35,5.47-3.78,5.34-3.82A7.78,7.78,0,0,1,9.8,14.07C5.8,14.28,4,11.23,3.87,11.36Z" transform="translate(0)"/><path class="cls-101" d="M4,11.43c-.19.14,1,3.89,6.22,3.52,4.79-.33,5.42-3.7,5.29-3.74A7.73,7.73,0,0,1,9.8,14.07C5.85,14.28,4.12,11.3,4,11.43Z" transform="translate(0)"/><path class="cls-102" d="M4,11.5c-.19.14,1,3.8,6.14,3.44,4.72-.33,5.36-3.62,5.24-3.67a7.79,7.79,0,0,1-5.6,2.81C5.9,14.28,4.19,11.38,4,11.5Z" transform="translate(0)"/><path class="cls-103" d="M4.1,11.57c-.19.14,1,3.71,6.06,3.36,4.66-.32,5.31-3.54,5.19-3.6a7.74,7.74,0,0,1-5.54,2.75C6,14.28,4.26,11.45,4.1,11.57Z" transform="translate(0)"/><path class="cls-104" d="M4.18,11.64c-.19.14,1,3.62,6,3.28,4.59-.32,5.26-3.47,5.13-3.52a7.71,7.71,0,0,1-5.48,2.68A7.27,7.27,0,0,1,4.18,11.64Z" transform="translate(0)"/><path class="cls-105" d="M4.25,11.71c-.18.14,1,3.53,5.9,3.2,4.53-.31,5.21-3.39,5.08-3.45a7.73,7.73,0,0,1-5.42,2.63C6.07,14.28,4.41,11.59,4.25,11.71Z" transform="translate(0)"/><path class="cls-106" d="M4.33,11.78c-.18.14,1,3.44,5.82,3.11,4.46-.3,5.15-3.31,5-3.37a7.75,7.75,0,0,1-5.37,2.57A7.16,7.16,0,0,1,4.33,11.78Z" transform="translate(0)"/><path class="cls-107" d="M4.4,11.85c-.17.14,1,3.35,5.74,3,4.41-.29,5.11-3.23,5-3.3a7.73,7.73,0,0,1-5.3,2.52A7.14,7.14,0,0,1,4.4,11.85Z" transform="translate(0)"/><path class="cls-108" d="M4.48,11.93c-.18.13,1,3.25,5.65,2.94,4.35-.29,5.06-3.15,4.93-3.22A7.76,7.76,0,0,1,9.82,14.1,7.12,7.12,0,0,1,4.48,11.93Z" transform="translate(0)"/><path class="cls-109" d="M4.55,12c-.17.13,1,3.16,5.58,2.86,4.28-.28,5-3.08,4.88-3.15A7.79,7.79,0,0,1,9.82,14.1,7,7,0,0,1,4.55,12Z" transform="translate(0)"/><path class="cls-110" d="M4.63,12.07c-.17.13,1,3.07,5.49,2.77,4.22-.27,5-3,4.83-3.07a7.79,7.79,0,0,1-5.13,2.34A7,7,0,0,1,4.63,12.07Z" transform="translate(0)"/><path class="cls-111" d="M4.7,12.14c-.16.13,1,3,5.42,2.69,4.15-.26,4.9-2.91,4.77-3a7.84,7.84,0,0,1-5.07,2.27A7,7,0,0,1,4.7,12.14Z" transform="translate(0)"/><path class="cls-112" d="M4.78,12.21c-.16.12,1,2.89,5.33,2.61C14.2,14.56,15,12,14.83,11.9a7.84,7.84,0,0,1-5,2.22A6.94,6.94,0,0,1,4.78,12.21Z" transform="translate(0)"/><path class="cls-113" d="M4.86,12.28c-.17.12,1,2.8,5.25,2.53,4-.25,4.79-2.76,4.67-2.85a8,8,0,0,1-4.95,2.16A6.86,6.86,0,0,1,4.86,12.28Z" transform="translate(0)"/><path class="cls-114" d="M4.93,12.35c-.16.12,1,2.7,5.17,2.45,4-.25,4.75-2.69,4.62-2.78a8,8,0,0,1-4.89,2.1A6.85,6.85,0,0,1,4.93,12.35Z" transform="translate(0)"/><path class="cls-115" d="M5,12.43c-.16.11,1,2.6,5.09,2.35,3.9-.23,4.69-2.6,4.56-2.69a8.07,8.07,0,0,1-4.83,2A6.87,6.87,0,0,1,5,12.43Z" transform="translate(0)"/><path class="cls-116" d="M5.08,12.5c-.15.11,1,2.51,5,2.27,3.84-.23,4.64-2.52,4.52-2.62a8.15,8.15,0,0,1-4.78,2A6.82,6.82,0,0,1,5.08,12.5Z" transform="translate(0)"/><path class="cls-117" d="M5.16,12.57c-.15.11,1,2.42,4.93,2.19,3.77-.22,4.59-2.45,4.46-2.55a8.31,8.31,0,0,1-4.71,1.93A6.86,6.86,0,0,1,5.16,12.57Z" transform="translate(0)"/><path class="cls-118" d="M5.23,12.64c-.15.11,1,2.33,4.85,2.11s4.54-2.37,4.41-2.48a8.27,8.27,0,0,1-4.65,1.87A6.87,6.87,0,0,1,5.23,12.64Z" transform="translate(0)"/><path class="cls-119" d="M5.31,12.71c-.15.11,1,2.24,4.77,2s4.48-2.3,4.35-2.4a8.45,8.45,0,0,1-4.59,1.81A6.82,6.82,0,0,1,5.31,12.71Z" transform="translate(0)"/><path class="cls-120" d="M5.38,12.78c-.14.11,1,2.15,4.69,1.94s4.43-2.21,4.31-2.32a8.67,8.67,0,0,1-4.54,1.75A6.88,6.88,0,0,1,5.38,12.78Z" transform="translate(0)"/><path class="cls-121" d="M5.46,12.85c-.14.11,1,2.06,4.6,1.86s4.39-2.13,4.26-2.25a8.71,8.71,0,0,1-4.48,1.69A6.88,6.88,0,0,1,5.46,12.85Z" transform="translate(0)"/><path class="cls-122" d="M5.53,12.93c-.14.1,1,2,4.53,1.77s4.33-2.06,4.2-2.18a8.75,8.75,0,0,1-4.41,1.64A7,7,0,0,1,5.53,12.93Z" transform="translate(0)"/><path class="cls-123" d="M5.61,13c-.14.1,1,1.87,4.44,1.69s4.28-2,4.15-2.1a9,9,0,0,1-4.35,1.57A7,7,0,0,1,5.61,13Z" transform="translate(0)"/><path class="cls-124" d="M5.68,13.07c-.13.1,1,1.78,4.37,1.6s4.23-1.9,4.1-2a9.39,9.39,0,0,1-4.3,1.52A7.15,7.15,0,0,1,5.68,13.07Z" transform="translate(0)"/><path class="cls-125" d="M5.76,13.14c-.13.1,1,1.69,4.28,1.52s4.18-1.82,4.05-1.95a9.5,9.5,0,0,1-4.24,1.46A7.18,7.18,0,0,1,5.76,13.14Z" transform="translate(0)"/><path class="cls-126" d="M5.84,13.21c-.13.1,1,1.6,4.2,1.44s4.12-1.74,4-1.88a9.55,9.55,0,0,1-4.18,1.4A7.2,7.2,0,0,1,5.84,13.21Z" transform="translate(0)"/><path class="cls-127" d="M5.91,13.28c-.13.1,1,1.51,4.12,1.36s4.07-1.67,4-1.8a10.55,10.55,0,0,1-4.12,1.34A7.44,7.44,0,0,1,5.91,13.28Z" transform="translate(0)"/><path class="cls-128" d="M6,13.35c-.13.1,1,1.42,4,1.28s4-1.59,3.89-1.73a10.78,10.78,0,0,1-4.06,1.28A7.59,7.59,0,0,1,6,13.35Z" transform="translate(0)"/><path class="cls-129" d="M6.06,13.42c-.12.1,1.05,1.33,4,1.19s4-1.5,3.84-1.65a11.08,11.08,0,0,1-4,1.23A7.68,7.68,0,0,1,6.06,13.42Z" transform="translate(0)"/><path class="cls-130" d="M6.14,13.5C6,13.58,7.19,14.73,10,14.6S13.93,13.17,13.8,13a11.66,11.66,0,0,1-3.94,1.17A8.09,8.09,0,0,1,6.14,13.5Z" transform="translate(0)"/><path class="cls-131" d="M6.21,13.57c-.11.08,1.06,1.14,3.8,1,2.89-.12,3.87-1.35,3.74-1.5s-1.5,1-3.89,1.1A8.54,8.54,0,0,1,6.21,13.57Z" transform="translate(0)"/></g><path class="cls-132" d="M3.37,10.54a3.77,3.77,0,0,0,1.38,2.21,4.26,4.26,0,0,0,2.09,1,8.47,8.47,0,0,1-1.92-1.3A8.56,8.56,0,0,1,3.37,10.54Z" transform="translate(0)"/><path class="cls-133" d="M16,10.1a4.58,4.58,0,0,1-1.43,2.67A4.52,4.52,0,0,1,12.32,14a9.06,9.06,0,0,0,2.06-1.59A10,10,0,0,0,16,10.1Z" transform="translate(0)"/><g class="cls-134"><path class="cls-68" d="M9.25,14.94c-.13.15.47,1.08.55,1.53S9.61,17.75,9.69,18s2-.08,2.84-.34c1.06-.3,1.72-.66,1.72-.86a2,2,0,0,0-.77-1.39c-.67-.53-.81-.78-1.12-.89s-.66.07-1.28.17A9.3,9.3,0,0,0,9.25,14.94Z" transform="translate(0)"/><path class="cls-135" d="M9.28,15c-.12.16.47,1.07.55,1.52S9.64,17.74,9.72,18s1.94-.08,2.8-.33c1.05-.3,1.71-.66,1.71-.85a1.94,1.94,0,0,0-.77-1.38c-.67-.52-.8-.78-1.1-.89s-.65.08-1.27.17A9.26,9.26,0,0,0,9.28,15Z" transform="translate(0)"/><path class="cls-136" d="M9.32,15c-.12.16.46,1.07.54,1.5S9.67,17.72,9.75,18s1.91-.08,2.77-.33c1-.3,1.69-.65,1.69-.84a1.9,1.9,0,0,0-.77-1.37c-.66-.52-.78-.77-1.08-.88s-.65.07-1.26.17A8.47,8.47,0,0,0,9.32,15Z" transform="translate(0)"/><path class="cls-137" d="M9.36,15c-.13.16.45,1.06.54,1.49s-.2,1.25-.11,1.5,1.88-.08,2.73-.33c1-.29,1.66-.65,1.66-.84a1.87,1.87,0,0,0-.76-1.34c-.65-.52-.77-.78-1.07-.89s-.64.08-1.25.17A9.83,9.83,0,0,0,9.36,15Z" transform="translate(0)"/><path class="cls-138" d="M9.39,15c-.12.15.46,1,.54,1.47s-.19,1.24-.11,1.48,1.85-.07,2.69-.32c1-.29,1.65-.64,1.65-.83a1.85,1.85,0,0,0-.76-1.33c-.64-.52-.75-.78-1.05-.88s-.64.07-1.24.17A8.09,8.09,0,0,0,9.39,15Z" transform="translate(0)"/><path class="cls-139" d="M9.43,15c-.12.15.45,1,.53,1.46s-.19,1.23-.11,1.47,1.82-.07,2.66-.32c1-.29,1.62-.64,1.62-.82a1.81,1.81,0,0,0-.75-1.32c-.64-.51-.74-.77-1-.88s-.64.08-1.23.17A8.68,8.68,0,0,0,9.43,15Z" transform="translate(0)"/><path class="cls-140" d="M9.47,15c-.12.15.44,1,.52,1.45s-.19,1.22-.11,1.45,1.79-.07,2.62-.31c1-.29,1.61-.63,1.61-.82a1.84,1.84,0,0,0-.74-1.3c-.64-.5-.74-.77-1-.88s-.62.08-1.21.18A8.53,8.53,0,0,0,9.47,15Z" transform="translate(0)"/><path class="cls-141" d="M9.5,15c-.12.15.44,1,.52,1.43s-.19,1.21-.11,1.45,1.77-.07,2.59-.31,1.59-.63,1.59-.81a1.8,1.8,0,0,0-.74-1.29c-.63-.5-.72-.77-1-.87s-.62.08-1.21.17A8.63,8.63,0,0,0,9.5,15Z" transform="translate(0)"/><path class="cls-142" d="M9.54,15c-.12.15.43,1,.51,1.42s-.18,1.2-.1,1.44,1.73-.07,2.54-.31,1.57-.62,1.57-.8a1.76,1.76,0,0,0-.73-1.28c-.63-.49-.71-.77-1-.87s-.62.08-1.2.18A8.49,8.49,0,0,0,9.54,15Z" transform="translate(0)"/><path class="cls-143" d="M9.58,15c-.12.15.42,1,.5,1.41s-.18,1.19-.1,1.42,1.7-.06,2.51-.3S14,17,14,16.77a1.79,1.79,0,0,0-.73-1.26c-.62-.49-.69-.76-1-.87s-.61.09-1.18.18A9.29,9.29,0,0,0,9.58,15Z" transform="translate(0)"/><path class="cls-144" d="M9.61,15.06c-.11.14.42,1,.5,1.39s-.18,1.18-.1,1.41,1.67-.06,2.47-.3S14,17,14,16.77a1.7,1.7,0,0,0-.72-1.24c-.61-.49-.68-.77-1-.87s-.6.08-1.17.18A7.33,7.33,0,0,0,9.61,15.06Z" transform="translate(0)"/><path class="cls-145" d="M9.65,15.07c-.12.14.42,1,.49,1.37s-.18,1.17-.1,1.4,1.64-.06,2.44-.29S14,16.94,14,16.77a1.7,1.7,0,0,0-.71-1.23c-.61-.49-.67-.77-.95-.87s-.6.09-1.17.18A7.91,7.91,0,0,0,9.65,15.07Z" transform="translate(0)"/><path class="cls-146" d="M9.69,15.08c-.12.14.41,1,.48,1.36s-.17,1.16-.1,1.39,1.62-.06,2.4-.29,1.49-.6,1.49-.78a1.7,1.7,0,0,0-.7-1.21c-.61-.48-.66-.76-.94-.86s-.59.08-1.15.18A7.1,7.1,0,0,0,9.69,15.08Z" transform="translate(0)"/><path class="cls-147" d="M9.72,15.09c-.11.14.41.95.48,1.35s-.17,1.15-.1,1.38,1.59-.06,2.37-.3,1.47-.59,1.47-.76a1.67,1.67,0,0,0-.7-1.2c-.6-.47-.65-.76-.92-.86s-.59.09-1.14.18A7.89,7.89,0,0,0,9.72,15.09Z" transform="translate(0)"/><path class="cls-148" d="M9.76,15.1c-.11.14.4.94.48,1.34s-.18,1.14-.1,1.36,1.55-.05,2.32-.29,1.46-.58,1.46-.76a1.65,1.65,0,0,0-.7-1.18c-.59-.47-.63-.76-.9-.86s-.58.09-1.13.19A7.9,7.9,0,0,0,9.76,15.1Z" transform="translate(0)"/><path class="cls-149" d="M9.8,15.12c-.12.13.39.92.47,1.32s-.18,1.13-.1,1.35,1.52-.06,2.29-.29,1.43-.58,1.43-.75a1.64,1.64,0,0,0-.69-1.17c-.59-.46-.62-.76-.89-.85s-.57.09-1.12.18S9.89,15,9.8,15.12Z" transform="translate(0)"/><path class="cls-150" d="M9.83,15.13c-.11.13.39.91.47,1.3s-.17,1.12-.1,1.34,1.5-.05,2.26-.28,1.41-.57,1.41-.74a1.61,1.61,0,0,0-.68-1.15c-.59-.47-.61-.76-.88-.86s-.57.09-1.11.19A6.68,6.68,0,0,0,9.83,15.13Z" transform="translate(0)"/><path class="cls-151" d="M9.87,15.14c-.11.14.39.91.46,1.29s-.17,1.11-.1,1.33,1.47-.05,2.22-.28,1.39-.57,1.39-.74a1.58,1.58,0,0,0-.67-1.13c-.58-.46-.6-.76-.86-.86s-.57.1-1.1.2A6.79,6.79,0,0,0,9.87,15.14Z" transform="translate(0)"/><path class="cls-152" d="M9.91,15.15c-.11.14.38.9.45,1.28s-.17,1.1-.1,1.32,1.44-.05,2.19-.28,1.37-.56,1.37-.73a1.57,1.57,0,0,0-.67-1.12c-.58-.46-.58-.76-.85-.85s-.56.09-1.09.19S10,15,9.91,15.15Z" transform="translate(0)"/><path class="cls-153" d="M9.94,15.16c-.1.14.38.89.45,1.27s-.17,1.09-.09,1.3,1.4,0,2.14-.27,1.35-.56,1.35-.72a1.53,1.53,0,0,0-.66-1.11c-.57-.45-.57-.75-.83-.85s-.55.1-1.08.2S10,15,9.94,15.16Z" transform="translate(0)"/><path class="cls-154" d="M10,15.17c-.11.14.37.88.44,1.26s-.16,1.08-.09,1.29,1.38,0,2.11-.27,1.33-.55,1.33-.72a1.52,1.52,0,0,0-.66-1.09c-.56-.44-.56-.75-.81-.84s-.55.09-1.07.19A7.17,7.17,0,0,0,10,15.17Z" transform="translate(0)"/><path class="cls-155" d="M10,15.19c-.11.13.36.86.43,1.23s-.16,1.07-.09,1.28,1.35,0,2.07-.26,1.32-.55,1.32-.71a1.54,1.54,0,0,0-.66-1.08c-.55-.44-.54-.75-.8-.84s-.54.1-1,.2S10.11,15.07,10,15.19Z" transform="translate(0)"/><path class="cls-156" d="M10.05,15.2c-.1.13.36.85.43,1.22s-.16,1.06-.09,1.27,1.32,0,2-.26,1.29-.54,1.29-.7a1.47,1.47,0,0,0-.64-1.06c-.56-.44-.54-.75-.79-.85s-.54.1-1,.2S10.14,15.08,10.05,15.2Z" transform="translate(0)"/><path class="cls-157" d="M10.09,15.21c-.1.13.36.84.42,1.21s-.16,1-.09,1.25,1.29,0,2-.25,1.28-.54,1.28-.7a1.44,1.44,0,0,0-.64-1c-.55-.44-.52-.75-.77-.84s-.53.1-1,.2S10.18,15.1,10.09,15.21Z" transform="translate(0)"/><path class="cls-158" d="M10.13,15.22c-.11.13.35.84.42,1.2s-.16,1-.1,1.24,1.27,0,2-.25,1.25-.53,1.25-.69a1.44,1.44,0,0,0-.63-1c-.54-.43-.51-.75-.76-.84s-.52.1-1,.2S10.22,15.11,10.13,15.22Z" transform="translate(0)"/><path class="cls-159" d="M10.16,15.23c-.1.13.35.83.42,1.18s-.16,1-.09,1.24,1.23,0,1.92-.26,1.24-.52,1.24-.67a1.43,1.43,0,0,0-.63-1c-.54-.43-.49-.75-.74-.84s-.52.11-1,.21S10.25,15.12,10.16,15.23Z" transform="translate(0)"/><path class="cls-160" d="M10.2,15.25c-.1.12.34.81.41,1.16s-.16,1-.09,1.22,1.2,0,1.89-.25,1.21-.51,1.21-.67a1.37,1.37,0,0,0-.62-1c-.53-.42-.48-.74-.72-.83s-.52.1-1,.2S10.29,15.14,10.2,15.25Z" transform="translate(0)"/><path class="cls-161" d="M10.24,15.26c-.1.12.33.8.4,1.15s-.16,1-.09,1.21,1.17,0,1.85-.25,1.2-.51,1.2-.66a1.41,1.41,0,0,0-.61-1c-.53-.41-.48-.74-.72-.83s-.5.1-1,.21S10.32,15.15,10.24,15.26Z" transform="translate(0)"/><path class="cls-162" d="M10.27,15.27c-.1.12.33.79.4,1.14s-.15,1-.09,1.19,1.14,0,1.82-.24,1.18-.5,1.18-.65a1.4,1.4,0,0,0-.61-1c-.52-.41-.46-.74-.7-.82s-.5.1-1,.2S10.36,15.16,10.27,15.27Z" transform="translate(0)"/><path class="cls-163" d="M10.31,15.28c-.1.12.33.78.39,1.13s-.15,1-.09,1.18,1.12,0,1.78-.24,1.16-.5,1.16-.65a1.31,1.31,0,0,0-.6-.95c-.52-.41-.45-.74-.68-.83s-.5.1-1,.21S10.39,15.17,10.31,15.28Z" transform="translate(0)"/><path class="cls-164" d="M10.35,15.29c-.1.12.32.77.38,1.11s-.15,1-.08,1.18,1.08,0,1.74-.24,1.14-.49,1.14-.64a1.32,1.32,0,0,0-.6-.94c-.51-.41-.43-.74-.67-.83s-.49.11-1,.21S10.43,15.19,10.35,15.29Z" transform="translate(0)"/><path class="cls-165" d="M10.38,15.31c-.09.11.32.75.38,1.09s-.15,1-.08,1.16,1.05,0,1.71-.23,1.11-.49,1.11-.63a1.28,1.28,0,0,0-.59-.93c-.5-.4-.42-.74-.65-.82s-.49.1-.95.21S10.47,15.2,10.38,15.31Z" transform="translate(0)"/></g><g class="cls-166"><path class="cls-167" d="M9.5,1.33a6.53,6.53,0,0,1,6.58,6.29c0-.06,0-.11,0-.17A6.51,6.51,0,0,0,9.5,1,6.51,6.51,0,0,0,2.9,7.45a1,1,0,0,0,0,.17A6.52,6.52,0,0,1,9.5,1.33Z" transform="translate(0)"/><path class="cls-168" d="M7.27,2.17S7.8,1.5,9.55,1.5s2.28.67,2.28.67a15.09,15.09,0,0,0-2.28-.28A15.29,15.29,0,0,0,7.27,2.17Z" transform="translate(0)"/></g><path class="cls-169" d="M3.32,6.51C3.6,7.73,7.67,10,9.61,10s5.38-2.23,6-3.45c.24-.52-1.21-5-6-5S3.17,5.87,3.32,6.51Z" transform="translate(0)"/><path class="cls-170" d="M2.76,15.52c-.27.12,2.27,2.95,7,2.95s7-3.06,6.68-3.28-2.32,2.17-6.68,2.17C4.75,17.36,3.42,15.24,2.76,15.52Z" transform="translate(0)"/><path class="cls-171" d="M2.83,15.57c-.27.11,2.24,2.9,6.94,2.9s6.89-3,6.62-3.23-2.3,2.14-6.62,2.14C4.8,17.38,3.48,15.3,2.83,15.57Z" transform="translate(0)"/><path class="cls-172" d="M2.9,15.61c-.27.11,2.21,2.85,6.87,2.85s6.82-3,6.55-3.17-2.27,2.1-6.55,2.1C4.84,17.39,3.54,15.35,2.9,15.61Z" transform="translate(0)"/><path class="cls-173" d="M3,15.66c-.26.11,2.2,2.8,6.81,2.8s6.75-2.9,6.48-3.12S14,17.41,9.77,17.41C4.89,17.41,3.6,15.4,3,15.66Z" transform="translate(0)"/><path class="cls-174" d="M3,15.7c-.27.11,2.17,2.75,6.74,2.75s6.68-2.84,6.41-3.06-2.22,2-6.41,2C4.94,17.42,3.65,15.45,3,15.7Z" transform="translate(0)"/><path class="cls-175" d="M3.1,15.75c-.27.1,2.15,2.7,6.67,2.7s6.61-2.79,6.35-3-2.21,2-6.35,2C5,17.44,3.71,15.5,3.1,15.75Z" transform="translate(0)"/><path class="cls-176" d="M3.16,15.79c-.26.11,2.13,2.65,6.6,2.65s6.55-2.73,6.29-2.94-2.18,2-6.29,2C5,17.46,3.77,15.56,3.16,15.79Z" transform="translate(0)"/><path class="cls-177" d="M3.23,15.84c-.26.1,2.11,2.59,6.53,2.59s6.48-2.67,6.22-2.88-2.16,1.92-6.22,1.92C5.08,17.47,3.83,15.61,3.23,15.84Z" transform="translate(0)"/><path class="cls-178" d="M3.3,15.88C3,16,5.38,18.43,9.76,18.43s6.41-2.62,6.16-2.83-2.14,1.89-6.16,1.89C5.13,17.49,3.89,15.66,3.3,15.88Z" transform="translate(0)"/><path class="cls-179" d="M3.37,15.93c-.26.09,2.06,2.49,6.39,2.49s6.34-2.56,6.09-2.77-2.11,1.86-6.09,1.86C5.18,17.51,3.94,15.71,3.37,15.93Z" transform="translate(0)"/><path class="cls-180" d="M3.43,16c-.25.1,2,2.45,6.33,2.45s6.27-2.51,6-2.72-2.09,1.82-6,1.82C5.23,17.52,4,15.76,3.43,16Z" transform="translate(0)"/><path class="cls-181" d="M3.5,16c-.25.09,2,2.39,6.26,2.39s6.2-2.45,6-2.66-2.07,1.79-6,1.79C5.27,17.54,4.06,15.81,3.5,16Z" transform="translate(0)"/><path class="cls-182" d="M3.57,16.06c-.25.09,2,2.35,6.18,2.35s6.14-2.4,5.9-2.6-2.05,1.74-5.9,1.74C5.32,17.55,4.12,15.87,3.57,16.06Z" transform="translate(0)"/><path class="cls-183" d="M3.63,16.11c-.24.09,2,2.29,6.12,2.29s6.07-2.34,5.83-2.54-2,1.71-5.83,1.71C5.37,17.57,4.17,15.92,3.63,16.11Z" transform="translate(0)"/><path class="cls-184" d="M3.7,16.16c-.24.08,2,2.24,6.05,2.24s6-2.29,5.76-2.49-2,1.68-5.76,1.68C5.42,17.59,4.23,16,3.7,16.16Z" transform="translate(0)"/><path class="cls-185" d="M3.77,16.2c-.24.08,1.93,2.19,6,2.19s5.93-2.23,5.7-2.43-2,1.64-5.7,1.64C5.46,17.6,4.29,16,3.77,16.2Z" transform="translate(0)"/><path class="cls-186" d="M3.84,16.25c-.24.08,1.9,2.14,5.91,2.14s5.86-2.18,5.63-2.38a11.31,11.31,0,0,1-5.63,1.61C5.51,17.62,4.35,16.07,3.84,16.25Z" transform="translate(0)"/><path class="cls-187" d="M3.9,16.29c-.23.08,1.89,2.09,5.85,2.09s5.79-2.13,5.56-2.32a11.16,11.16,0,0,1-5.56,1.58C5.56,17.64,4.4,16.12,3.9,16.29Z" transform="translate(0)"/><path class="cls-188" d="M4,16.34c-.23.07,1.86,2,5.77,2s5.73-2.08,5.51-2.27a11.22,11.22,0,0,1-5.51,1.54C5.61,17.65,4.46,16.18,4,16.34Z" transform="translate(0)"/><path class="cls-189" d="M4,16.38c-.23.07,1.84,2,5.7,2s5.66-2,5.44-2.21a11,11,0,0,1-5.44,1.51C5.65,17.67,4.52,16.23,4,16.38Z" transform="translate(0)"/><path class="cls-190" d="M4.1,16.43c-.22.07,1.82,1.93,5.64,1.93s5.59-2,5.37-2.14a11,11,0,0,1-5.37,1.47C5.7,17.69,4.58,16.28,4.1,16.43Z" transform="translate(0)"/><path class="cls-191" d="M4.17,16.47C4,16.54,6,18.36,9.74,18.36s5.52-1.91,5.3-2.09a10.94,10.94,0,0,1-5.3,1.43C5.75,17.7,4.64,16.33,4.17,16.47Z" transform="translate(0)"/><path class="cls-192" d="M4.24,16.52C4,16.58,6,18.35,9.74,18.35s5.45-1.85,5.24-2a10.81,10.81,0,0,1-5.24,1.4C5.8,17.72,4.69,16.38,4.24,16.52Z" transform="translate(0)"/><path class="cls-193" d="M4.3,16.56c-.22.07,1.76,1.79,5.44,1.79s5.38-1.8,5.17-2a10.67,10.67,0,0,1-5.17,1.36C5.84,17.73,4.75,16.43,4.3,16.56Z" transform="translate(0)"/><path class="cls-194" d="M4.37,16.61c-.22.06,1.73,1.73,5.36,1.73S15,16.6,14.84,16.42a10.57,10.57,0,0,1-5.11,1.33C5.89,17.75,4.81,16.49,4.37,16.61Z" transform="translate(0)"/><path class="cls-195" d="M4.44,16.65c-.22.06,1.71,1.69,5.29,1.69s5.24-1.69,5-1.87a10.43,10.43,0,0,1-5,1.3C5.94,17.77,4.87,16.54,4.44,16.65Z" transform="translate(0)"/><path class="cls-196" d="M4.51,16.7c-.22.05,1.68,1.63,5.22,1.63s5.17-1.63,5-1.81a10.3,10.3,0,0,1-5,1.26C6,17.78,4.92,16.59,4.51,16.7Z" transform="translate(0)"/><path class="cls-197" d="M4.57,16.74c-.21.06,1.67,1.59,5.16,1.59s5.1-1.58,4.91-1.75A10.4,10.4,0,0,1,9.73,17.8C6,17.8,5,16.64,4.57,16.74Z" transform="translate(0)"/><path class="cls-198" d="M4.64,16.79c-.21.05,1.64,1.53,5.09,1.53s5-1.52,4.85-1.69a10.32,10.32,0,0,1-4.85,1.19C6.08,17.82,5,16.69,4.64,16.79Z" transform="translate(0)"/><path class="cls-199" d="M4.71,16.83c-.21.05,1.62,1.49,5,1.49s5-1.47,4.78-1.64a10.14,10.14,0,0,1-4.78,1.15C6.13,17.83,5.1,16.74,4.71,16.83Z" transform="translate(0)"/><path class="cls-200" d="M4.77,16.88c-.2,0,1.6,1.43,5,1.43s4.9-1.41,4.72-1.58a10.1,10.1,0,0,1-4.72,1.12C6.18,17.85,5.15,16.79,4.77,16.88Z" transform="translate(0)"/><path class="cls-201" d="M4.84,16.92c-.2,0,1.58,1.39,4.88,1.39s4.83-1.36,4.65-1.53a9.92,9.92,0,0,1-4.65,1.08C6.23,17.86,5.21,16.84,4.84,16.92Z" transform="translate(0)"/></g></g></g></svg>